<mxfile host="app.diagrams.net" modified="2020-11-25T06:17:19.293Z" agent="5.0 (Macintosh; Intel Mac OS X 10_15_4) AppleWebKit/537.36 (KHTML, like Gecko) Chrome/87.0.4280.67 Safari/537.36" etag="h1bfngJHmQssfP3PtUIX" version="13.10.2" type="github">
  <diagram id="5lNPGHeLflKk1Z1oQ-kZ" name="Page-1">
    <mxGraphModel dx="2864" dy="1053" grid="1" gridSize="10" guides="1" tooltips="1" connect="1" arrows="1" fold="1" page="1" pageScale="1" pageWidth="827" pageHeight="1169" math="0" shadow="0">
      <root>
        <mxCell id="0" />
        <mxCell id="1" parent="0" />
        <mxCell id="P4cTz3M8oP0S0SRxjrqa-1" value="" style="rounded=0;whiteSpace=wrap;html=1;align=left;" vertex="1" parent="1">
          <mxGeometry x="41" y="516" width="1420" height="1004" as="geometry" />
        </mxCell>
        <mxCell id="P4cTz3M8oP0S0SRxjrqa-2" value="UI" style="shape=umlLifeline;perimeter=lifelinePerimeter;whiteSpace=wrap;html=1;container=1;collapsible=0;recursiveResize=0;outlineConnect=0;" vertex="1" parent="1">
          <mxGeometry x="70" y="550" width="100" height="1040" as="geometry" />
        </mxCell>
        <mxCell id="P4cTz3M8oP0S0SRxjrqa-3" value="" style="html=1;points=[];perimeter=orthogonalPerimeter;fontSize=12;" vertex="1" parent="P4cTz3M8oP0S0SRxjrqa-2">
          <mxGeometry x="50" y="352" width="10" height="40" as="geometry" />
        </mxCell>
        <mxCell id="P4cTz3M8oP0S0SRxjrqa-4" value="&lt;b&gt;href&lt;/b&gt;" style="edgeStyle=orthogonalEdgeStyle;html=1;align=left;spacingLeft=2;endArrow=block;rounded=0;entryX=1;entryY=0;fontSize=12;" edge="1" parent="P4cTz3M8oP0S0SRxjrqa-2">
          <mxGeometry relative="1" as="geometry">
            <mxPoint x="55" y="317" as="sourcePoint" />
            <Array as="points">
              <mxPoint x="55" y="317" />
              <mxPoint x="80" y="317" />
              <mxPoint x="80" y="361" />
            </Array>
            <mxPoint x="60" y="361" as="targetPoint" />
          </mxGeometry>
        </mxCell>
        <mxCell id="P4cTz3M8oP0S0SRxjrqa-5" value="dispatch" style="html=1;verticalAlign=bottom;startArrow=circle;startFill=1;endArrow=open;startSize=6;endSize=8;entryX=0;entryY=0.25;entryDx=0;entryDy=0;" edge="1" parent="1">
          <mxGeometry width="80" relative="1" as="geometry">
            <mxPoint y="680.5" as="sourcePoint" />
            <mxPoint x="74.21000000000004" y="680" as="targetPoint" />
          </mxGeometry>
        </mxCell>
        <mxCell id="P4cTz3M8oP0S0SRxjrqa-6" value="TP" style="shape=umlLifeline;perimeter=lifelinePerimeter;whiteSpace=wrap;html=1;container=1;collapsible=0;recursiveResize=0;outlineConnect=0;" vertex="1" parent="1">
          <mxGeometry x="400" y="550" width="100" height="970" as="geometry" />
        </mxCell>
        <mxCell id="P4cTz3M8oP0S0SRxjrqa-7" value="" style="html=1;points=[];perimeter=orthogonalPerimeter;fontSize=12;" vertex="1" parent="P4cTz3M8oP0S0SRxjrqa-6">
          <mxGeometry x="50" y="100" width="10" height="180" as="geometry" />
        </mxCell>
        <mxCell id="P4cTz3M8oP0S0SRxjrqa-8" value="" style="html=1;points=[];perimeter=orthogonalPerimeter;fontSize=12;" vertex="1" parent="P4cTz3M8oP0S0SRxjrqa-6">
          <mxGeometry x="60" y="167" width="10" height="40" as="geometry" />
        </mxCell>
        <mxCell id="P4cTz3M8oP0S0SRxjrqa-9" value="2,将tpId转换为tp&lt;br&gt;convertTp(tpId, tpIndex) -&amp;gt; tp&amp;nbsp;" style="edgeStyle=orthogonalEdgeStyle;html=1;align=left;spacingLeft=2;endArrow=block;rounded=0;entryX=1;entryY=0;fontSize=12;exitX=0.9;exitY=0.292;exitDx=0;exitDy=0;exitPerimeter=0;" edge="1" parent="P4cTz3M8oP0S0SRxjrqa-6">
          <mxGeometry relative="1" as="geometry">
            <mxPoint x="59" y="150.96000000000004" as="sourcePoint" />
            <Array as="points">
              <mxPoint x="59" y="153" />
              <mxPoint x="90" y="153" />
              <mxPoint x="90" y="183" />
            </Array>
            <mxPoint x="70" y="183" as="targetPoint" />
          </mxGeometry>
        </mxCell>
        <mxCell id="P4cTz3M8oP0S0SRxjrqa-10" value="" style="html=1;points=[];perimeter=orthogonalPerimeter;fontSize=12;fontColor=#FF0000;align=left;" vertex="1" parent="P4cTz3M8oP0S0SRxjrqa-6">
          <mxGeometry x="50" y="910" width="10" height="40" as="geometry" />
        </mxCell>
        <mxCell id="P4cTz3M8oP0S0SRxjrqa-11" value="1,获取TpExtra&lt;br&gt;genTPInfo(tpId, tpIndex, tpName)&amp;nbsp;" style="html=1;verticalAlign=bottom;endArrow=block;" edge="1" parent="1" target="P4cTz3M8oP0S0SRxjrqa-6">
          <mxGeometry width="80" relative="1" as="geometry">
            <mxPoint x="130" y="660" as="sourcePoint" />
            <mxPoint x="210" y="660" as="targetPoint" />
          </mxGeometry>
        </mxCell>
        <mxCell id="P4cTz3M8oP0S0SRxjrqa-12" value="&lt;b&gt;return tpExtra&lt;/b&gt;" style="html=1;verticalAlign=bottom;endArrow=open;dashed=1;endSize=8;exitX=0;exitY=0.95;fontSize=12;" edge="1" parent="1" source="P4cTz3M8oP0S0SRxjrqa-7" target="P4cTz3M8oP0S0SRxjrqa-2">
          <mxGeometry relative="1" as="geometry">
            <mxPoint x="430" y="766" as="targetPoint" />
          </mxGeometry>
        </mxCell>
        <mxCell id="P4cTz3M8oP0S0SRxjrqa-13" value="Route" style="shape=umlLifeline;perimeter=lifelinePerimeter;whiteSpace=wrap;html=1;container=1;collapsible=0;recursiveResize=0;outlineConnect=0;" vertex="1" parent="1">
          <mxGeometry x="710" y="550" width="100" height="970" as="geometry" />
        </mxCell>
        <mxCell id="P4cTz3M8oP0S0SRxjrqa-14" value="" style="html=1;points=[];perimeter=orthogonalPerimeter;fontSize=12;align=left;" vertex="1" parent="P4cTz3M8oP0S0SRxjrqa-13">
          <mxGeometry x="50" y="430" width="10" height="50" as="geometry" />
        </mxCell>
        <mxCell id="P4cTz3M8oP0S0SRxjrqa-15" value="" style="html=1;points=[];perimeter=orthogonalPerimeter;fontSize=12;align=left;" vertex="1" parent="P4cTz3M8oP0S0SRxjrqa-13">
          <mxGeometry x="50" y="518" width="10" height="40" as="geometry" />
        </mxCell>
        <mxCell id="P4cTz3M8oP0S0SRxjrqa-16" value="7,RN跳转：routeToRN(href, tpExtra)" style="edgeStyle=orthogonalEdgeStyle;html=1;align=left;spacingLeft=2;endArrow=block;rounded=0;entryX=1;entryY=0;fontSize=12;" edge="1" parent="P4cTz3M8oP0S0SRxjrqa-13" target="P4cTz3M8oP0S0SRxjrqa-15">
          <mxGeometry relative="1" as="geometry">
            <mxPoint x="55" y="499" as="sourcePoint" />
            <Array as="points">
              <mxPoint x="80" y="499" />
            </Array>
          </mxGeometry>
        </mxCell>
        <mxCell id="P4cTz3M8oP0S0SRxjrqa-17" value="" style="html=1;points=[];perimeter=orthogonalPerimeter;fontSize=12;fontColor=#FF0000;align=left;" vertex="1" parent="P4cTz3M8oP0S0SRxjrqa-13">
          <mxGeometry x="50" y="756" width="10" height="160" as="geometry" />
        </mxCell>
        <mxCell id="P4cTz3M8oP0S0SRxjrqa-18" value="" style="html=1;points=[];perimeter=orthogonalPerimeter;fontSize=12;fontColor=#FF0000;align=left;" vertex="1" parent="P4cTz3M8oP0S0SRxjrqa-13">
          <mxGeometry x="60" y="862" width="10" height="40" as="geometry" />
        </mxCell>
        <mxCell id="P4cTz3M8oP0S0SRxjrqa-19" value="10,解析：parse(newTpExtra) -&amp;gt; (tp, tpName)" style="edgeStyle=orthogonalEdgeStyle;html=1;align=left;spacingLeft=2;endArrow=block;rounded=0;entryX=1;entryY=0;fontSize=12;fontColor=#FF0000;" edge="1" parent="P4cTz3M8oP0S0SRxjrqa-13" target="P4cTz3M8oP0S0SRxjrqa-18">
          <mxGeometry relative="1" as="geometry">
            <mxPoint x="65" y="842" as="sourcePoint" />
            <Array as="points">
              <mxPoint x="90" y="842" />
            </Array>
          </mxGeometry>
        </mxCell>
        <mxCell id="P4cTz3M8oP0S0SRxjrqa-20" value="5,路由：SHRouteGo.match(href, tpExtra)" style="html=1;verticalAlign=bottom;endArrow=block;entryX=0;entryY=0;fontSize=12;" edge="1" parent="1">
          <mxGeometry relative="1" as="geometry">
            <mxPoint x="119.07142857142844" y="964.9999999999995" as="sourcePoint" />
            <mxPoint x="760" y="964.9999999999995" as="targetPoint" />
          </mxGeometry>
        </mxCell>
        <mxCell id="P4cTz3M8oP0S0SRxjrqa-21" value="StatisticsEvent 上传【sls】" style="shape=umlLifeline;perimeter=lifelinePerimeter;whiteSpace=wrap;html=1;container=1;collapsible=0;recursiveResize=0;outlineConnect=0;" vertex="1" parent="1">
          <mxGeometry x="1020" y="550" width="180" height="970" as="geometry" />
        </mxCell>
        <mxCell id="P4cTz3M8oP0S0SRxjrqa-22" value="" style="html=1;points=[];perimeter=orthogonalPerimeter;fontSize=12;align=left;" vertex="1" parent="P4cTz3M8oP0S0SRxjrqa-21">
          <mxGeometry x="85" y="440" width="10" height="80" as="geometry" />
        </mxCell>
        <mxCell id="P4cTz3M8oP0S0SRxjrqa-23" value="" style="html=1;points=[];perimeter=orthogonalPerimeter;fontSize=12;align=left;" vertex="1" parent="P4cTz3M8oP0S0SRxjrqa-21">
          <mxGeometry x="85" y="810" width="10" height="80" as="geometry" />
        </mxCell>
        <mxCell id="P4cTz3M8oP0S0SRxjrqa-24" value="&amp;nbsp;6,埋点：StatisticsEvent:sendDaceEvent(href, tpExtra)" style="html=1;verticalAlign=bottom;endArrow=block;fontSize=12;" edge="1" parent="1">
          <mxGeometry relative="1" as="geometry">
            <mxPoint x="767" y="1009.9999999999995" as="sourcePoint" />
            <mxPoint x="1107" y="1009.9999999999995" as="targetPoint" />
          </mxGeometry>
        </mxCell>
        <mxCell id="P4cTz3M8oP0S0SRxjrqa-25" value="{&lt;br&gt;&quot;urlinfo&quot;:&lt;b&gt;href&lt;/b&gt;,&lt;br&gt;&quot;pti&quot;:&lt;span style=&quot;background-color: rgb(255 , 255 , 255)&quot;&gt;&amp;nbsp;&lt;b&gt;tpExtra&lt;/b&gt;&lt;/span&gt;&lt;br&gt;}" style="text;html=1;strokeColor=none;fillColor=none;align=center;verticalAlign=middle;whiteSpace=wrap;rounded=0;fontSize=12;" vertex="1" parent="1">
          <mxGeometry x="1117" y="990" width="100" height="60" as="geometry" />
        </mxCell>
        <mxCell id="P4cTz3M8oP0S0SRxjrqa-26" value="" style="html=1;points=[];perimeter=orthogonalPerimeter;fontSize=12;" vertex="1" parent="1">
          <mxGeometry x="460" y="780" width="10" height="40" as="geometry" />
        </mxCell>
        <mxCell id="P4cTz3M8oP0S0SRxjrqa-27" value="3, tpId入栈 addTpInStack(tp, tpName)&amp;nbsp;&lt;br&gt;4, 组装TpExtra&amp;nbsp; assemblyTPExtra() -&amp;gt; tpExtra&amp;nbsp;" style="edgeStyle=orthogonalEdgeStyle;html=1;align=left;spacingLeft=2;endArrow=block;rounded=0;entryX=1;entryY=0;fontSize=12;exitX=0.9;exitY=0.292;exitDx=0;exitDy=0;exitPerimeter=0;" edge="1" parent="1">
          <mxGeometry relative="1" as="geometry">
            <mxPoint x="461" y="764.96" as="sourcePoint" />
            <Array as="points">
              <mxPoint x="461" y="767" />
              <mxPoint x="492" y="767" />
              <mxPoint x="492" y="797" />
            </Array>
            <mxPoint x="472" y="797" as="targetPoint" />
          </mxGeometry>
        </mxCell>
        <mxCell id="P4cTz3M8oP0S0SRxjrqa-28" value="" style="shape=image;verticalLabelPosition=bottom;labelBackgroundColor=#ffffff;verticalAlign=top;aspect=fixed;imageAspect=0;image=data:image/png,iVBORw0KGgoAAAANSUhEUgAAASUAAAIICAYAAAAovfgCAAAgAElEQVR4XuxdB3hU1dZd09N7ISEkIaGDSBFBqYIIduy9PCv2+vRHUJ9S7Ar2igUrCnYEuyggVYr0HiC9t+kz/7f2nTuEkJCEDJjEe74vJMzccu6+56yzdjl767xerxda0ySgSUCTQAuRgE4DpRbyJrRuaBLQJCASaHGg5PF4oNfrm/R6VLKn0+madJ52sCYBTQINS8DlcqG6uhqcm01pnI9BQUGwWCx1nlbfvD0IlHhgQUEBdu7cedCFunbtiqioqIM+LyoqgsFgkO94PjvPDrndbjnWZDL5z3E6nQI6PL5243elpaWIj49v8Nl5n/Xr16OqquqAY3mv9u3bIzExscFraAc0TgI2m03kHBISguDgYDmJ77a4uFg+409dCwLfEd8pm9lslt8OhwPl5eUICwuTAau1li0Bvr+srCzs2LEdVVXVTeqs2WxCenpHZGRk1Pmu9+3bJ5gRGhp6wHUPAiV24scff8SMGTOwa9cuAZmOHTvKSY888ggGDhx4wAW+//57OYaDMiIiAn379kVhYaEM3j179qCyshLHHXecHy15PMGtQ4cOBzGisrIyLF++HL169ZJ7cLDzmrUbH2bjxo246aabBMTYP6IxwZQT5YILLsANN9yA3r171zlZmiTZf/nBlPWff/4pso2OjsbQoUNlIC1duhSbNm2C0WjEiBEj0LlzZwEcLjj8jC0nJwc///wz0tLSMGTIEOTm5mLFihXYvXs34uLiMHLkSPmtMdyWO8iys7OxYu1K9BzRG2XuyiZ11OQ1IrI4GCUlJQfNRS5yTzzxBM466yzBh5rtkOrbs88+C1K3++67r87OEMAyMzOFsRBN33//fTl2zZo1SEhIwPz587FgwQI89thj6NevH7jiXnvttbjsssswevToAxgUb0BQ+v333xEbGyv3a9eunR8Qa3bgnXfewaRJkzBgwAB52NTUVD8orV27Ftu2bUNycjI++OAD/wRpkjS1g/0SmDNnDj7//HOMGjUKH3/8sby7Y445Bi+88AJOPfVUvP3228JK+Zvvm6segYts6KOPPsK0adMwbtw4WeQ+++wz/PTTTzjxxBPx2muvycJx4YUXaoypBY83gtK8FQuQ068CS6vXNbqnJCpplhQ8HHyTLGrDhg2TxYwLEL/76quvZGG7+uqr0aVLl0ODEpnGunXKzT/55BMZXJdffrl/4JAJRUZGyvd2u10G5hVXXIH+/fsLw+Hxq1evloH63Xff4emnn8YzzzyDSy65RAY3H/L4449Hnz59/KDElZOtoqJCGBC/VxvvVVtlXLRoEci4CEZEYfaTv9mHM888UwCKDIoA2FT7VKOl/i85cMeOHbJYpKen45577hF2c+yxxwrYc0GaMGGCvDeCDH/4vi6++GKsXLkSL730kixOXIwISn/99Zd8z2sRjE466ST85z//EUastZYpAc7Xr1fMw56+JVht3dKkTqZZ2uNBy3iZq9SOunfvLpoPwei///2vmGmIH+ecc46fiPAGBzElUuyFCxcKmnFgcSAR5XhRNpVyq7177rnnRF0j2hEFScdqgtKyZctw3nnnCUXjqjl8+HBhTaT7tP/wPgQiNqp6S5YskQ7yGDbSew7smk1VFy+66CLQnkUwYiMwkaW9+OKLwqK0FhgJcKEhy+F7JYhwYWKbNWsW5s6dCzJqqtDqe8nPz8frr78uTJe2JKpszz//vJzDY3gOF5Y77rhDVDuttVwJNAuUzO3xYNB4fP/DD+jcqZNgSExMDObNmycsmqz5tNNOw+TJk5GUlOQXQr3qGyc3f2h1J10fPHiwf9CpZ1Nlo3rHlY9qE9U0rpY1QYmrKI3aZFVESrIbdkwFpZqvgyvyL7/8Ivfh6krmxZ/6bA4c7DS4kgqyccXt0aMHzj77bI0hBWic85188cUX8k6puqn6P9U1viuyUdqL+I4JPHy3VKn5Ds4//3xs3rxZbEscG1QBqQ5yseO1OB7qcngEqOvaZQIgAUV9m4/sfuVYVr0eDGpsrI87zZyMB4NuwuLFiwU/SC7UuUyc2LBhA2699VbBgpqtTlDaunWrrGZUsTjpSbl5UdqMyJoILGxkVbfccot8R5ZCw/b06dNlAKs2JYLSCSecgFdffRW33347UlJSxCBaHygRCImoZGhUD2p3uLac6emjysaVlw9KtUAznAZgNPou8cMPP+DOO+8UbxkB6dxzz4XVahX6HR4e7lfDqapRjSY9p/rNv9nIlKme06jJRezBBx+UVZHMulOnTrj++uv95oDA9Vq7UqAkwAVlyeo/kTa0E3JdRU26bAiC0KmiPfLy8g4yZnO8cFGik6S2ieUgUKI9iQbNM844Q1jK3r17ZYARqEjjH3/8cfTs2dPfOdIwqlg0etPISQAiQNHdS5Qlk+IAJKsho+KgJZBwQNfuDFdlghKBj2yJP42xCanGbRpUG3N8kyT7Lz94+/btYqhUG1VlLipbtmwR9qs2Mp+6GkNLqGIT0MiQ6LFTG8cN37UaZvAvF3WLfHwuQPTCl5aWwGq1NamPRqMJCfHxSG6ffIAXndckNpBV06Nbux0ESrQPcUWjMZPUmgOQ3jVehLYeqnK14wqa1NNDHEwAI/Cxs1rTJKBJoGVIgIsPFxbOz6Y04gdJCAlIzcbrUJupT3VvcRHdTXlo7VhNApoE2p4ENFBqe+9UeyJNAq1aAhooterXp3Vek0Dbk4AGSm3vnWpPpEmgVUtAA6VW/fq0zmsSaHsSaBCU1F3/Wi64tvfytSdq+xI4lJerpT59g6DEPWTcNsDQAK1pEtAk0LokwPAdbuUJRPweYxEZssM4o9qNW4rU7BDNlVCDoMSARsYTMKJXa5oENAm0LgkwxohbxeoKUmzqk/z999949913JQuHumuCGhQjtrkPknmTArGbQgOlpr4Z7XhNAq1IAs0FJTVzBx+Zex3JkrinkZvpVQDiFjIGW3N7GAkMmVntTfRNEZkGSk2RlnasJoFWJoHmghK3Bk2cOFE2WbMxDxpTztCkw+1iBB/ubeR2M2b54PE33nij7EE93KaB0uFKTjtPk0ArkEAgQOnDDz+UnGhs3Ne6atUq2eHP7JFMWTN27Fj/3jZmjeD/WwwoUb8kWnIDH2kcswlotqhWMHK1LrZZCQQalJiwjRk5uMmezq+vv/4ad911l2zEp6H7mmuuaTmgRIP4W2+9JRt3mb2S+iYzRg4aNEjy6GibbNvsuNcerAVLINCg9MYbb0jiPmabpUfvf//7n7Al2pno6WsxoETr/r333itpdJn2Vk1PQr2TKS6YWYCfM1WF1jQJaBI4ehIINCiReDAdDfOr05700EMPSU4kEg+CVYtQ36iyffrpp7j//vsleTw7qDbGNTAf78yZM6XCCPPxNtSYVIr6Kh+SjXorE74xDoJJweprrLbxzTff+L8mijOJVM1837XPVdO3qp/X/n9DfVW/ZyED5jEPVJxGY++rHadJoCEJBBqUGA7AZI/Uhmia4c+VV14pZc2oHbUIpkQLPCc+8y1zYtaOU2DuFLIooiqzVKpFB+oSJt2PBDHao5j4i6ofgY1AxYevTwUkmPAYpt2smamSzIzCOlKN/aVOzSRoTz31VL1F947U/bXrahJoSAKBBiXej8UkmPyRc5+JG5lNVl2QWwQoMV2u6hasz6jN3M3MPMkUqlTl6mu0R7HiCXM+MwMlEZigxnOZYI4FBqgqMhEdKyCwjJJasoWqIpPT1S4YwKyULEbA81hh5eSTTxY1krmimb6XgEZD3Ztvvin3IiAyMT6BlucS6HgPZk7k5zUjYwmYrIvGFMBM91pfJdCGBo72vSaBIyWBQIDS1KlTZd7UbHVVt+VnLApw1VVX/bPet8aAEics0+kSlNSqKLVfAgGBuirTpRIQSBOpfjFrHfNEU31joUr+JrCRAakgQGEQkGiEU7NiMrqUucP5OYGGx7NKC8GFhjlWVmE1FAIpwYXZNVlBhYyL92GaVtrI+Jvtjz/+kL6r8Ro1+88c1hooHalppV23ORJoLihxTtIs05iUxZyHDK48/fTTRcs53NbsOCVSONp/GMVJ20rtxo7efffdolZdd911/vLNtY9j/ANBhQZxgg1D2hlewBIsdEMy2TyT0BNomCO8pprIe7CIAQFNBQ0a3QgqTOPJuAlGoHLfDgGHoEY7FyvsUp1k7bKHH35Y8oqrddPV4glqCSCyqvqErYHS4Q4/7bwjLYHmghLnA+26TWkEMLVMe1POU49tNijxQmQjjFMgKJHm1QQMqja02LPEDosR1NcIHqxwQLWMjaV5yMJYM05lSgQlMhcyqNpUUlXfyITU+1PtIxCxVh0bVThel3ow0Z+VNMjECEgsSc7GF0CVjPYi1ZvIzwm+BLa6jNkaKB3O0NPOORoSaC4oHY0+1r5HQEBJLVxJYGJJ5kcffVRYDosU/rVkMf4vrT1ufPpZRJx6BnR6/UHPSfWJnjO1NhQPoDAJQgQmgomqvtUHStwUSHCs6W1jv1g2nHYghsfTbsQ+EtRo5yJzIyjxHiz9Q5WOgZ+sc8aimoxcpY2K9izaunhe7brn7CttUqzyotmU/okhrN3zUBJoLijVZTvi/eryXPNz1cbbnI25AQMldoIqFCc2AYasggFW48ePR/j6NfC+9xbMl14N/YiRgMF4gBxJERklyuq5NRv31LAoJdkJbT80hDNKnCBRu5HhkBXVrLSplmmiR482IzIm2prIesiiWNdOpZk0nrPWHe1NKtsj+6Khm32g8Z1ehrrajz/+KKEQWkiABhAtTQKHA0qcH7QN0T7L86k1qDGG/E6tasK/aa/los55xMVfLbvFvxk2wPP4d1NAKiCg1KgXsfh3eD96Dxh/O3Q96/fANepa2kGaBDQJNEoChwNKBCHW++POf2o8tPdyQeYiz4Wa5hRqGDS5kCRw4WalW7XWI7WTMWPG4Oeff5bakbTzMqC6se3ogRLr/e7cCm9CO+jCDqwD1djOasdpEtAk0DQJHA4o0bFErYOOHe5vowZAdkQDNlnRTz/9JEyqQ4cOAkQMdqa9+LfffhOgIojxPDIkghedV4eKTzwiNqWmiUk7WpOAJoGjJYHDASXaVblDokePHhIiQxWN5hjGI3KPK80VtAMz7o/siX/TNEIgIyjRFhsSEiJOJdqJaYdtysb8o8eUjtZb0O6jSUCTgF8ChwNKdOqQFQ0cOFAcRbQHUX2jE4kMiGE1dCyxhDttRgxOHjp0qOxs4PcMuSEgMZU24wN5naak49VASRvAmgTasAQOB5SoqjFOLzMzU8CHTIk/dDCRCTFmj1u+1N90MtH+RFWO4TT0lHP7FY/n/en5bkrTQKkp0tKO1STQyiRwOKBELzfZEfN60wOu7kUlK2J4DhkQv6MHmyoeAYwqGo3iDIshW6KaxwwhDBGiZ07dadEY8TUISuwAkbAp9KsxN9aO0SSgSeDIS4CAQmNzY7aJqL3hZlt1I7saj6TajniMGkZD4KHtiEDFezAkiPtRya5obyKw0d5Eo3hAvW9EWiKgGptw5MWo3UGTgCaBQEmAABKISiaB6k9jrtMgU2rMRbRjNAloEtAkECgJaKAUKElq19EkoEkgIBLQQCkgYtQuoklAk0CgJNAoUPJ4vHC63ODvutrGzVvRvWtn+YoRn8UlpSgqLEZERDgSEuKwY9dulFdUICMtVYoJqEbzvIIiGPU6xMbGyLmVVdVYvuovxMfGolePbk1+RhrjCvLz8fOPP2DDpg1YtWolEhMSkNIhBaeOPQN9+/ZX+ujxoKysEsHBZoQEB4t3gQY5j9cLu90G6IDoaKVPbCajAUbjwRuJ+Z3N5kTdUlHOLSkthcftRnBICIwGgxgJt2zbgZT2SXJvtpy8AkSGhyMk2AKrzY6svfsQHR2F8NBQlJSU1iEHLzwA2iXEN2m/Hd21a9esQTemgikqBDxeCX77KCEc45+6Gz99uxD9+vbAkzc9gkivDn2DQ9C5Xz98GRUhBsxzzr3ggL5YLEbodbqD+qfI0VXn+6usqoLZZBI57Nm7D4mJCdixcxfSUztg8+Zt6N27p7wLl8uN/MJCpHVIkf/zp6CgCGFhofLMNNxaLGaUlpajtKwMTqcLXrjlXaZ3SEVpWTliY6JhdzpRVFwMa3W1jF9Krl1iIiLCw+XZr73mKslgwRQ1Xuhgdziwc/t2dO/albtLZSyw8VjugbRWWREaHurffM1sq5s378BnH72PhA4dALsNIZF1b6lwuTwyjw7VsvZmIyWpHXLz8v2HcRM7vVphoSHYm50DvV6Hqqpq8XJ17Zwpxmar1YYNm7ciOiIMGRkdD7gFZU4ZxcbEIDgoCFl79kFv0CMhPk7eBQcwJeN2uWE0KftSi/ftxYr/uxtnx0ci2+7A63sL8E1RyQHXjTIYkGQxI9ZsRLTBgIsS49A1JAh2rwc35JTgubffR0hoiJzDcWIyGaTvDbVGgRInscNRPyjZ7HYEmc3yEr1eApNLBpXBoJcB5HA4ZROs2WySQSMvWYTAqeX1Tyx1IyCPYcxDUxsHzo7t2/DsM0/BbrPDbLEgIiIMBQX5uOzSK3Hi4KHwej3Sx5KSMhhMBkRGRMiL4aAnoPJFuzwuxMXF+zcRmk2MaFX6XbtVWx1yvfoar8l+8WUomxKVgc97Epx5qsvpFLnw/8oC4IRBr5f/uz31D2KjwdikjY4rl/+BLc+/iIEbtyJZp5N3IgBt1OPzk/qgx4Be2PbeNzhlTwEMvoFqOeNMlF15lfSvUydl4VFbcBCfoQ5Q8nhhtTnrFAnvSTmonhkZH06nyIPjiJNG3UhN54qJ48qrgCdlqS5o6iZPfsZn8HLB9GEIo4/5Oa/t8XrgcrsFgJVxpywyer1BYmjGjh2Nzz6dLXu4XB4P9E4r7CUlsETGQmexKLveHQ7AaofHbIbXrD6zDmVl5Rg+bATWrV+LJb/9jl7H9IRp3hewXHpVnc/udLrhcB4alAiuJqMRTvd++cmo0SnjgeNUBx3cMo69sPg2wioLgR16HQHMJONMbRxDHreyeZbXoLz5rcFYY1Hh++ZA5jgFULBrJ+acOxb3dEjEhgor7t+eheXlVTg5OgK9wxWgqXJ7UOJy46vCEhQ7XPjm2K4YGhWOaq8bJ+0pw9eL/vRHcnOccB4RExpqAQGlhm5yNL+nm3LWe+9g9V+rpZjBr7/9JC/0zDPGCftRUzE4nR5UVleIKzPIbBIw4CTgDydOaHiYHyybA0pH89kbuteuXTtgfOIJxCxfoaSe4I+eC4kO1SbIKumqsiMYyuKyu30y5vToik7H9sHFl1x+UFjI4YBSQ308mt+zmuu7787E4489JpHJXms5MH0KdFu2wXPzBOgGHAedww73j/Ph3roJpguvhC4pyb8QzJo1CxPuvx/Zefn4bfiJOCExCug/EMZ7Jx42KB3N5z/UvfJ278LrZ43G4+lJWFFehVs278amqmokkVhQQyAIerxweBRgcnm92DioD7qFWVDl8mD4vjLMX7LMH4rwrwYlroy//vILXnvlZQwZMhQbN63HaaeejjFjTvPnelFX4sKSUkSEhcrqzMaVhgM1K2s3xp56GmLj42TVaCugNH/qZLSbOwc99Ea43F7odF4YdFx1ARdVH69BaLbD7RZZLQ8y47O+vXHttdejf/8BB43h1g5KD056ABdfdD769z9OUWHmzYdx7RJ4N/0N3RsfwWMJgmf1Cng+eQf60WOhO/k06HUGYSpsTBL4wUcfiFr3Zq8uuDomFq5b74H53HNbPSjlZu3Gs6edjBcz2uH30gpcvX47smxOhDKy22RAnNmEWGFaXiwqq4STWsqJfZBoMaHS5UG/HXn4c/XffjX3Xw1KHA1bt27BlMmPSF5t5kG69dbbEReXgC++mIPfFv4i+b+HDhmB2++4C+3aJYrtZu/ebNx8y/VYtWoFUlJSMXXaEzjllDEyOdsKKLmeeALuTz8VMOK08uj08Lg8wpbgdcOtA/RevdjWNgF4K7UdBo07GycMPgmdO3dpU6BENnzlFZdh2rSp6NatKzwuL1BaAv2GtfB8+A50z78JFBcAH72v6Hw33AxdWLCYmQC92HBYmnrB/B/hdLlwTmo7fDzqRLhefA8hIZZWD0o5e7Iw7dRReDMjCfMLS3HJ39uQYDZheFQ4ki0mhIsZRodFZRX4qaQMHYLMWDKgFyKNBpQ6PBiUXYI/V6yWjbwisX+z+kYBUO/+4vM5ePjhB3HuuefLBsH3Zs3Etm3bRWVhhKnd4cTbb7+PPn37ITI8DOeed5bkkKFOHxISjKuuvhb33Xe/qH5tAZTIDotffAG6r76GqbwCFpcbOr1XbC46GBQbj9sNj442HwNcAwYg4uWXxU5Yn2myNTOlPbuz8MwzT+KBiRPQsWM64NXB4XXD8NYMVG7ag4j/TQF+/wne336Dd+jJgMUM/QkDgbAQYUrLl6/E/Pnf4aUXX0J+QSGSIyOwadc+6M0GhASbWz0o5e7dgwdOH41bI4KwsKQCk3dnI8FkRDqdMUwC5/aI+lbgcKHC7cLJ0ZF4t1cGEsxm5NpdGFPqwJI/l/tV3X89KHECbtu2Ba+9+jLS0zNRXFSImTPfEKOpyWQUmxEN8UOGDsekBycjIS4Kxx/fV+xKnJzBwSEYM2Yspk59HEZ6ipph6G4pNgK1H9u3bcPOF19A7717gX3ZiHI74fXQyOmBUQzrQJ7ZgOWjR+O8RyYrHqh6WmsGpU9nfwKz2SB5gNQtEB6nDZ6H7oa963EIGXIivM9MhS45Ha7ISKCoGIZrboAuNVUYwjPPPCcOnZdfeglZe/eI8byouEIMuW0BlPJysnH96WOgK8jDtmobKlxuVLrdsBj0CNXrEaLXI9RoQJ7DiWKnC12CgzA2LgoTU9ujxOvGfYkZeG/Wh/6R868HJUqCbvj8gnzYbTb88ftvePudmbInR1J4mgwIDw1DTGw0Zsx4FVERkXh08kNSV85ms4vxe/ToU3DTzbeJ67otgRK9nlzpnU4Hvp74AEYXl6B422YkVlbDoNODPp/izAwkzvpADP2HSmPaWkGJi9a999yFCy44H8OHD5PnFMN/RRmsN92AoAcegVhzZ74MOKvhLSyCNyIG3iuuhX7AIJHgNddci5iYKHz22WeyM96o06GorKrNgFJ+Xh4evfISnF9RiM1VViwuq8DS8kocGx6KLiHB2Gm14Y/SChQ6XbDodeggoQEmfNW7KwrcXrw5cCQmT56iMaXaCzqByelwwuGw45dff8Kvv/6CnJxsWK3VEtsRF5+AByZMgskSJPFSP/wwH5u3bEV8fDxOOWUs0tI6timbUl2Eh+aSuc89hTN37cWu7VsQUViCFSOG4ozHn2qQ5LVWUOIG0okP3I/x42+UWn9s4pUtKoLrjbdgvP56eKMjALcLuopieJYtBYzB0A0byd2oKC4slMIT3EE/b963KCwuAh3d2blFCA8PaxNMqaioEI/edhOCVi7FotJKhBr0iDcbMTI6EuclRiPH7sTMfflYXFaJnTYHzoiLxI3JiRgcHY4l1Xasvnw8rr76PxpTqmsWSSwO3fxuDwoK87Fp0wZk7VHodv/jjkdmRieJZ3I6GApAm4piBDYZ95dTaktMqU5gYhwQvFgwZw6O27YdjiuvQPvkhsudt1ZQYlDtwt9+wbhxZ0t8khrT43XaoKMqazTRMqtortRtXQ5AZ4SXzBE6fDF3LuwOOxb+thCff/mFbFhnmzdvAYaPGNEmQElK0r/1BtJWLsaavHzEuJyIhwcWrxdmeBCiA8xeYH1VNb4tLEGpy4OzY6Nwdft4/F5lh/PhpzB8+Ah/uJSmvtWaeVwFCU7KD4MZlQPEs2Y2+ylmfeVk2jooNUiJ2phN6Y3XX8Pq1avQt28fSUSmlgWi19GgNwgOiceIgZM6JXBT/i/QDSyYvwCXX3E53n//A3z62acSEsB2ww3j8dz0GW0ClBh8mpeXi00bNqAoPw/ljIqvrITX6UQQPIiEF7HwItTlhLuyHI7KauirKmCvrsT6ShtOee5l9OzRUwOlw51cDZ2ngVLdEmqtTGnZsqV4+KFJJEMSuS+R9T62SG8rPXG+vRcCQwJFEjCusGhu+xg6bBg+/vgTdO3WDbGxcSKgtNQ0XHPttW0ClBqaE5SXWk2aql5paRmKigp8RQOcOPPMMxEZGaWpbw0J8nC/10CpqaDkgdVW9963w30HgTyPE2r27E9QVlaCkOAQZTX3bxWq7W08cA9RzUNzcnJxxZVXol27JH/3qPK1Be9bIOUtLDPQcUqy74h7hw618zTQT9GCrkeB1reRkJss/62N7u+6IgaUfWotc7AoChhgrbbC5XLuD3k4jO4KAIWGispXs9W3eZshJ/Vtam/zY0gHGPz7Pw/9tI3a+9bmBaY9oCYBTQItRgIaKLWYV6F1RJOAJgFKQAMlbRxoEtAk0KIkoIFSi3odWmc0CWgS0EBJGwOaBDQJtCgJaKDUol6H1hlNApoENFDSxoAmAU0CLUoCGii1qNehdUaTgCaBRoGSmj5WE5cmAU0CmgQOVwJqwYiGztd56gkxVfYgKkH13MQqJYg8/97o5YYEqX2vSUCTQP0SICAxNa7BwBJOCq4wLTNxpnbOrjpBqSYg8WQCEsuzMBmW1jQJaBLQJNBUCXDzLjN1mkxMFbx/f2HNbUqSaI/pl2szpQNrmCkbgjRQauor0I7XJKBJoKYEFFBy+wsJ1AdMop/VD0q+4n2+FAWkXUZj3QUZNfFrEtAkoEngUBJQaioSlGqmWGa+TgVnajKmA0CpttrGg5kcgBdkyWkNlLSBp0lAk8DhSKBuUFIqRkOK0O+3LflBSc2ux/x66kHEMAKVy+kSQNJA6XBeh3aOJgFNAgQlli2nsZt59GpYlfzCUdlSLVBSD1VVNx8ouZw+UNIM3drw0iSgSaDpEjgAlHQ11TUFc+pU3xSmpOp4Sios+UjUNw2Umqi0ZVkAACAASURBVP4atDM0CWgSUCWggJLP+0ZQkpAAVX1TQwSUo2sxpRqgJDmLWc6ZuXgJSjR0a0xJG2aaBDQJNF0C9YMSr6WYjNR4pTpASTE6KVHcCoI1BEpqfEFjurrfdqUYtmqeW7OaSEPXrP19zeuq/airkGJd56nHNXTPxjyfdowmgSMigYOyUStFReutqX5EOnH4Fz0YlGqqbAQl/t/niVNDAhQAYvP4VDdKoXGg9Ndff2HatGno0KED/u///g+7du3Cs88+W28EOMskP/HEE4iKisLnn3+OH3/8EcXFxWjfvj3+97//ScmaTz75BH/88QdOPPFEZGRk4Ndff5VKpAMHDsSVV16Jd955BytXrpTYh8a0MWPG4Nxzz8Xrr78u59UEMRrfnnvuOTz22GPIzs5G7969MWnSpMZcVjtGk8BRkYAyXn1EQQfonR54DTroDMqEbulNASWnP3iSALSfNNQBSgfZk4hH/kTqh2ZKPJdgMW7cOMTFxeG2226T6rP//e9/5aZpaWkCVg6HA5s3b5YSLIMGDcKUKVPks4suugisWMotLAQfVh6dP38+3n//fZSWliIoKEjURh6bmZmJG264QYDpsssuw86dOyXSfPDgwXW+E7vdLgDJct333HMPLrjgAtx99934888/0b9/fwQHB2Px4sVy7rx583D66aeL4FgLLjIy0s/kCIKXXHJJnfeoj12pJWhqbs3hZ0qo/f54Lz4XQZj35LMSnNkn1riv2dgvyol95rFsLBnNPvMztpp94fFlZWVyLBeBxrbGslUuEn369JGFpb7GCrKU//Dhw+s8hN9bLBYkJCT4yxzxQBZC3Lt3L7p3737IsuGNfabAHqfUgVN4iq7OwgkBvZ+PITk3bIR97hcwHN8P3n59UbZwEcK7dUNY1y7QNSN+kPOcU502HhlD0EHvd415JSRIykvJZ6rtp3bFl4afeD8omRR1zWfsVq6kmI14DxnDZEp1GbnZGYVNeZQ4pTpsSjyPk66qqgo5OTky2ThIV69eLYwpPDwc119/Pc4//3xhJzNmzMC2bdsEWC6//HI5Jz8/X4CMLTQ0VAYiz+c92c455xxcd911ci3W5+Kk5m+ynqysLHTs2BEvvfSSn/ls2rQJ999/vwDc0KFDQRa3atUqPPDAA3LOHXfcIX3ghGX/CQrs9/Tp03HrrbciNjoGJ40aKQDAaxH4brrpJlx77bUHSZ7fEXTZn9otNzdXwI/PoX5PkD3++OPRrVs3v32ObJBVWjk5v/zyS5EJgTsxMRE9e/bEWWedhZ9//ln6SRAgwPz9998oLCyUzwnIPPe0004DQXju3LlYsWKFT/32FVHU69G3b1+MHTtWFo7ajSCwceNGDBgwQN4ngeS7775D165dMWrUKCX0v1bZEi4efBcqIPKaV1999QGXXrNmjci/9uc8aNasWdixY4e8By4A7dq1w4YNG+RvjoGRI0eKDFpa8zoccG3agt17dyHx+IEIj4s/4l30lJej8vW3UPH0i7CcfxZC77sTttIqBLdLhCWexTSb0wUvipYsQuXWLbDv2wtdcRmgc0MXEgJ9+yTE9uiL0D69YbAEwatXAh/rMos01AMVlIxGE6S2nlxHqaOngJKCNf5tJnUyJTFy077khdPlgqkeQzdVLwIQW3JyMu69915RgZ5++mkBjFtuuQUjRoyQQfjee+/JhHvqqacEMAh0HJgXXnihnM/JOXnyZDl/woQJMrFiYmLkR7U/Ua3ioCXr2bNnjwDWzJkzRY1TBaau9vHx8XIPTnRejwXyyJQ48davX4/o6GhZkdnap7SH1WZHx66ZeO25F7B+40Y888wzchxBqa6Jxb6np6fXCUq8J/tHIOHkZdu6dauwIcpJdRr89ttvflD69NNPhQGSKRFEyCSGDBkiLI5/E2gJaFRzCXQPP/ywyDssLMzfBxXMyb7IEAkalANlw3NUlqayKrIt9ispKUmekYsE39Vdd90lCwnB6oorrvDLXx18r732mgAmz+O16gJmghIXhKuuuso/ZtV3RNlwoeEPVX0y2TvvvFOYMluLs++RHVVUo2zqs0CIBabBx8NVVAZvQT48RgMMKUnQx8QjJCMNnohIGPRe1n6HXtSrpqOGyl7crEA7bz4qX3wNlZnpMGXtQeQF58Fy6SXQmQzQc4IfxvU5rx22auTfegsci35T6JKXNl4PPDqfSUSnhzXIAndoJGKrHIg95zwE//de6ENCGsKgg74nhjDekRHdCk3S+zxwPHR/EOVBoKTs2lV27iqeN4900sU9K/WAElnH7bffLoOZ6tWjjz6KL774ArNnzxbgISviJHr11Vfx1VdfyWr+wQcfyCpMcOCk4OTnJKX9aOLEiX5WVfvJqBY++OCDsqpyAhG83n77baSkpGD06NFyH04g2qtOOeUU9OvXD08++aRMKAIn1T6ez9+0ZR133HFYsGCBTIyffvwR7p3b4ZjyEPQ9j8UfffrjgQcmyqQjsPL6tduhQImAQJZAFqNO2KKiIvTo0QOdOnXygxLlpU5UyoN16QkoBK9evXqJ/YyMi2BONZgyIKOgmkcmR6Ciisbn5nkfffSRyJjy5H0J1vye4Dts2DD5qdkKCgqEofJ9UUUlQyL7IpARCLdv3y7y4jHLli0TFsVr895cRNgfskqCae0VlIyXah7teWqjPMmG2H+OB76Dn376SdR42iUfeeQRGRcEcoJtTVW3yTMhUCewjl1pBXLfngXjutUI3lOA6uISmMod8DrccFQ5YXTa4TW44NK54AyPgDE1HrqrL0byNdccFrNQsnN44Vi3HqVTn4QpLRlhd94C2zuzQVUu7J7bYOnTW6r1Hk4TLcdmhc7DisBOuIuLYN2XjV0L5sG16A9EFxXAY/fAbXDDeNwAJN9yB9zt20FnCUVwdGyTYfCwQckfyd0EUOIA4kDnhOAqzklPY7Vq75EITp1ObDVcxfk3GVPnzp0FVDiYeQ1OIE5gdZVU2Q7PUe0yZAZkXYsWLRJGxUlOpvbKK6/IAD/mmGNkMpNpcCKQbTz++OMywbgS0/ZFW9V//vMfAUbe+8UXXsC5556He8bfAOdt18PEeumXXY2fw6NFDaS6RfWSYNJYUFLtOfxNUCBb4TMQLCgP/lAN4+TmhKSNjc9P9nHqqaeKWkaZEjAI7FSvVPrLiUoZqoyIiwGfj6yP96DcuShQFaMqzWfmNX/44QcBAz5P7Wa1WsWxQMZKRwAZC1t5ebkwWV6HjJDHUF1lf2s2vnO+j9qNTGnhwoUH2MeoPnIRIOBR7VftYuwbnQ18N2SZHB+8J9/nP9oYEmO1ouT7n1D0xTeIOf44RJ93FgwJsfB69dCVFKFg8rMI+m0lnOXl8IQZUNGzC1In/Re67t1A66GoK4fRHPkFKJ/+PAw/LkTIuFPgMJhgNAbBaDLBnZkJ44kDYIymTa/pTEztDucZx6nRYJTy5G4XWZIHzoIC7H1+OvSLF8NQVASdGbCcfzHix98OfWyMFGcV718jG0FJ4pSMBp/6tp8pKVqQst2kDvVNDQdoPFPipONKysaJywHKwUWbBycaBzQfmhOLqx5ZDo3gXDG5Kj/00ENyLicpJxKBio0TlqswBygHMDtLBkQbB1fUb7/9ViY5VRvaUzjYaTwna+OE5UQk0+A5BLKbb74Zb775Jr7//nthApww/Oy56dMxY/p0DOiYBu9lp0Of1hWY8jR+XLde2BVVPl6Tk76xoER2QfAjWPC5aVRnX8lwyDgIJLS1kdnNmTNHDL2c7AQOOgMIYrQhEZj4HJy8PIcsis9JlYhMg/JdunSpyI02OjIW3peLAxnIli1bRIWk0ZzXoPwp00OBEgGeKi7lzb6TCRMwyMgISgQUgn/N9vLLL4vnsi5QYl8JNLUb1ULak+jU4Psh26XqRtbMfquLwOHYLxo5Txp1GDWFir17YV27HlGZnWDomAo9vV56PTw2B3QmMzx6N3QlVbAtWAj98IGwJMbDXVkJmE0whgQ3GZS8Hg88XMT37UPJK28iKC9fYYwEN4+i2jqT4hH6nytg7pgun+tFLWp64zsmA87MyBAzzfZt2xAbF4Pq6ipERUTDkJMNy+efwrx2LRyllQg/80zE3HYbjCkdoK/hsGnozgEBJbHHN0J940Tg5OEE4UTgwCJT4apP2wlpOScjBx8HNG0gXAXZaHwmSPBcAghVJA5KNoLWSSedJJPq999/F5DiwOdn48ePl4nJRuM0V1vamagq8n6cePQG0lBKewVVIBqqyZrYF05uGp157uuvkWV9g8iyYjjvuw0WrwHeCy/Bj9Hxor5xstM4XtfkqE99I7CQ7dAWRSZEGRG8KQ8yFfaJxn8CHdkIgZrqEMGbQE0Qo+pDwzzBmn0lOySg0ZPF65ExxcbGSugCVUAOWrJVskd+z+sSuMiUqMpyIPMcvoPaKpHKlKi+8T2dcMIJAqiUPUGJajCBiaoubWwq+1W9gQRMLghNASX2k++JTgo+E1kt2SxtkbRx1cVMGxr4R+R7MqWyUritNhhiYuD8ews81mpYOqXBnlsAQ3klDGntoXO64ap2wF2cA31yKhzbtsMVFISYk4Y22RDtttlQ/cciwGiAy+GGOdQCk84AXXgkvJVlcOmMsNO9bjHCpNdD17EjTD67a1NkQGb0wfsf4JWXX0T/fscBej127dyJU08bg9ycHBTl5ePEYcNw5pjRKJv7GZwffAR3Tg4izj0X0bfeAVNKh0bfrjYoKexR8bgpbX8AZS3v236m1FhQ4mTixOVAJyjdeOON+PDDD/HLL7+IOsCJT1Xp3XfflcnClZiTjpOcKzLVDaptnCxkOOvWrZMukkXQSMwJSbbEAUzGwsFLexInB1kY70fAIlvj9anicbKSDRE0CFgEMa7WZCVUiTjx6B3jufTgUfVwV1Wi6PFpSPA4UPXAo5gzdw6enzFDnk1VZ2q/gUOBEu9BAy+9awQEghInNvv/xhtvCHhy8lFm/Hzt2rUCRGwEFIIJgZa2NwIZmRZlQZAim+SkZjwV+047DGXA79knHksbEsGC74XgTOCjTYq/VcO7+jwqKLG/tIXRDsRFgvehSkivHa/NPvFalDNlzMWHdkA+IxcasqmaIRD1ed/47slwyfBoVOe1yObIZAlMLQmU+O6q1q5F5fqNCOreDVVLVsCdm4vYk4bDkBgL2wtvwjJ0MEwhITAMGoi9t9+B0FGj4Y2PhKvKioQrLqSTvdGTlwc6CgtQcuPN8PbsCZ0LMDis8JRWQN8uCZ7yEngjIuAsKAQKchF26qkIv+gCGJoQ9qF2Ji83Rxwau3bu8JlXPLh/wgSsWLEc/fv3w5Ytm3HMMb3FA+4or0DZF1+gcubrsMRGI+b+SQg6/oRGA269oMTOCDAFEJQIQGQ3ZDsc9LQ30GjKAUr1iNScE44qHX9zJaSdhJOFrIA2If7NiUCDLI3lHLQEHQ5Wrpj8jJOTE5iTkqBE+k9QuvTSS/0rvzoZySjYyC44sQiMPIeudLIlGmupHrHPNHiTlXkqymF76L8IOedi7E7NwHPTn5PJdihQIsBRnarNoqh+0MbFiUagIeCSBfE4Pgfd9jRMU9UiCyPg8nmodvEYshOCGvutNrIgFZR4PMGUoEOVigxSjeUig6QcCWwED37Oa1JWKijVniHsG9VAAjkBih5Bnks5EkQJRMuXLxc5H3vssdJ/LgJkTuedd57IkQ4HPosKirwHgZH9JHD510O9XhgjmSQBksBGMKTtie+Z77slgRL77czLQ8Vfq+E1W4QtmTukwOxwQh8ZDtfGzfCWlsIQGgH9wH4o+3URgt0eFFgrkXBsL5hTU5oESnSCOYuKUHrDrbAMGwqv3QFXTjZcFVUCcnaLCfpgEwy794hnL+Z2HjcEBp89tinot3zZUhnjFeXl4qLP2bcPjz35JB58cJKYFLh4nXzyyejXv7945xzFJaj6fgGCk9ohaNgw6AymRluVjiooUV3jBKBqQKMkGQjVF4IRVSZOCtozqM5x4FMl4WTliszJp3qLaEch6PCHg5/GWoIH2RPjdagickJwQr711lvCnhrbKFhOIhrYCVQqCyCosD9nn302UFUJ78yXobv1PmzbthXPv/CCXJ6Trr7gv/ruz+uSQZLJUAXi85BBUBac4PTKcbIvWbJEbGR8+TyHA4GN9jiez3AAtRE4CExklQQdXo9slLJn/wkM/J5gRvsM762qWVRXCchUyTjx62qHCgLl8WS0vB6BjTLs0qWL2IQIMHwnVMP5LLwPAa2+RhkwVIQyIfjwWIIhgZDviYySsiBgtZQmsvGv6Af84euib/eDBPYpAYZKa7whWH1WnukqLUHpPQ/AwNCDHr3gLiuHDm64ikphNeqBinK4bA6E9+uDIOhhuvAcmOuIP2tIfnx/nHfWaiuMJj0cdhsio6JRWlomWUE4nznOLIxRkkdSvPMMQ9BJhGXjn++oqm9c4eka5qrKwc8Jx5WZg5VsSW0EKgIRVRWyBa6gnHzqZODAJuiorIPqCQ3GnIxsnIhUEXg+76N68hoSPL+ncDlp1WA9rsa8N38odDHUc7vK3iwgraNMNj4XWZDK3Bpzn0Ae0+LidGo9XM3I78N97pb+jIf7XM06j1k5HHbYly8HwiIQlNkR7q3boC8vh9cSDKSnihHdmZuHoE7pwN4c6Lt1hSE8vFm3VT3v9YGpvG8f1jYVkHjNowpKzZSEdromAU0Ch5TA4bOugAu2GV3RQCngb0O7oCYBTQLNkYAGSs2RnnauJgFNAgGXgAZKARepdkFNApoEmiMBDZSaIz3tXE0CmgQCLgENlAIuUu2CmgQ0CTRHAhooNUd62rmaBDQJBFwCGigFXKTaBTUJaBJojgQ0UGqO9LRzNQloEgi4BDRQCrhItQtqEtAk0BwJaKDUHOlp52oS0CQQcAlooBRwkWoX1CSgSaA5EtBAqTnS087VJKBJIOAS0EAp4CLVLqhJQJNAcySggVJzpKedq0lAk0DAJaCBUsBFql1Qk4AmgeZIoD5QYpImZjs1mcxSE+6Q1Uwam6O7OR3VztUkoEng3yGBQ4ESc7k7HE707asUbm124YB/h0i1p2zpElAzYarZLJUqGY1P19rSn69m/8gsmGOejRVJlCS8DVdhU2UkR9cpGi/MZotkalUrUgeqxNWh1DemUi4uLsG4cWdLel4NlFrTaNT6Wq8EOOGYH5wFKtqnJOOO2+9AXFx8m5IY89KzWAMr/jAdtApIAr9qqlop7Kjk0labWoGZKaEV0NZLDu6agKPm4Ha7XYiOjsH//d/9olIFqjUESqwAzVzzGigFSuLadf5RCbDYAGvpffftPKxbtxaW4CAMHDhIikKwlp1aNv0f7WQzb85c9d98841UMC4qLAILyhqMBhhYttsLyWXvqQFE+4sX7GeMKghZbXaUlJTCaq2G1+OGyRiCYaPORkhwOMrKCrH0z+9wy03jMWnipMMsOX7ww2qg1MwBoJ3eeiTAwg833zweP/74E0qLS5XqsW6XVEthdRiWZp84ceJBBThbzxMqPWUhCxbuZGHWqmory+QiLDwU4aHhUllELesu1a/ra6LneREcFIq8vHKUlJTDAzeO7XsCjul9vICT01uNdX/9jowOMVKjsXaNwMOVmwZKhys57bxWJQEyJJY/Z/1A2llY0JCfud2ssaeHwWBEeHgYxo+/Uaox164M3JoelvXxyAY3rt+AMqsLVVUliIuKRHy8Up+NJImltglKh7IDUeWLiU5ASmpvBIdGi23JEhQCI6/h0cPjdaK8cC9CgqyYOnUKwsJYQ7H5tjkNlFrTaNP6elgSICNideCZM2dKkU6l6eHxEJRc0OsN8sNJFxkZIZV3b7vttoCpI4fV6WacxKKRLPq6LzsHFRXlsNsdiImJQs9O6SivLEdxhV1Kj+mozh2ieeBFfGwiOncdhPDIRMEbytIDPfSCaB6UFO5FkLFM5Mvir4FoGigFQoraNVqsBDiJWMiSxU5ZSdnl8ijxLT4jL1U6HsPCl0rzYsyYU6SkO2v+tcYmoPT008jJzYNXp4PdYUNwkAVnnjISJaVlWLFmAypZUPUAu9LBT0pQiouNQ2an4xAelSxskmAuxnGPF06PG+VFuxBisWHK5CmIiGhuPTmlDxootcZRp/W50RLweLy44orLpRqw200AUk5VQcmHQ74qrsrnZEwTJz4gjKk1NoISS95v3rwNZeVOOBxWxMWHIyYqGjojWaEXtmqbL0CgDjAi6MjHHsTHJSI1vQ/CIhJhNJpg0JtFVgRzp9uN4rwdiApzYcqUR0X91dS31jhitD4fVQnk5ubhuuuuw+LFSw5yf6sdUYpK65RJ6gvKufnmG3HfffchMjLqqPY3EDcjKD319NPYsnkzqp1GOB12RIWZEB0dBYPeAIfXDafdfpB6WjN+S9gQgISEJKRn9BVQ0uuNUoabBaI9XhfsdiuK87YjMd6EycKUNPUtEO9Pu0YblwBd44888qiUdZdq0j6qpDIlr9cjYQA6qiVqrWl40atXD7GTjBhxUquT0MKFC/HYY4+BsUpkim6PGyFBQWKgph2J/6eRv3ZTZaOqtFT9EuMTkdllAMIjkuAlcHu9sNucsDusqKiqQkn+VnTJiMejjz6KyMjIgNjhNPWt1Q05rcONlQAn0JNPPIVXX3tNDNycbGx+W4qUvHfLRDIYTP7L8vuQkCA8+eSTuPzyyxt7uxZz3Lx58wRQi4qLFObnU1kZk2UmMPnYYE2bUs0gSjFm+5hSu4QEZHQagJCwZAEzp9MBa3UVbFY7iksLUZy/FQOP6yGhFMnJyQGRgQZKARGjdpGWKAEyhbvuuhvffPOtTMz9TAjidQsLC4fDYZO9VBaLsl2CjSyCf95333/FC0cG0Joat2JMmTIFOXl5YuJRnfQ05ksUNI38Cjr7QfoAUPIQlGjm9qJdQiKSU4+F0RgDl9sFu80Kq60KZaUliLHZ4dVb0f6YVDz00MNITEwMiJg0UAqIGLWLtDQJcL8XI5qnT5+B/PyCAxmSGLq9SElJQ3l5GcrKyiQuSWVSym8vunbtImxp5MiRAVFLjpaMVFDKzc878JZeICQ0RHlWiY08EJRUtU1lkwJK7dohLq4bPAiF3WGHtboSkdVOpMVEYlR0BwT3TsXcrb9h0oMaKB2t96vdpxVKgKs+jb2PPPIIVqxYKXYVTjgyIHUTLu1IBoMeXg+g52+v129nURkTj7nhhmvFC5eUFBjV5GiIk3veyJTyCvIPuB2f0WQ0wmKx+A36qqpG6kR2RFa13+DtQVK7JCQFdUCMLhIxYeEIMhiQ5jXj1BMGw2ixYHbBGqzMXouJD0xCUlJSQB5PY0oBEaN2kZYkgcLCQrGpzJo1SwBJMXAr4QB1xeYoIOTbOe+LclZZU0JCLN588y2MGDGi1bCln3/+GdOmTUPWnj11uv1DqML5NtyKuuqpDUYqg/KgfbsknJV8PI6L6YjUpGTExsWJFy7basUOpx1zNv4MvbkCDz/0MOLi4gIyDNo8KHEQrlr1l+wHuvTStrHhMiBvvg1eRAWcL7/8Eo8+Olk8btxCothLPIDOBD3jkAxGmIwGOJ1utO+QhrzsXQgKCoO1uhomiwUOe6VsWiVWEbBuuOF63HvvPUhICIzN5EiLnizx8ccfx5atW/z+xJr3JFtStoowBKImM9qfMUCVWWpSCiacfDWGpPYEXB4UWO3IMuixs7AQ2/Ue7NqyDKGh5Zg8RQsJaPR73bFjJ1584RUwOdSll12Ea6+9ptHnage2PgkUFBTgqaeeEnbjZvS2XjHzcnNEr97Hw26zY+iIk2CxmLFk6TK079AelSVlSIiPx6q/lqJnr35YvPBnFBXmispHUIqNjcHs2Z+gf//+rYItqaC0eeuWg9Q3fkCJBAUH+7/zhwDUsjFRamlJKbjxxIuQ2rEXbDoTiiusyNJ5UO1wiix3bVuM8IhKDZQaO1Uo7B++/wkzZ74jg6lnzx6Y9OCEegeWstLWl9SqsXfVjvsnJcC4pEmTJiEraw9orxYbifAFDwYNPhkpqR1wwcUXIzkuDlu2bUJefj4W/roU8NphDDKib78T8dXcT7Bm1TI/KHHsPPTQA7j++hsQHh6YAMEjKSOCEuOUyJTUYNDa7n9uzKU3rmPHjr4YLoUl1fTCUXIdktNw6tBLEduhG+zQw253weFk4KQdbpsVO3b8huhoj6jL4eHaNpNDvlcKt6qqClOnPo7kpPayAfGEE05Az15dER9/cEIvdY/UL7/8iu7du2PQoIEwmwOXuOpIDkLt2ooEmJLjjTfekJgZZdHXi7om7m2PGx3SOuOiq67Cfy67EB6nA8v+XImlS5diZ9ZOhIWF4fSzzsWmLTvx14ol+On7b/2gZDDokJraAZ99NgedOnVq8eJWQWnzFoKS0t3aoMR4JdqHkpOSsXHTRlFXD4ro9nqR2iEDg0dchsR23eB1A26XW7xwDKWwV5Qjs5MTa9cuF3VZi+huxNDYtGkT3njjLVirHcjK2o3MThkYN+5MnHTSwVG6ixYtwiuvvCrGuvT0jhg79hR069atEXfRDmkpEti5cycee+xxfPrpZ74uKaxXtY+EhUdj6jPP4/SRg/HCCzMw+IQhiI6LQ9aevbAEmbF5RxYSEpLxy4Jv8fmcj/0hAtxMT0/cL7/8gmOOOabFq3AcyzR0b968WdKTHARKAMLDwnBMr97igVy6bOkBDEllSwTztA6dccKwyxGf2Al6N2D3uOGwlUHvcgHePAw9qSfmzJ6tZQlo7CRYvnwVGLOxYf1GWIJM2LJlC4KDg/DDD98fcAnGtHz00UeYMeMF9O3bH2GhITjn3HEYOnRIq86rU7+cFDW1LTVOpK+//hq33norKiqq/K5/fzYArxd6gxEvvPk+SnJ3omtGF1RWlaFv//7YuGkDOnbuim++nY+inELk5uXgy7kf19iSItMar7767SZnKwAAIABJREFUKsaNG6e41FtwI1MiKG3asvnAjce+PtOsERoaioiwCHTu2hmrVq2Cg4GQviHB7yWEwuNGx7QMDO0xFklBidCVFcNTmo9yjw722FDcNLgvtneLwuyPNVBq9HD47LO5+OOPxRg+fDgmT34EEeGRMgDz8rL9k5KDefnyFZg6dRpyc3IRExsHu82G62+4HuPGnSUg1laaEqMDWK02lJWVSmBcWwEnTqLZs2dj/PiboJdd7OqOf2WmKUZrIDomBkuWLEFoSAienzEDJ406Cb169oLL7cGHH36EaVOnweV2S+Syqs6ocUtU6d9/f1bAXN9HalwRlKb6QIn3UJefmsGRISEhsjm3a4/u2Ll9O8rLy/3Pu9/w7UHHDpk4MW0EEo2JcJv0cJsdMLhKcMWpoxETZsbv9nx8/v08TNbUt7pe54GrP9NU0Mawa9duvPD8y0hNTcHcuXPRr39fya3Tr18fuQh16V9/XYj33p0ldgV663bv3oWLLr4QN910Y8ACwo7UAGzKdekWt9nLceutdyB7Xx6+/XZeM3JSq8nmWwbj4rsm273zzjt9sUnKeFBzbov7G2RLXkyf/jwuvPBCVFRUIjIyXOxPv/22EHfccSfy8vLkfDGP19i8SzkbjXqsXr0a7du3b4rYj/qxKiht3LRJnkPR32jq55ba/Y1/G4xK/TQVuFWWJBLQARlp6ejtSkF4uQ4ZOuCU5I5IDAqF8fTjoEuLxYItq/D91nWyIVezKdUQbk0DncupRKY6XU5YzEbQrpSRkSkuYNocUlPTwF3U3D5w/vnnIy8vH1999RVGjhyN+IQYfDH3SykdM+D4/gJKGRkdj/qgCuQN1coTdJVffMl56NqlG/78cxUsQTosXvSnBMI1vimBiFR3y8uLERsbDb2eqsw/D0yqCn733XfD4VDybnOyqaCkBkMqm28NyM7eKxHcPM9ms+GVV17DjBkzJIRSIpt9ieDUKHD+NpsNWLt2LVJSOjReZP/AkQooTcWGjRsPuHtdgaM8gHFLXMT53LVOQI+UdDwQNRjHedtJwKXO6IXXqIOJqUsSw/FtTCEWl+fg0SmaodsvO8UoB9jtTng9HpjNJnEB2x0OZGdni3eBgKQMLsg+J6Y8tdnskkB+xvTnkZ6eLt8TyHbs2I6oyCh06tQZl19xKQYOHNDibQj1jXu6bV0uO4pL8jBnzmyMPmUIbh4/ER63BzFx0Zj9yWewWPbHq9R3HdmK4NsPlp29B5GRwbBYlDQYRkNkM9hW4GZsdXU13n77bTz44EMywSQdiQ9Y1LvwOZiILDo6Gst8xl26xZmze96878SNzuoflVVV/o6poMTj9AZg9eo1SGkVTKluUFK32RwIPpB4roNAy+tFp7R0PDz0fAxp1xl62R9oVxZ9uwfIKsNX9s1YYq7C5Kn/4uBJTg4OIhbBI82m+sU0nSrtZDlfCtflcgrj4f+l7pWvhhV3h3s8OricbmzcuAHPTZ+O/v36SfgA1bvwiAikpqYCHh1CQi2YMPF+ZGZkBm72HIUrUSaKWvoL9u7bie++XYDi0jKcdtpIzJ79BV54+TE89djreOfdmYBXL6DNScfoZ5Xr11RdmK6iqCgfwUEmBAVzVXVLNHC1zYaQ4FhERPzzidCYmuS1117DtGmPwelUmJJUUPUBk6qizJjxHPr164eOHTNkbEi+ITeT61cJmDGkgPXg1P1ylCMBTkBJ78WaNWtbh/o2VQGlmpkRag692gBUVzoTHt+lQzru6zoKJ0SlwWQxwxAWBIPZCBDEyuyYvXMJlkW78Oi/JUe3OrlYJobG58rKKiQmJmDhwt/Rr98AREWGw2xhHhw9HE4H7DYHgoOCxNPmdnvF3UmjJys3UMVQAIqMSYfysgqsWrUac+fOwa7dO2RQ2qw2AbwTTxyMMWPHomuXzsjITBdmFajqn0cSk2gzqqyqQF5eDrZt3YbQ0BDYbFXYvWcXOnfOxAOTpiE0OAShIWZce901MBm9cNh1yMjMlIhmmcR6JaG+y+kQlkWZGY06uD1OqfzhdDixc+c+REaasWt3CaKj4zFk8LAj+ViNujbfG/e6TZw4SRLlq6pbTcbEz5Yt+xPJye0FWG22ajH605YYFBQs4+v1N17Ds888I4ZyWejcPlVOT1UQsjOgNdiUuCFX1Lc6NOv61LjagqZdqXNqR0wcfSlOSOkmsV56txPeKhtMbsBVXIWvdy3Donimw53W9mxKjBJlXhtuDiyrsAqYlJWVYMe2bdi9azds1dX466+/JD/OunXr0euY7oiLjUdsXKxMHGWDIWBkTIns+la8L6onQWVS/L150zZhThs2bEBhYRF27doptqe9+3ajQ4dU3HzTLbKaUiVgvaz4+Bj/qtuoGXKUDuIzcJUvKipCcXERqqrLsW3bZknHUVxciti4GHz79Q/Yvn0Hhg4bjMKCQpxx5qkYPnIQ7NZKmIzBCAqy+AF3v7wI3AQmJzxut7BOp9OO6morsvbkY+WKTRg4qCfc7iBUVllx+WVX/uOgTdvQJ598gnvv/a+o5qrtqOZiwqDZV155CVFRUcIK16z5C1VVlcjM7ITUDqlY9/d6zP18DtasXivpTpS8SvtndWsFJVVlqw1GDYKTF+ialom7hpyLYxMy4dV5EJ4YCYvJiKCSKrgKqvDZjj/wZ5gNU6c81rYium02B/btK0B2bhEqbE7kF1eIkdpk9GDZ0uVIjApBcmoH/LzgO1xw/vmSkIuTiRHXXCH79OkNo6htOkFzSXFqMEg0L0GOjayLE3dP1h6sWbNObEtc9ULDQrFq1UqxRTFa96orr0a/fv0ljN7KhFbVVnTMSJGEYP8cW6rpWaRq6kJJSaG4rrN27wa9LAvmz4dBp5fnqbZZMXr0SQK0q1evlwn2v/9NkPLLRpMZ3bp0gdHi8WUQZK15pyTwIpKL/OinoQrscPg2purBneUlpRV44slX8fgTExESEok7bpuAV159EZmZ3f9B2SgrAN8vQemee+6V52H/yZJqVrzlTn8yRsolJSUFe7Ky0LNXTwkF4SKWlZWFtPQ05OXmY9HixX62pUxer9Q1W7KETCswKTqO1NpFQ7fClDbINpP6wEcNkjzUuO6SmoGbjj0VvcJToNdRpl4Ex0SgXVwkvMVVmJ21FEs9Zb5qJoHZgvOPZwkgcyEYbd+ZjaLiClTY7GiXEA2n3S3Bbjt3Z6Nr52Tkl5biu7lf4K7brsWSxUtQUVkhhu2KykqcM+4c9O7dWwaRWv1TyZdjkPdOvZrh8bm5ufjiiy8lXmXturWorKgA65J7vG4xdl9xxRUYNPAEMZo7HHbxyjCehyocy8ccTVDyel3Iyc2RPtJgn5iYJKwvNi4aJpMBL774ogAp1VQOLrvVKv/Pzs1FUnKiqCglxQViwJz/3S/o27c3du7IlqC5k08+CUOGHCuGW6owNrtN7DDwuGtlI1SSnZnNwYiNjseC7/+Q/WIDBvRDYWE1du/egUGDBuHssy88yKh8pCZcfdclq2GcEt364knyLUY1bSW0FZaXl4p9iKqqrdoKk9ks44PqO88JDgoWFZ/GbvVc5bcXp59+GqZPny6G8pbcVFBaT1BSrYSHKKdUp/HbF0zQKa0jzk4fjGRjNCJCQtCxY3uYPDoEW8tgTonCCmMV5q9a2rYiupk+YkdWLnZkZcPucMHr9qJ9YjSMhiDsy83HvtwiZKYnIiYmEqvWbEavTu2wbu1fsv+G7lmmPB14/EBcffU1EtSmGi45iHQ6Q60cOl7Z6/Tyyy+KWhYaGoaiwkKkd0zHmWecgeMGDJCd5RyUZEoKMNkRHROOuLhYKVh4NNru3btRXFSCamsZ1q1bI7YcGvZNZqPYPnbv3oc1q9ege4+u0l+3x4XMjDRs3rwVQSHBqK6ySnmdUScPhkFvxJdfzkOfPt3h9Zgwf/4C2dvXtVsm4uIScOLgvoiMCBc7klc8lApLYsJU2uRYVkenN6G4pAx33/kwXnjhIUAXhCuuuBMTJ92G3LwS3HLznUcVsOt6B+zzZ599hptuutlfRkkFppoTkxknuWCRVTPDm2LcJyypeZf47Dph2gc2j8RBMQvl/hpxR2M0NP0eflDaQKbkc13UA0r1GbxlMfd6kZGegeSIzoDDKItd/z69kZ4QgyQdYEwLQ67Bg48//qht7X1z2F3ILShBdn4h7A4nqiptiAi1ICEmBmXV1dizJx9BQYp7d+vWLSgtyEG//sfKJH3//fcFiEaNOhm9jzlWVrCaaRiUPMT7X4rdbhMQe3Ty/ySClepan2P74OTRJ6NDSoqSGN3BSg8eYUmqp8/htKJr184yQY9GW7f2b2RnM7o8BqtXr4I5yIBNGzfCbDHA4XBj985cnHHGGHTqlCF2Me5c37s3GxaLEQMHHYesrH1wOm0CvPPn/Yzc3HyMGTMUXq8e2TlZiIyKxqx3P5PJecKJfdG9eyaOOaYLLOawWjYUTk/uH9Nj69ZdWLFyHUaNGiJg9sMPC9Gv77GSAmPAgEEBqyPfHPlySxFtjow9U5uacZL/V/IjKfvY6BxRzEWKeqOEPSjvXvFEKgUrlW0qSqjJzz//hO7dW36Byv2gtP6gfEoN2pFqvYCMjhloF9UZXrsRRoNRosDbpySiT58eOOucEfh75xYfKLWh4EmyEqvVLmH+rClltdlQba2GyWCGJSQItiorbA4bysurkJezVwyVI0eehGHDhuP77xdg7Nix6N6th7AYFZDU2BJlICrGboX92MR4+cWXcwXAWH2hZ89eEpeknkv1j8cSlPgCi4uLkZO7F8OHDztq8UqMQmewI931VE8LS4pRWVEOg14vnqKw8AjZt0S7WlCQSUIi6Dl0uZ2ivhYUFEqqDk6mTZu2SKXU8rJSlJdXIL2jAr4rV6wRACZziI+PRlpaMizBYdAbjWKb4jWZ8Iz31Hkh58bFxiAoOEwSxHfokILwsAiEhQchPjZWasz/023v3r149pln8f6sD3zcR+kR3zkBR7Ex1bSx0KNGNq0CkkvYtcqE9qvrHlx00UVSNTchIeGffswG718TlFiV5PCbF+kdM5GZ3hcmfbhoD3ZHNVwOD/ReN04dOQQ9BnXBJ5981LbUN8WD5AMml1uMsbQF6XWkzxw0ykpFEwH1/j8WLRSWwzpdQ4cNRWwMvW8Wn9qhqB7yIuRdKOc6nE4xiNNTxehVqkHc+0NDOQ/1+OwyPEMBJV++GLcb+fn5UmG0b78+MJlNPuZwZCOYt2/fiZzsHLGp0ZNIVUJRKeRf2S4AD9VT/tC4r+SflghlpxMOUT0dSrSy728OKBqDawK36qGiQ0BWUIMeOsre57lkhkaCktGnttKWRbmxIgY9WGRoXrcT1rwcDBg1+h8P7Obzvz3zbUyaOEkcHGKe9ucIUvJzK6qbMlEVJqQsZh6PS8YLwbimcdzHs/Hhhx9g1KhRrWKDNrMEML/R3+v/rjPzZONByov0jEx07ToQIZZYuDwu2J02OB0O2K02eOxOpGfEwekuw9QpU9uW920/GHhk4tDoSlCSgDVvNQymYHigh83qYgkG8SYxn0vnzp3VzMoKuEhpGHqPACNd2lXlqCzNQUXRbthcHtiDabCOlNw4NY3WSh5n5YfApTIlgqDVWg3oPOLxo37ORIZU+w4euI1/1Q0duXPnbmTvy1HK4xAoZPs2Yx0Uewe9E3xg1Vut9J0zcP9WgZoTT7UP1LyvCk771RRFRVZ2Ryn34SUJWH6HgW/7BW1NVJ/pkQvmthN7JTKP7dsCNpsAW7dulcjsr7/+xm9P3A9MUsNDbGUqgvp3xLudPvVc2ZqyPxrcizFjThFvFhOitYamgtK69X83s7sKKHXpOhChQdE+RqnYMDlnHHYniot2IjMjUeTTJpO8cYAwgI0bJd0uFgQMgc5RAlv+dskM6PAaAV0oTJYghEeGyWZCr9SHpy3IDkdlGeyVhRJoSW+bTjgFM+XZkWcPRU6pAX369kVGRoZMNHWw1qT4BEUat8kyyC4IclxF6X5ny8zo6ItzOXJsiTLYsWOHuKVLSkuRmZ6JpOQkmC0WUTcYNySGab+9zLeeexnh7lDitcQusv9zRUXxGbF9dpKaYKxm3KT9iLJR947xCioAKwGJyqQNCjYhOCgE4SGhiE+Ihcm8P96pmTOhWaeTLdEgPWXKVOzbt0/sYewvn11lSZTNfjuS4qnjO6ZHTsJKfIDP5+WxL730EsaNO/uoqe/NEgAgezvJlDZsOnDvW9Ov65Uc5t17noDwkBhh5JSPMm4Y1a9HRfleJCSEYPLkNmRTqi0oGhrJVmjTKSktwY7tO7H37+WIC3MjLJiJ340CGMEhwYiJJnortFwxTltRXlqC8opKlJZXoLC8GmU2HRDWDhmduyI5KQlxcfGSjoSqm7J1gBs3WR+dQYIuCZjMz8tHVXUlEhMSBAxYK4uR4jIZg/YXLWz6S27cGeLit9sllopyoIqhyISflUq1V6qjjFxmYxJ4C7fUGM2yf08xzFrErsLgR9XYy2hs/u10UbWzy/kS0yN5PpSSQ7KlgmqbqNGK65xy4g9VOXr3qL6ZTQa0a5coAE373NEMl2hIipQbV+4333zTvzlXBVcVnGr+n2OHIRiKI0PnK7VEVU8n+ZnuuOOOVmFLUuVCpsRd+1Tf/CtTQ0Kr5/u0jpno0X2QMCWqxGrlE4V961FRloWoaKMUKqC9MxDtH49Tqu8hVFptd7rgcdph4AotS/9+hiBGSpWIq6WGJQBQCQJ0eT1we3Xi0iYImWib0SseFbb9E8mXydnHJhRG4ZFJSRuX7I4WL9SRY0d1yaEmkzvQQ+SrzuE/SbEticrlK7csCfNruh99BVEVtU6xtamlh5TsjKp3qvYzqs+tZHGk44ogqapBtQMUAzEom38NL0pLy8CMAcxCqTA8gwCusldSYYL7PbU0hjtgMnHj9v4MAYmJ8XjmmWdw2mmnHVF1vfnPe+AV1q9fj6effhq//PqLouofbvOyGGUKeh8zBOERceKMYsiOrwCTZJhYu+Y3ZGQkYObMmQELlWixoHS4cmz2eb5JXUP38ddjP8qY1OxHae4FagbV+V3JBL9WkLiS/Z0wYYJs0iX4EEgJTgQlbkBWwwGU/W2sfcZNvEzjwhpoTF/C8+8XpuRnAP7S38oiplzEZzRvERY15Y3zmT7++GM88eSTyC8skJ5xWfX5fuT9iXXNlyqY34lbQF2sfWYBM+UELuihMNOZ5I/noiA8KCstRkVlMa6/7lo89dTTByza6uJHZ4yyDvrq6jViUGqgVENIIsgP34Pu688VNqGyqaefB5JT/nHvUiPeZ+APefVleP/4FXA5/MZv3bnnAxdeFvh7BfiKH374IZ544gkwGJWqGVXQkJBgMchyshCEFMaoE9WYtjz+nzY7AhdVoCuv5L4+JXuCzFXWg7vuKsBevT+PFLNITHs6wL1v3uUIvm++9RY++vgjn6f2QFBSAUo0Bp+z2kttpEYEQWVlBSwmM6Kio6CjB1a84D6QgQ7FRcU444wzMOmhB/yahELOvcDqVcDHHwI5e1ltALo7/wsMGNSoh2rRoKSqLKx4yk2nTQ38apQEahxkdjmR8P33CP9ziQ+AvEByEnQTHwZaUCFCxjBJHNMRbhxgHWa9h/Ctm8TmRAegzqCDd9Zs8Qq2FJSm3Y1biGgPrNlUr6RquG6Mx/TAMXZwua3wyiq0f+4Z6FyKPU9H4/jgE6G75Y4j/DbqvzztoQxd4Zap2s9f8/9NMT/UZsk1t+soAaX70av2dWl3TVizGqGfzgacduiIdPf8H3B8GwElTj4WAWRgXHNa7QyEvJa6P46rCtvI+HhM69kTA2KiFce43gv9vfcD/QcAxqOzxaShZ+Rg4Eunsb85TY1RonFfbarrn4OczaTX48tBAzEmMdFncAL0xw0A7p/QUvBI5MDMoRdccEFzxOHffKvamdSL0dCvBF8qG7sf6d4T93ftBCPVEYJ0fAJ00x4H/sH9cKz+3KPHwZHmShyeknPsUODEZ2zueKot/NsyMzG9d28lrIVq4N33ABw7jWgtmimx/0zyfs4550juZLURTGJjGTRpEsZQU+icbPQIceMp2RW9VGxJScqGVh7ft29f+ZsvjZNy5cqVcsz4tI6Y2qMHolnvjfp1VAR0EyYAnTs324vRiHfR4CH/z951gFdVpO333J4eCKH33kF6s2BdxbauFd21/HZd1762tfcuKiiKvesqqCiKunZULHSlSQuEJCQhPbee/3m/OXPvuUmAoCEJcOdZVrj33HNm5sy8835dm/WV6Tp2UrG6BsesW1lZWZQ18HOOU59mZBP8niKMLkTYp08fuR+vIytluWu2YemZeGLoPhiR2UKBEJ01H34QZqfOwpyag46NjrQMTmatN90I2tQDaZAlg7BvOs4F1wP/y7AjCcRNSpKQJVo26YqicyYx7zQVx5qZfjXhAIzNaknSCDgNoH9fGDfdxGTXTbJG2HfukQkTJsjw2V/ddwIV3/fatWvlO46NjEoHr+tUwEOGDJF3znWh3z3XB9cOf8PP2bjnuK84Z3rPce2xAAXnmO+CjUvlkh498dDAQapCCuforP+D0aN+yRKbNShxo3CxTZkyRby52QhIAwcOFO9a6gjmz58vfhn6JGOtNkauZ2RkiJ/K3LlzwU03YsQIOfE++ugjLFmyBF988YVQfkaW8zO2a3r2wR19B6jNxj/DhwETxsIYOxawlTneIXrswgv44jk2e2MtslNOOUVSb7BxkTItCxtlfkbHcwMyPITzxUXKOeRiZHkdbuoffvhBdC9UkNKkzPm8uGsPXENXCstxVE69C8+FOXEiDDeBexcOtJ633rBhA04//XSpyaYbN+ioUaOiwDx79mzwOt24doYOHSpzwvFzThho26NHDyxevFiKlnI+WZLrxx9/xHPPPRf9/bqDD0cnX5KofA2fG+bhh8MYPRLo37/RrbMcD4us6j3Cf3Odn3vuubI3mBOM+4b133j4cp/MnDlTxkSw4Vqi6Mv9wQOcwMsSUgRs1kbs1KmTjJtzS5DiZwRuBsJ/8MEHck/OE52YeR0ZK++T5nLhqh69cUPvviLyY9IRMI4/rt5sslmDEid5/Pjx+O6776Kgw1NsxowZmDNnjhQCOPPMM8XKQoBhoymUot4LL7wg6W2vvPJKnHzyycKOCHL09uXvWc2CTZ8O9OG5tkcf3N5nQJQViGrzoIkwzvwHUAMI6rlnGvwybiKKs/ZG4KGViA5zBF6Cjp6PAQMGRFNtcOx33HEH+Bk3Jk+9b79VJahYBUTPB+eP8/LkwGE4vVNneOgCYIX7GF06AI89ItfujI6iwSfCuiFFF86HZsT8+Oqrr5a4xjfffFPWDYOW6buk21dffYULLrhANi5zMNHkz0IS3HCcD+2XRSdMNs4nGSRtc6v2/ws6WgeU6YzASEkFTj8Vxl8O21VD3O59CSQEYM2GeDEPZgLFuHHjJHaTBw6/5yFNIPnss88EgBjAfNhhhwkwcS+R8Vx00UUCNNx3JAOcG4L2GWecIQcda+vNmjVLfsc55po7++yzcd5558k9+ZvhGS1wb9+BmNiqtQqBOPsMGIcfCrjrF9De7EGJYMKyNrqRZl933XW48cYb5bTjZPGkZ3gBGyeVCM9T7phjjhHA4qIcPXq0MAayASL6o48+KoyKyeb5cqoqKnBEdluc0r4TxmRmoWtSMtAyA8ZN1wG96kc7G2NVEmTpO2NvkyZNEgc/5pYmi+JpT5HD3jhvZIik9KTtzB/FuSOdv/DCC/HOO+8IPSezJNMiRT+7YzeMadESk1q3QxuPV4lv110JjB+rTFHNgClxnGR99sZ3ztOfLJgiCEHIzpS4ibkOWM1mv/32k2BbAhIZEsUdAjZ/TxZCMOIaYWI4rwnc0qs/+qSm4cjsdjCpZhzUH8btN6nN1wQTwsOHEQp2UD7//PPlkGKmVjYGEXMMXPccH0GJoENGdPDBB8s88KDigcU1wj3H/cJ9QVGY6X6YR4rrjmyLzJF/LrvsMrFuEsi5F7n+yKaOad0eTwwYhjY+n4RG4ZILgEMOrPch1qxBiahOOqpFEb3wqFMhNT3kkENk85D5sFG0O+2006KLi+B0ww03yAvgpHORkbpyIk899VRMnTpVWIIuLMB7EIwe7jtUJhZ/OxI48Rggo+kT4+uxcxwEWXsj0Bx11FGy8ah/I6g8+OCDcdecc845Asq33HKLbEIuZOqUeHpyk3LRkXGQMXA+tDhM9v3lqAMwrkUWMGwQcNO1orhsDo3Ml2uDm8jeCCpkCTyY+F8CFxmRZktkeBz7JZdcImuG1WRZC5CgTPAhy2Bivd69e8uGZO5vrfzncw5t1RYfDd8XZpIXxr8vAcbUT4G7K+aM6586JLuOkaBEj3atB+OBxPfOOdCgxDAmsprJkyfLWCnyMZyGzJPzyX1HACJg0TGS0oYGJa4tAhvBn5IK55mgNPWRR3DqX47AKe064eaeA+AiUHMBTT4BxrGTgJSUek1BswYlgggXFU9+3ai85InGSaJYR18UbiDlg5IsIESZl7mWqB8ROjl8uCywTz75RKgoWRY/Z+UKApa9DUtrgft6D8ZEBphecQHQv1eTnIDbens8+e2iCOeDYyOV/vTTT4VFkgmRCerQGd6LbJP6AtJ40u0uXbqIiEZmRMCiqDty5EgJF7AvcI/DwOfDD8DY7LbA3dcDA/pbrKBe62uXXsT3zlN63333jXsO/80xMIUHNxWZFENOyHoYvsM5Iiugju3zzz8XZkRmQeXthx9+KCySa49pcbjGuJbs7ez23fHUgOHA+BHAjVc1iYJb94egxHdvbwQlHjzU+8hB27WrvGcyHw1KrHHHQ5tiLMHqrLPOEhGe+iP6ZvEAu+qqq2SfUPzjPBKMCFRUndBbnqIdGdq0adMwcsRI3PKfG/D4Wefi9u4DMSgtQxFHGgOOOgxHq274AAAgAElEQVTGSX8FslrWaz00a1AianMjEYl1ox6EikvmWOZ/udA42S1bthQLCpkErQuk5xTPONHUw5ANcEFSvNMsoi5QOiyrLe7qOQj7XHwucOzhQGr90L1es90AF5El1jTjc1NdccUVcspxfijzMx6NAETWRJ0TFxAXGQGNTIGgxIXLjUg2wLmrC5RSnS58ss9+GDX5RBjn/QNI3nGduAYYZr1uwfdJEY2byN4OP/xwGTPHxnHy4KLynpuVpz31IhRtaDkiY6J+hOIbDQZcV5w76pOYP6kuULq7x2Bc3aM/jMfuAHp1r1dfd8VFBGUewDWZIsfJtU/mw0aDhl4LVHyT5UyfPl1Ed+qC+G+qBbg3qAbhPJAB0XBC9khA57xQOiGz5P2OPvpoEe0oEvJg4JqaO/djuOYvxFsDx4k7iYj7PNT/fjwwdNCeoVPiYuJk8TTQjWZrKuK0cxctCGRS3FScMG5YnoxkTly0ZA/8OxXgvBetbhR3+IcvRptS9f3/0a4bbvnbiehyybkwmnDB1bWIOWbtN2P/nic+2QHngFScIExlJy0hNPFy0ZIVrVq1StgTGSXng7oWgj5FXoqxWnyzM6UstxcfjjwII6Y/CKNf72bDkjh+vnuKEBTD7Y1mcW4gnvZkBjzdyXwOPfRQsbTyO1rauKm5WcmeqQuhyEIlP3UwFGPJNglKL7/8ctz9/zt4Ao678ByAIN2Eje+SBh2yHDaufx4s9ERn5RZa3dgIshw/xTmKcRRHKa5S3OchTsZEIwilD17D/cK1QEDifBDACfBcI/yMYEUWyudTXcB1R2seGdSg5HQ81HMoJma0Bvp0BSYfC4zeB6B+qZ6tWTOla665Rqih9n+o55hqXcZNSDGQAEVxjRNKEycRn3+3t6u6DcANLEH8t0lAM9Gd6P6RRlN01fqePzofBDYuMIp0pPbUs3ERUzTUBgN97/YeH2bd9wiGn3UajNSmzy5pHzNZMk9sssE/0ygCc2Ny8/IA5CajNYqMgf43NR13F48/BgPfe7beJu4/07ft/ZZiOlkRldhsZCsU5djvbTWud35PdqzXEdk1D66ae+GP9DvZ4cT57XvigQMOhzn5aBj7j9lpdt2sQYnUnBp+nv6qVtcuNvcYwNV/PQmXX3sNPD26/JF3skt/ww1DBTUZIDfQrg674WBG9h+AR6dNQ++BdJXYxfO/k7NH9kf9IJX0BNqGSp2xrW7o9bf40afQfvJxO9nbhr+cTIVKaO2X1FBJ1v5cTw2c3H8oHr/i3zAOmQD8gYOsWYMSKSepIqljY1WQyG6ZJazBaCZhJfYFwpONliT+t6ZX959bSNv+dUpyspy+TDDX3BrngWyJYK3DZnZlHzUo9eraFe7k5sEaqSMkq7OXFNuVc1Cfe2cmJaN9mzYwUv7YHDVrUKrPBCSuScxAYgb2rBlIgNKe9T4To0nMwG4/AwlQ2u1fYWIAiRnYs2YgAUp71vtMjCYxA7v9DOwRoCQ+S6EwzIBf5T2SOC3mBTVh+KuZ6xSgYpI1v/jKggHA71cJujwsBLDbv8e4AUhWk1CQtY8kvzgY5c+xc9y2zIKiuOUcMKcS50Ou9apE3HtY0xkRjYpymCm2SsDhEMyqaql5p3xpmO7XhMl1EzHFLcRwMRR3T1okJiPR1Rtm7T7miuJa4Trg+2cGCLZQCCbXhcsJU7JCWOW3/H61ZpJTdkkKmz0ClFBWCiz8GVi+DGbb9sDwUTBaZcPMWQ/jh3kwCwuA8QfAGDQUcu2Cn4BfFwNt2sEcNR5G+w57zhZkatOtxTCWLgSW/yqLzBw6HOjTH8ZXnwHVfjVWLrCUVJgjR8NY9AuwaAHQoiXMUeNgdOgIOJtHUruGejEmE9cV5MN49TmYF1/JEjBAsBpYtBDGLz8CmS2BcRNUhtEN64Gf5wMlW2EOGAxj8FC1AfeQZuZuhPHC05LeFlfdCHP1ChhMX1tcCPToBQwZDtPthrF0EfDbMiC7tewps007wNpTKNgMc7+DgP4DJZdUQ0L2bgVKUnGDmWxCIRhcVDzRwmEY//sIeO5JmEw7smE9jAGDYI7fH8azTwDpmbLBzJ9/gPHsa8Dsd4FZb8A84GDJI2x06grzjgd2vQ/UrlrQMgcs0sl0tQ6W5YDx8rPAzDeAoSNgrv0dKMiD8eRLMKc/CqO8VDHHpYtg9uwN48zzgLtvBgYMAaqrAMZR/f1sgGkndtPGk182CeeE9fEIwEsXw3h+OrBkATDrM5hMfLdsMcxrL4MxcizMjeuB9h1gHDcZeGaa5CQHM0Ws+BW45hZg9LjdajZkDgjETks64DtnNR+msv3XOTB+XaqkitdnA6efAKSlAn0GwJz3FXDYkTDadQDeehXo00/WkNG9B8zjTgYevEuBFOfm2y+Ax2bA4L5rwLabgZKpxJJvvwbGjAeKCmFsylGJyjfnwjz8KBjTHwV+mQ+EIjD53SPTYfTsDZw4CRi/H8wvP1MU9ckXYbz0jFxj3PnQ7kvPSaN5speXwsxuA2PjBmDZYmDzJph/PQnG26/B/HwuMP1loIOqDGwuXQjjmkuB4ycDJcVATg7M625Wp+XmTcCEA4COnRtwmTXirQjSa1bDoEhCxrdsKczOXWC884ZiP2tXCShJbp//zQUWLwQuuAT45CNg/rfAsDHAtIeB084AevYBZkwFzrpArbfdqJlVlTBWLofJ7A5V5TCqqmH26gNj9UqYd98MI38zK5YCb82Bee+twMAhQL8BMG69DubwMTA6dgIKC2Cefg6MaVOAuR8Co8cCy5bAfOJ5oG17GIeMgTl8NIy7VX6thmq7FSjJoFlG+6ZrYe43EcamDUoMOedioebmr0tg/O9jtaEouiz4GeZD09RmPOtkwONB5JAj4PjgHeDEvwOffQxz3L4wTj+3oeaz8e8TDgvQGt98oRbWsiXAyX+HyUVVWgLcexvATTrlKYCnH9tFZ8Fk3ubb74dx+3VAVZVQcQG0fUYAY/cF0uOzWzb+wP7EEz96H1i5XDYOflsC8/jJMPoOAObOBh57AHjjQyXW8ihiRtNP58h1aN0W5tj9gRnTlOMfRdjCQuC8fwJ9a+fA/hM93PU/9VfDnDEVBqvwcC/w3R/9N+A/V8HsNwjGu2+Kmsz84CsY1BGxztQ3X8CY+hBwwKFAepqIauDeePk5NUeDhgCrV8F84HGgfScYxxwIpKYDM+c26Hh2P1BiwvznnwLee1tlgzz7ImD/g4B1a2DKybdAKCcyWgDv/RcGaXdyGvD2a0BKMszjTwNeeRYgqOVulBdgTjqmQWXiBn1D9bkZGcCLM1TK3m49YHIhFRfCmPO+AK/Mz4mnAampiiVdfhHMf10FY8Ro4OZ/A8XFMAlEZI08Qf/vQmD8/vV5crO8xly8AMZLM4Ali2Ts5j/OhkGAqgFKgkpbi4FnpwH5eTD3Gak23hsvKwZJPVJqGozJZwBduu5+bJpi/JrVMKnS+Mf/iZRhvvgMcOdDMM46EQiFgQ++hBkKwvj5R7VHKImccR7w+yrgzVdEl4Q1qwCWAD/jbODD94F9hgPZ7QCKwxT7Zn7SoOtge6DEFCzMpskEjoxRNCKRiKnirWidUXXprdyxVv2sCELhMNxWmecG7am+GcWVj2cLsJhkRJPPVPoPTmbrtjCmTwE+/Qjm1TcC5WVKHGGde6J9yxbAplyYrM7x1Msw3nsb5g/fAv+5EwaT4++ubXMu8MJ0YO0amKedBfQfBOPDd4GPPoA5aiyMU/4OMzNLRmdcdSHw6xIlwhQXAbdfL1Yn89b7FEV/+B4Y/3cBcMrpu+tsAOvXAq+9oMTYgw6DOemvMFpmxYMSrY4LfoLBIhFU7n74HswPZkl9P+P7b2CedT6MYaOAxx+Cedgk4KBDYdCquzu1JQuBpx6DybV92tnA1AdgbMwBDjwU5sw3VFFRsp6kFGDK/aJ/w2lnqTXDslrzvxdLtUl1CNnWvY/CWLdG1CZwuGC+8AQMHv5vzWnQWWkQUDKFB6pS140CSp/MAWa9GaOkRVuAtb/DPO4UGK8+LwwJF1yqzLrUjySnwDjjRGDy6cATU2C2bgc8/TLw0XsACy3+5y4YtmogDTrDjXGzokKYHDctI2ecK6wRrzwPdO0B89jjgZZZysJI48CkfWE6PTDe/RRgnTQqxAnM190GfPcNzJeehkGmdNiRjdHzXfOM9euAt19XJ/zYfWEedgQM6lY+ng2T4tubHyhDybSHgC0FwPW3A999DTz1uBLhyLbPPA/GqLHAYw/K7zGRoNQ8Mm7We9K4J558BEbnrsAxJ8BctgQGmSHLh814XLk+3DNF9G38Tg74YSOFURvr18FctVwp+F9/Efj0Y+CO+0UsNsbtB7N1W+DIfWFM+htw6b/r3aX6XFgTlKRyDgs1GJBkddtkSqocr6qWqUGJf+MNdylTikRgkmq++hyMjl1hHn8yDFqY3nhJrAIm9SL9B8I46jiYTzyqlNoeN7BqBYzHnwU+eBfmS88AYyYonVSP3mpSd2dnpfIymFTkrlkNnHMR8M4bMN55HejWC2ZLK9vfFdcDWa2ASfvDGLc/8J/blYGA1qX7bodJnUNFuQKvf5zTrIpv1mch268xCwth8GDi6X7gocC4fYHkVGFKBCXjzQ9gkj3PnwfzvtuUGFtYJHo08/AjgVlvwSBY0XK7tQjmBZcCzES6uwn51LNOewhGjz7ApGNgpmfAkAIQBoyj9geCEeD1d4ETDodJttSfKU9MqWRr0EXitRdhZmUBebnAyHEwTjgFuOM/wqzM9HQY87+DSesb9VYN2IghoWAIbrflH1ZfUFJeeE0AShw8lbRE8ZQ0oHMXpRdYtQJicaBZnFaTNm2FvpuFW2TzGWlpYiKnk5g5/zsWXBfmIJuwa9NlD2ywd0ldEOtu0dJIcKKS0t5GjIbpS4Lx7ZdAxy6WjgRAZYWyqJA1OR0wOnUBeLLu7o0bieuifSeA754tbzPw+0p1+rMMNUWTH75TZaVZwrttOxhcCznrYa5fqyAoNVWtp7T03XNGVq1QutfsNvH95zqgcyjngixRmnKORNt2QMtWwNrVMLk+DCeMfgPUobZkIcziIiX60dmUbLKB258CJanDrqoUKkcsmFKHXddtb+C+1uN2tUtsqE9snwuzIxVUpYd3eY6mevS6OVwi+kFWfW0OnWnkPuiy3rW8tptJxZZGno7o42RepNhffA929bQQQ4LClFiSiWl12QtFgphnfzuKbosp8VL5q/o309HqullNNZmJ5yZmIDEDu+8MEEOYQy0GStGq8VGdEtM4M0e4WN84VMqkUfFN/k36IcFmCVDafddCoueJGWgWMxADJRoWFFOjypcIoxXddYCSlj8psimSpErba/HN1WiZIpvFLCY6kZiBxAw02AzUBCUa1bSapU7rmwYhKww/BkqWXknplBKg1GBvKHGjxAzsZTMQB0o2yxunYTtMKeZAaamNtUrJUnQ7E0xpL1tIieEmZqChZkCBEhXdTJcSE934D9aWo6K7lvgW1SuJxUbMWUo3znhZUXQ7wLI1iZaYgcQMJGZgZ2cgFApLTTla8e2iWz1AST9KZQ1TjpSGVNrgH94sekX0r1pBvrPdTFyfmIHEDOzZMxDTGwnXcShiozy5tU/CDpmSAiF1veXdLXolO1jFPleKcKsRwHY0w3E/2NHFie8TM5CYgWY1AzuIkFD5riy/OLGsKUQwmANL/U1Z3ITcWL6QIr59tD3xzXIDsEBJsSULkyxLnEYoYVHaA8v+9zic2iFMNas5T3QmMQOJGdi5GajpqKzN/BKoZmNDGpBqfW4Ccz/Zjk5JgZBGsRigKE8my40pyodUOEoMpCyngzpwKAFNO/eiE1cnZqC5zkCt6ABLeyPRFEJTdGSFKjmuGZJ2Iq/JkugHWcv6Fg6HTTvaxUDJDjgaVhjGoacrDqnqKDcd634ClJrrEkv0KzEDOzcDtUOWtIimsEHhkA2MrNTxmtXEsIYinYoY2aZLgL1r8aofOyNSD7N/H4sxqmtwWmG+cwNPXJ2YgcQMNM8ZiFcrbS+qUuumY+OIByyLQxnAxx/XEN+Y4U2xo/imPtIPVYimACnGmvgZ07nbjHI17xKjb81zjhO9SsxAYga2OwP2/b79qVKQoQJ+tZJbPqqhW9IMSX9uByXJPKkRadvApMEpXlzT3YuplbQuShO1KI7tWeW1Eks4MQN70wzEb+s6R64BSC61AKg2h9LWNi3uxW61U6CkmJH+ccwfic+tC8TsPY4pwRN+THvTGk6MdU+fAbv0FBPR6koZpFIJ1ZLBaqUW2iYoadFsW/mI4m8uqBR1F48X6/b0l5IYX2IG9uYZ2B51IkgpX0fV4gnJttyctgtKOwKXeMucfmicIGd7W/XgfXvzu02MPTEDu+0MKONXvI+SlWBRYKE2GG0v+WIt61tdWu4diWZRGKrFzbaljd8bcx/utisu0fHEDGxnBrbn4BP7rj7ZX+tSdEuStzpNb1aX6gtOtaTGOLBKAFJijSdmYM+ZgXhQqsvMX9+xbhOUWPVtezf5o8BU344lrkvMQGIG9q4ZqMmi5n4cK7EkTKm8omqHDtcJYNq7Fk1itIkZ2JUzEBdBAuDTTz7B1qIiHHn00SpHd31AaVd2MHHvxAwkZmDvngGCUnFxMY486qjaoFQf5dQfmz4dqrLjX8f6UPs3dcuvf9TK90d/t11hdydq09f2lK2Lker52Bm2uuveY91jt/dNp6/Y8ZtOXJGYATUDBCVmnqwFSlzIqnplwzdJcxIhyLAMuF1atDticT874HQ4rIqfJiLhsHK+slKpOBxOOFiY0mq8n9qAf0CZHosebLgB78Q9OR8qLWhsDsLBsCogYzWOVcZrmirRns4jY7tGP1JmwaG+4Dw1ZgsEgvI4viqPyxXtR2P2IfGs3XcG5n78MQoKttQGJYfDQJLPu0tHFg4zg2VYniGVnVjs0uZRxQ3KdJnWPkQoHBZgUs2UzcYCBnojBwIB+bcdqOo7gJo+VzUduzR27rjyt3YWU+gZFyS9jc7w2cFQGG6XMzoWpgrlZ7rJXDidcDodAuSci3A4FurDCCMLg+BgYi3DkGsbkyVp35PKquqo525ykrdR+1Df9524rvnOAJ0nN2/Ow6Qja4hvjQFKMYbDk1+d/tG0ltF0mbGNFQqHwNy+dh5E0OLmY2NxO97H5eLm3Tl2oFL98i7K0YvjV32pyzU+2nPrL/Hu9eo3VkyPhCLq+9VeCOwvc57zerfHBYeVlc/vD6inWx6xBBoyVw0yBC1Vok/dn43TwKx+fwSUG3KJalAigCcn+Rry1ol77QUzoEApH5OOPDJep9SYoCS8xybGycazSm+r7xQzImgRlKRZOeS4CfVm5fcUHfhzzZjqyxQEEG1qJYKD2uwWBNr6U3tdxFIGa0BSoqTOEaPAIo5lmSzzTkCiSBqW77W4zM8JsDE/WIewIIJttHBfjELZQLouz9rGX8UJUGr8Od+TntgsQImAZBXmtcAppmeKMRi14TR42dXSHo8nuuH9gYB6P6baxJKYfMcyFyhKCtZZ+YINqW+u+lE7kV3NJaD0WPoxSlcWu4bPV3+srlnjpQim61a5nC44BXQAjiH+mUoMVDoilQZCAEvfV/M1S5+mn1Ofce+KxZwApV0xq3vPPZsUlLjxyFDCEaXw1gBkGGQtsU0cTb9bI6RPi3EeD8UaJeZV+wOim9LCE/U09QEmgpJdb6Q2tB0c1dNiRRRsoKNpm4WGCjzjQYnMU4OFYnxKZNONNdWVEpug5I8+uYbqv1ZQo0UaLVDUim0lwikRtPFbApQaf873pCc2OSiRVWh9EsFJbzI7E6rpzRkPF4DLqRTiBBIqh7nhLbIEp2HA4XSIEnl7VrlwKKysWZbQpPVU+mVroImxndgysAhM9AMNtvp5MaWzAuGagKQsnar/nINQkGwvHlBUqiwbSNZIuaeV6tJvjll0SwlQ2pM2694yliYFJfskc7NGmZOIUvyjNlVMnWuxFZ310hJmCBQU4VQzUFXth8Ohy66o8pvacrUtkcYOFGQw1EnF98+q7MJnR8UwdYWdBfHfxFZtVdS+VBQlxWpGhsQLLLMcx6xKoCvRTRXpC8XGbPMJiEmh8T5VHJPDSSW5ciloKrFNz1eCKe0t8LFrximglEtF9yT4mHlSe3Q3tqJbD0+Bk2IEymVAiWK1XQvtTMWAx6OYBn/r9weVkjq6d8kcyEbi/ZrsU0rFssr7op7mdKrKnbF+2XOT27mbYVm7VO4Y1W/lg6UbwYQiJMdDq1nNRvFT+xKR6ZG1qTSiVpoqe04aq4t8PzERTfdh1yySnb1rApR2dsYS19tngKBUUlKGgw4+GF6vt+lByd45rWfiZzEltwUOVpE7zQy4STWYURwMBgOIWHopLcQ4XRTjyIBqizX0cbLnhFHMRjEvgg3vaQcaez8VoMSESgKPulYX21OgoSyHlsLeuoFTfK2UPox/1HO0gj0eju3Kcs2GmpoV1bWdEqCUAJk/MwNbt25FZZUf6enpal80NVPa1mC0Y15MOaw2PP9NPUxUUS3m9RhAWZWnYJgROJwG3OKMGfMC188T5TKZkqVXoo4n1pQ7wrZCO3g/XfVTiaAhS3zTynEFSpolxTRXyssoWjGUjEoU1LQY2mciXovWHIHI3tsEKP2ZLZn4LWeAKhhtkW/WoCS8xWIT3OBhyxtcwi5owo/V6LXebEzo03t8W24C1X6/hL7o5vF440BIh8QocIz5TvHvDodiXxo4RSdkKfAVW1J6La0lE+9r+Zcd9mL8TYMUdURUXCvQU8BkZ3PNdfkmQKm5vpndp1+7BShpx0nl9S0CXew/ytfSVgAq5o2tLFaqVic/pW7HHpqiX1N1dbUwLrFxmSa83pgnsvKjItCIs1CcFUx5fytPaw1KoVAA4YiCnmg8nohndpCM9Un1UK6OGxuBVn2mfruzDqFNtQQToNRUM7/nPLdZg5KyWNEipfQxNjjaqbBbDVoUjezhGvo1VlVVWWEuilN5PT6pYqfYCQGH4pvl/yQGuFghmZgflALDcDhoxaUphyWDOqc4q5hdbR+T0zQLs/MndUctbppi6ldsr7YI2lyWZAKUmsub2H370exBSabWEpkYkCuKZEGnmh5M23sJKi6FrgE1zf38VWWlAiXekWJTzMVAPUYpr+3sJvZseyAtISQUUla2qG7LUCASi1Kzy23R2sbW95aYBopsit/Rckggiim6m8b/qL5LPAFK9Z2pxHXbmoFmDUrb6rT2/qb+JibSaR4Vv2l1yo+Ybqb2XcvLK8U/SKVLgZgideOzJGLfjETFP4JOKEQ3Aojjo115TveCYJCxb0pwJCAlJyXJ7STliPZgt/iWsDj5P8W+aElUCu/GjfJvqC3S1KBE3WBYxG3Fj5VTbI0DzEZWo17zUZeQnQX92M2oAuC7041rgGslYAVYKyvxzsw0Ix5MOUx3rqmxxwxE8b+2wktrTYs2HpH982DWTr079+w/f/VuCUp2wLBPgd3yFvd5XChI7UkrKyuLim+8R5Itul0FyIbhdCjPa/2iFfiExEfKLk7RvUB5lSuQEVBKTo5brNIDmyIszrJHUscNYsXh/flX3Lh3aEpQ4jwyQRgzF4oBxASCAb8VH0SwsQOOFVOoiyTKfNOQEfNxU75iylhhyufqN0qk1mCnQrfJa0vLy5GWnGwdUhFs3lwgh9n6DTmorvbD6+X6ia7euBcTi5FUYMLrqiorUVJaisxMZR6PBqrbNQAiRsRupXz0dKxoBB45YC1HZKoTaiwH7dOnQZzZOFLTUjGwfz+0bt0aHTp02OmsG392xe3WoPRnB69/X1papvRWIuUZSElJVrgR9RlS4BJdUCbExYBZCZRHd8yTmp/RT0pev6mU6ykpSY3+Yhtqbnb2Pk0BStqnraioGL/8+CMyUlPQtlU23B4v6AsW1kaGqEO+DmmyBUpHGQ5Zbo2wJJ3xwQp65pxoVqH/rg8haxFhzbq1mDXrXfTr10/WjmLX8TGP8b54MWRRxpUINm7cGF2XCmuUH5tWNSidZyxulACoTOlMpEh1hIHs7NaWNVi7tWjQs/5t+z2DvOX+4QjatM7G+pwcnHvOOejXr2+jpsRJgBKAkpISS5muTtPUVAVKbEo0075PNnpj5UmKxbqp6xnlHwrq7IsqxIUgt7M5nnYWDJrL9U0BShw7Gerin39Bl3btlVe+2y0GCyoJIzw0eJAIU7BsstHMDVZGKuW5IWwonqUSyZROL8poLefdeKoTO8SC4QjefvddbMpZj/Xr14vOskOH9uKTVitjaNyS0tmx1J3Z1zAdcaP9toDLCsaU/2hmpxStlu5TS6yKF0WYSscSZYXpy82VKSe/uhqFlVXyDIdhwgkTZVsK4az2o0PHThg7chT+cfppyMzM2G78aEOuvwQoxYGSouapKUoH5KS536F0QXqZ1BTECVr69BJQ8geEKelGxXpKSkoClBpy1dZxrzVr1iDN5YbX7UIgFIbH5Y0GahOUhLhKuhibGMcNzTAeB2hasEQblUtL2G80vtKBiE3uqe3AqlkOf2li5Zq1MJ0OTH10ihxq++13EA477DC43B4lWkX7H6/vUn5o+kvl2yYgIhKlEhyVeMnBqP6RD2mgkzvbvGbUc2zOt5LgNSzCJ8cQchhYWlqEr1b9ji3lVTDcJpIcJtYuWIKipUsQzs/F+eedjzZt2mC//cbHHH138bvcK0GJNJonqwab0tLSWFya4URKsk9eAAFF4m+shULXgfz8fBQXbxWxrV27dmjZMkvcDJQSm7F3fgEl+j7xMw1KWuFOBWJdFsBd/J4b7fZNxZTmffstenXqBJ/Hi1AwDI/HB4fTiapQUHI+V/qro+9cHyKxXOem6AtTfV507twZSfRTs7IsqNxatXTCtQKftd2USftef2cm2rdvhxdeeB4XXXgJ+vUfUsf8E0Js2aoFw7oAACAASURBVFZtQKVEf4KSYnhR8JFrCFImNm3MRc6G9ejSvTtaiYhmQZBGT5u4p9DVEJHOQWU8HNjsr0auvxwuhxPz167DioJiVCMIl8OBSCCM7h4P3n/kThw6cSI6d+2G8845u9Hyre+VoERAInhwUfLEKCkpxffff49hw/aRYNy0tBQ5YQg8yckpqKqqxKZNuercMQwUFRXKCdiuXXts2LAB/fr2Q3oGlZFAVVU1yivK8f577+GQQw4Vc35qaqpcz+dt2bJFMkt26tRJPt/TWlOB0q9Ll6F9yxbiy0W3DK8nSXbz8px1WLFiFcorKmTeyVQoYgdF9xcUPzgeUty3KUk+jJ8wFoP79IfbqzNPqHdel9EsGoNo86IzEMbTL76MYcOG4pFHpmDa1KdhiNd/fFMgovSYNVuYvnFcf7GkFMLAouHcZgTffvUlvvjiSxw+aRKGDN1HlPq8pUNYlLpjVN8kTzJRXFUhrNBpOvBLfj5+KymCx+lAub8aVf6gWPryt2xF4ZYSDMpqj3kvPIixw4egW/ceuPSSfyZAaVdu1jhrlyW+3XffffjnP/8pgYDaysY+0JqzYsVKASBa0bKzW0W7RpD59ddlyM8rwNhxY5Gc7BO2VFhYiDfeeBOnnXaqBUpp0fi3vLw8uSdZVlZWVpOnGmnoeW4qUNq0YQPSfT6YYaZFDiHJl4atFSX4av73qKoMgMkDN+VuVIHRTBnj9iAUjAgw0YpKPWAwHEJ2q0yc/fe/IyMjQ9nYrASC27LkazFPfU/hP4zHnn4Go0ePxP33P4Bnn3lJdFKxZimitatCHaDEYHJa/fh8nbKQv6KYZtnRkLtxI3JzN6Fzl25oldVKAtC59qIecTZg4o/4XWlVFfxOYEtlORbn5CK/rFysykprSgWqEzkb8+EOupEa9mLBx8+if59O6NSpC664/NJGW6t7JVOquRGp6CaInHLKyVaIiTKpUgT7/fff4fP60L1H97hgFvs9Vq9ejZwNOZgwYTzcHrewpXXr1gmFr0unRJZGMbBFixZ7HFtqKlDK37gRKV4vwsEQAv4QfL40/LZuJRYsXoJgKISy0q3CdilaM41NcnIaXC6PAFjr1q2QnZWJXxYtQVlZOSYffyzGjB4DJ9mHBEjXzZQ0c9aim6ScMSN47OkZGD16FO695168+MJrNq98BVx1i22a3SjRTTeVXUu5Kcjfouwp9pnolwhKFmgpR19Lm6Q/479ZoAMmcku34u15C7Bo42Z06ZKNzOQkmA4TIX8YW8sq4Ao6ES4OY/6cVzBun27o3KUTLr9MgVJjBIQnQAlAYVEhqquqkJ3dJs6BqLS0BCtXrsQ++wzbhkk0dn4++eSTOPPMs8RvafXq39G5S2fxTaHHd12K7l9//RWtWrVCdnZ2Q5OVJr1fU4FS3sYcpHq8ko8q4A8iyZuCH39djGXLV6C0vASbcjahvILe+i54PSH4knxwubyoqqjGfvuNwJCB3bDy9zy89faH2H/MCPzt2L8qFbGum2dL3VD3xlRKc4LS/Y8+jokTD8Ddd98toMQ4xlgcZrxy2/6yVKYKgTqLdymRze6aYr/ebniTLNIWYNklgWj4ElP6UL9WXYlFWwrx/tLfsHnrVrRI9sFfUgGf6UJGUioMp4mwASz5NAfV6z7HQeO7o0OHjrj2mqsTiu7G3Fnz5n2LwYOHiherzptEpfayZb+iT5/eSE1Ns7oT57UW5yn85ZdfYty48WJlmzFjBs499xxRuAaC/jpBiSJeUlKSiIR7UmsqUMrdsB5pvmREQiH4qwNI8aXhx2WLsHDZr6isqsD69etgOJLRuk1r+CuL4XTR4OBFfv5m7D9hJEaP3gezZn2KH378CYdO3BcnHXe8ZXGL5bvS76kmKGnRTYPSf+64C3877ljcccedFlMS477KC7Ydh3EFSjVZkr3aj80tweYQKTAWsTy49Uq15eVSVkRlpVu2aTNe/flnbAoFUFFYirLCEpCNce2ne1PQzsjGml83Ia8wD77IQhzUrwuS0jNw1113JECpsTYqT5Jbb70VF110MdLTCT5qURQUFODNN9/ERRddZDlN2rUKdjOr+vvq1WvQtVtnUY7ff//9uOoqnizqOyq57X5Kc+bMEYY0bNiwRqHDjTWXfE5TgdLmDRuQSp1SKIxqYUpp+HnpAsxfuEiKMWwtKkR5RRmcThd69uyJpOQMLF68SER0n9cDr8eNgoJi/L5mJc4+4+84WUCJxo5YRRwtEtlBKc68T6YUieDh6dOx7/hxuOuuu/DSi2+ohIMiONk01zVeih2QVISMiZAtJkWxoFggeNRZ03J+pPgmzCnuN7HeSU4xAGXVQbz23S/48rcV6NqzDdxOB0IBAwG4EYYTwYpKFGwoQSB/K8oXz8GY0d3QoVNXXHP1VQlQaoyNxBdIy8v06dMxefIpYmlT+YwiqKioxKJFizF27BgrfYiKSdPlsFXBA55+ymD7/fc/YMSIEeK9++238zBu3FgZgnItUIpOboBPP/1UTqX99ttPiu3taa2pQCnPAqWIBUo+Xyp+WrIQ3/4wH4FgQNwB6FXt9XkldxZTrlZWVImiOxwKoLKyAvkFBSgrK8VlF12AU044CaZ469eOQdweKCESxuMznsXoUSNwz9334qWXXhfLWNQkZkuzrN99TbGNzo4R1h6U7BSWf5Il1omzpFpZCoCU1BhncZOnaRcBHQpuOUfyfgt+X4+n3/sCOfllcEc88AeDSOqQCZ/Hh9KV+XC19CBUEkBg9f8wenhXdOvRA1dc/q/oPtjVa3Y30ynpXNm1pyXmcRtV8UVfngIH9SL125Pof0b0R8JC7Tt07ADWX1O/ps+RA4GAX5Tc9FkhINVMGaLybitfk0ceeQTnnX8+PG43Xn31ZXi8vqi1lyypZcsW6N69B9q1ayugxAosauHo/saHLqi+6hM2Rul1krnGUDj+kcXXZKCUk4NUr0/EN2FKvnR8v/gnfPH1t5Z1LYRgiHGJtLaFEaRbgLgEhJCXtxn0VWPcF10Frrr0Ypxy/MkWKMUrd+sW3SzQ0Yrup6joHom7774PL734qvK6rqPFwEivTXURxSya8HU8mn3dqnUeM/dLnKRNl6SfFPXcjiEf5Gg0gVAkhPJANaa/9zXmfrEU7bNawB1Jh89pwmMGRZz1uZLxxpu3okO7DPTo2UtAKZol9Y8sjJ34zW4DSpxkVa7aclml2dRKsB/10rU0f+pzm4ilvd9qLA6+wMIthUhLSxMnSYs163gDi+nQs9sppZrsTZ9EymkyjAcffBgXXngh/vv2Wzjl5MlWloCabii6TxpktDbCIuZ0IjFI8x3iICfexnU491OkUHmcduJNN9KlTQlKyZb4Rp2Sz5eCnxYvwAeffIZQkErekAKhIJ1blRtAIFCN/Pw8VFSUy/cSnxYM4porL8PkPwFKj05/GqPHjMI9OwAlxWjo1BiLwdMsJyhVlpVrQFRZbTEkLmMRBi1v72igMCmZtSbIBnXEjE66I47tTuUCQDD+ednvmPL8/+BxZqKosBpFBRUwkytRuSUPrYZkozr3W0zo2Qu9evZMgFLdp4oFSmQmOxFBb2WwiPmoReOF1An43nvvYd99JyAzM1Meq6Oj+NLoKkAX+7ryetv7SDOy318t4HbmmWfiueeeqzGEmC4gDpYEceIBqubYbTzKyqGp4vHqU2SzkXAo7jFNBkpiffOBObeqqgNI9iXhu8UL8P77c8FYNMWgFCAxk2hR0RYUFhVLnT2+a/4uFCEohXDDNVfWAqWo0CQv0DoYRdTXsXLqCupupj7zLEYMH4a777oXL7/8ep1MqaZSW4ORZkq8Gz26t7UXCEi06emwEkm3bFNu83chZiyNAGEzjKJgEGWhEOavXo8VGwvRK6s1HJV+zJ71I1as2IzUll6Ynb2oXJkHBkmN6jcIq396F2NHdkCPHj1w5RV0CWic5IK7JVNSc6/ik+JbHbxC+2zYrlWMSJ0qt99+B8466yy0b89ATu0SYoJVFT788EOcccYZdTIk/WzqiajQVI6XGXjttddx0kkn7FCBrfqgF/TOwUcClGrPF10CkplbPRwR61sSQWnRQvx35vtSlNTtcYmzIUXyyspK5OdvUczbyveu8r6rYqE3XftvTD4hXnzbGVCiTmn4sKG455778MrLb9QGJcs5stYBZAMViWmLZh21XalFNwk3UcpttrB2rNSKbvHujqDSjAhIh80Qys0QNhYWo0NyS6wtKMS3P6/FptWFqAxXoKS0EqEiYEv1VkQy/PjPcafhnXfuR/uOGejZo1cClLbLlKLBsTu3keu+J/Dll1+IFYwsRzcVLuLH999/h0GDBglbIgjpar68jjqmsvIyLFiwAEOGDBEPYPolFW4pQnbrrD/fue3cIQFKtSdnc84GpPmSQEU3a/9RfPtuwc947b//lQqhORs2oKKyCoVFBQgGq+F2e+FwuMWvScrHWwkDCUq33HAtJp9wkrgESGEIpd5TTEiYUlzkrG3dkLmEMXXGsxg6dDDuvfd+vPoKmVKNw7MGKNWMMODtdUlS+0i1nkhUE9GcSdqpUmV5IjixMayY63Vuznq89NM8+CuDSHYlobK8GpWllWiVlo5UuLF5QwGKN5WiuiCAUGUFXFkOBKuqEfa7kRZehH3HDEKfPlR0J5hSrVVXS6fUANu+oqIimmEvBkiGmI25jjZt2iTi3dFHHy2+Rj4u+khEYuEqyivEsbJX716SCItAQWvdgAH96yw62QDdtS1+B5wup6TKbW6tqcS3zTk5AkphBlsLKKXi21/m48WXXxXA2ZCTg+KSavjcLoTDVSrezeGURGq0cknxU6j/3mYDJeZWEosr9ZQ7mG/5PkLx7RkMHTJYmNJrr75ZyzeppuhWFyjFstLXeMNkRFbQrYh4UZcAbaKxxEgBqCD+Nu0VVDmZNTUIJ8U5OBEJRuAOOGFUhoCqIIpWl6BySznC4Wq4vRGkdspCdUUQ3tzFGDmhG/r37JfQKTUWUyLotGzZMmqa56KirsauQ2Ks2k8//YSuXbuKiMcFtHnzZqxatRJDhuyDjh07RN3vWd3zkEMOkWjskGWV2xWgQdk+AUrxM5u/aROSvV5EAkEJHWGYybxfvscjj09DeVkpcjbmwIAHPbr3R3q6D5s2rUMgEEZh0RZVq8/a3BTjbr/x+ihTktAKy8ih10VNELGDFf2UHrdAida3N17/r4BdtNlYUi0w4kWW86QS3+KbVmxTbNOhJJLxICq6WemghCoZ+Hz+Gjz95U/ILSmFiQCcTqUxdQdNpMCL6qIK5K0rgM/tREqqC8FqP1xwwZHuQwaSUZDzCcaO7oY+vfsmQKmxQEnWgNRyU0pvMiQ6P9akzLpwgC4oGXMNUL/TBSTtbgeRMHNFq4IDDd0ElAQ8E0xJv8NcS3yj86QCpVR89dM8XH/DzeInVlhciFAggIyMlujUuaMIODkbNqK0dKtKO2Mpr6ljuu2mG3DqiSeJ2CUzzMIPFkuKuZ7E3mo8KIXx2DPPYujgQbj77nvxxhtvK6dJq8U7ScavDYpeyi9JiYu2X8VlPdV+SZop6S+1RlUkTLcbx13+OtZurobbQd18CAbBlzmlwlXwOsOAwy+fpaW40aZVWzgjXoT9QaxcvRx+fyl84dWYOK4X+vTtnwCl7YGSqs9W8wSRpamqf1inml4o9QUFne/IfueYg6QuJam+1Yp2rhz6uDCGjbXiVN1J1Ts5wbZT7rvmGGsudooRyifJXjPOWq/bANCGBr8/cr+mEN8kdeyGdchITgWioJSCr36ch6uvucHy6wmjorxMdnvffv0l19LSpUui71IxD1N0Urfe/B+cdtLJYgyR97IToKSdJ4cMHiig9OYb/43plLbDkjjXISvotua86zLwWo9ENqWzhKvCCDWcJel8aRr4/MfVmLckB0s2FCO3uBJGRLElglFGqg/hqnKUFxaiOq8EbTt1hOl3YnNuDkzTD09SKkLlv+CgMX3Qp28/XH7Zv+TwbYy221nfxFlRJRJUL8Omd2TqWYILrSuvvvqqfN+xY0fJ+se2cOFCzJ8/X/4+ceJE0Qnl5OTIv0899dS4ODTlVJcvWQLoXEll95gxY6WoAC1zZFXMofzuu++id+9eOOywv4i5OSMjPU78YxL7r7/+WkS+gQMHYswYeojH2tq1azFv3jzp8/jx49G3b1/5UnQcVjkp7TCpR6wU3bVZXWMsmB09oylAiYBSkLcZyW6PiG90jvR6kwWUrrjyGlUmy6qorLz4VYVlnTQ/5lCrQOm2W/4jTEkOGP6x8rBz7DtiSgSlac8+jwH9+4qiuy5QigsFsUVQSk6kGhMsYGmlw9UJA7RbiVr7NUHJOhABuE0TVUE/ps6Zjw+/XQ4jbCIzOxvVpcUIlJTBX1iKcGW1FFdIzkiGAy7lUhGuhseVgmDhN5g4th/69iMoXbpD15gdrY36fr9bgRL1NFJTzTY6rdbj2mH8El8Sgeavf/2rXDVu3Dg89NBDktTtpZdekpASXnPHHXdg9uzZAghsb7/9tuQ4Yi4lKsCnTp2KLVsKkZOzQe63//7749///jdWrVqFjz76CG3atAUj/b/55mvxcSKorVixHGeffU7MvQDA8uXLceONN4LpTU455RRcccUVYrFjUjk+h/f+8ccfBZRGjhyJXr16SSbLo446Gu3adYh5oEchmOKiQ3J/J8Q3C6ZNE1vy8+BzuQWUGAjt9Sbhy/nzcOllVymQjygrm/aGFnFNQKCGCBUK4Y5bbsTkk06W3wkwbQeUaim/I2E88dwL6Ne3N+699wG89abFlORxKnWyvVGhbasYH/ddzWsdVtAtLxIdmA2Uoj+06ZeWrdyEdz5fjiVrV2HVqmI4wiFkpGcgUF6Gan8ZDDIihwshHn7hMJJSk5Cc5kVRaTWCIQdSqn7C+JF90a9/QnyrE1DlhJNilPIqdIZPtcisGDOvxyWbnwpnRuqTT/Xv3x9HH32UsCR+t2LFCrn/bbfdhg8++CAKSgSda6+9TsJBmB3yiCOOEIBq27YtBg0ajAMO2B8HHHAAnn/+eTz99NPiQsD4OMZMsRHQqBS/9dbbcNhhh4qX9/LlK8Dg21mzZgnoDB8+HBdccIEwLPpAEZSiC9+2wLxeD66//ga0adMuVpnXNisJUIpfIlwbGpRMzZR8Pnzxw3f417+uUHmsdb09+a8uDRoPEGLhDYVx5203YfKJJ/0pUOrbpxfuu4+g9DYi9NSXR8WXJFU6oVhabT2qOlUOltVN99iu6FZ3jgG08mCIYN2GYpx/0wxsyl0POFLhMVKUN3ckBKezGg7Tj4ifRQMAg1kT3C74UpLg8rVCdptO2LpyJob2bYW+AwckXALqQqUYKOnyOPpVWKEYhgMEpVtuuUXEJan9BQiLYd5lZnuk2FVeXi5gc+mll0pw7M8//yxuAQSfGTOekaRr1dVVeP/990HRin8oyh144IHCdF577TXMnDnTdjDpGCX10Y033ox+/fqgvLwCTz31FD76aI54hrP/TFXyf//3fzj00MMErD799BOJubr4ootlzT799FMStHv33fegb98+ohfQug616NT/kyElmFJslcSBUpDxa1R0K1C68KJ/CdPhNUyVyx1I8a0mQ4qWZ4+EccdtN2PyCSfuEJTqdBGg+PbcC+jbuyfuv//BKCjVZe8gIEVT3MZWVK2ClQJSElKiPKrjxD9bQjdV6451vQwEwmH44MQ3Py/Dc298hEW/5SHCRElgWuYQIo4AnLS1Rej+4kRGVibKS8tgBqrQsk0bRJwp8G+aizH7tEff/oMSzpPbByW7TSJ2QnCBEJTmzp2L66+/Xk5GspmDDz5YGA4LTr7zzjti3icAkbX88ssv4otEM/5xx/0NgwYNFNGIWSMp3vE3BDeKfhQHzzvvPGFbBDh7Y2CvVjjSJb9Tpw4Slf7DDz/gxx9/wptvviG6Ij6HG2Lt2jVYtmwZcnNz5br+/foLKFH8o3g6atRo7LffvvjrccfbQCkmtCqmxCq6Ceub3qRRpsSc24EQvD4fvvxuHs678J9ihEhNS0Fu7kYBJVUMwiWVj1XUobWmxDhRNyhRtyQMxFZqqc5sAZEwpj//Anr17CHpcP/71kxETGedVliS/rrM/lHGRInASt7GPjosD+8oKNnFTwOoBvBJzjps9vtRFTQRDgQxuUcPPP/xd1izPh8LflkDvyuM1i0z0aN9ZxSs2YL8DXkI+KsRMQLwB0qQ5s1AMFKGlh3boGj5Zzhg9AD0HzgwAUo7ZkoxNbeq/KByFhGUyDwOOuggWQT0Lbru+hvQr28fEd8ee+wx/Pbbb5JihKIT9UNUTt98062YeOD+wqAIZrNmvYf77rsn2g2C2+TJk0XZ/eKLL9ZyorMvkvSMDEyd+riA2cMPPywsjLoripFUdC9atEj0SHw+U+XWPG3ZH/7m5ptuxgETD6yj7LTWKSVAyS7u1AQlj8+Lr76bh3MvvESygQb8VTDDzFEUgsvF9cNk/swKYWe6Ssy7/ZabcNpJSnwTfRLLaAnHUC7d+n3XBCW5xoxg+rPPo0ePbrj/vgfx9tvv1akzIqGhHVnn4LaPxb7+CUqqLFPsAFKKb1umAKngC8zKXYfvNheisKwSW7dWIlAWRLrTQEuXiVOGDMVtH3yD/OISJJVWwLm5FOGyMvirKsThMz27NUpLCuEISrAc3FktESlZiP2GdUW/QYMToLQjUNI5ACwuKwtFMyVuduqH2BiLduSRR0pCtZdffknEKG76U06ZLJY3Kph5ctKBkh7bL7zwgpyirG6yauVK/POSf8p9qHw+/fTTRdf0xRdfyGdkU3bGNGDAAAGTsWPG4dTTJou17fLLLxcr33PPPSuVSnv37i3PJwNjSeShQ4fh3XdniojI506f/hTuvPMOuQ9FuIzMFqriirUZ9LwkmFL8CtHWtxTGvjHMpDoAV5IP33z/nTAlJnEro+7PlQyTwbehKvg8Hqlc4w8FxfSvgYbVYe+64xZMPu545Z9kuZiYLEq6jfASe2+cZgRPPPc8unftgvvvfwgz3yEo1fZ9U1qfeFCqqUviv1l5pK7Po0puK+KlOBLAf3N+x6K8UhSXVyMUCMN0OeAMBmEUl6GyMIiNBdUIrVwPo7IaobIiOA0n2rfriKrqUpQHShGqKIfXlYJ99z0Mn34/H96t32Pfsb0wYPDghJ9S3aDEdAtUdIeVU1sNIZ2nmdvlwFtvvYV77703qg9glsHBg4dg9uz3RV/DduWVV4roRp0SXzj1SKxW8swzM1QKExNidTv++OPleop/t99+uwCflOkBcOedd4pCnY2M55VXXhGgoS8H80BTLDzrrLMxZMhgfP755xKiwhg7igcEQwILmRlFQwl5MAxxJ6DOi8nm5s79RJT6Ut3UOp310hZQYphJQnyzziXLJcACJeZEcnu9+Pq773HuhRfB5/OieOsWwOWDx50KRKrh87jp1QamPRb2I6Y4lYninjtujTpP6vpvAkrbaXo9klM98ezz6N6NoPQgZr7zfhwoRU38TOImmQBiFkAFPsrgr5d3TVCKugCwL5ZvFW9UZIYwa90arCorR1WlX9YHU6JUhPzwF1eieEMl1s5ehhZpqeg/oDuKNq/FskXzRLQNmiaCjkw4HSkiJLZKT0Lh1lwkVS7GxPED0H/QoAQo7QiU4r9XL5Eb9Mf5P+LSy/4VzblE/Q6tbFR0U5/ENLXc4DTtU8FN/RMbldfdunWLpqwl8DDmjcDDRr0Uk8DrJiLfzTeLawDbX/7yF1x99dVSnkk31oM74YQTxPeJzIjANWHCBPmvfu621jh/w5pegWBIQlZ009o0BgMnQCk2e5opJTPHeigiOiUC0eLfluPIvx4Hb5IPbhcE8KlL2n//iXJIfPLJJ3H6JMa3MZ5w1ltvSiC2iEkMxN5h0QDVF0lkYkYw7ZnnoqA0a+bsGChFK93G+k4v7u2JcE4xdggC1VKAi5I8YiDkcuDn1Zvxw9YCbPFWSGxcpCqMsnAAxRVBlG6txtacShR9/DucoSCc4S0ww8UydocZRsQMw5fREW53Osq3bAQcJfBntkVa/grsN74zBg4emgClukGJibrCiISU86RtScrpwsX0xJPT8N1330XN/mQmtMaRFVHpTIsaFxnzblO3w2T/BInzzj0fBx18EDp16ijfE0ToT0TgqguUlixZLL5PCxcuku/p00TFuc7DzdP2s88+k9zfZEE8jciC2B9a/QhmdFlg8QB6g1N0tOsn6DZw4IEH1QYl6/jkcxKgVBuUWGIpEgwjTD+lJB8q/NWYOv1pPPPsc2LqT0pOknmrqqxGRWU5nC6X5avEvW3C63Timn9fhWOPPErey58Bpc6dOuCRRx6NMSUeLsKO4kW57YOSEt8EkqysAPaVz4iBmZ8uxovvL0fBlgBMM4iMTh4M/ks3+H1+bC0Po7IqgHSPE2vzirBxzVa4lm9GWlkAzMpdWVmASCSo/EPhgdvbAiUlhWjXtgOKS7bC51+JCeO7YfDgEQlQqhuUINkCo5kn7fyBbvdOh4hNZ599tjgnMi0tzfiHH3EErr32WhG7aOmivubYY48Vp0YqvylC8dR86qnpklCe4EDXgZNPPll0SHWB0syZs8RXafNmVTWXTpl9+vSJAgv1WhdffLHUdSPwMZCXnuVdu3bDP/95MaZMmSJFCcis6CbAZ9Lnqby8TBbfK6+8KnosxnCpEANN660TOcGU4paIMKWCPFCnRI9sHl6+pCQRxX5ZsBBfz5uH115/XTI7KFyP84kWxpCWloozTj8DA/r0EUMIRXotXunYyG0xW/vnZB6Pkyl17IQHH34Y7876ABKbHW3Ki6hOX6Q6nCGj4prVb4PZSJWrHlblbsWz/12Gxb/lihUx4A+jOuCXLJrdjm2DLl2yECivQEmVHxsLSpC/phD++avhqCpCJGLA7fUhKaMF0lIzK00eGwAAIABJREFUULxlE1q0yEL+xtWIgHm7S5CJCowd1RWDhiSsb3W+e54K1CnVDUo8hBzwet0YNWqUXMNFdeqpp+GISUfgk7lzhbksWbJEymXTErZ06VJxYmRoB/2GDjnkYAEsNlrOKJJxURO0Jk2ahBtuuCHaLzKjl19+WfRBbAxpIYjoRgvgaaedJsD2wAMPYOjQoRg7VhUSoFjA39MlgA6SdBMgW3vppZcxY8bTksHym2++Ed1WIBC05WmOARP9bVzuhE5Jzzc3bn5BntR9Y+xbkNYjn1dyXpGp8nBhnivWf7Ny+8XEIYu4pGdkokVmpqyb9LQ0WU9sEvVoC8bdHjDxDbkQwWMznkW3Dh3w0CNTECe+RTtcu7hlXSAVAySdNkUXC1CC/Bsf/IbZX66XCrwOw0SVP4CKskpUVQRRWJqPQ07fB7mOClRVVGJLaSUqNxYitOB3GIEqub5Th47IzOiC9Xl5KCtej5C/HC6PE4EA4EptD7NkHiaOHoCBQwbgyisuS2SetL98vhwuLol7s0VR25Jqy9nn9bkxYsRI+Sk9rGnBIvv54Yfvcc8994hF7NBDD5V7ceOrrJF3S+FAgo9utKoRLLgYqbwm+zruuOOisj1LfJPpsF9kOxTFqJPSjUyJljcqysnSqEuiDopgSQBjuly6F9BdYfiwYTKM6669RvpEgCK7osKcoCRpKWpZfUwRFZmtYEepeutzujfkNU0W+5afhxSvh+7K/B/cXlrXVACpZAEIWyWOLPFJmdQt0mTFUupsD3YdEn+/M0yJOYsefWqGgNLDUx7FzJkfxOuC6tAr1QIkq2NWIInVSfrCiaICYXEDN7FqTR5mf70Oq9ayMku1sJ+y8iqUlZajMhBGRXUZug1rhRYD0xHyebB5RS4K58yHYVajdVZrHHTgRJhGBpb+thkGmABvFVpl90DOhgUoLKmEo2I99hvdEYOHDkm4BNQGJGV10676tYLfqKAUa5ZLdDZcRHSQvOzyy2VBUEx79ZVXRBSiJY2uAdQzsV166b/QrRtLcscadUqaGbVt207ApVevngKK7Mc777wtAMIlQleAk046MZrjm3fhNXQ52LgxB++++574JzHlLu/L0BbGvRGoJk48EKlWxstHp0yR6+m+QOdPLtQoKEXjs+L1EaJbYgEB5UDTkNjyh+/VVKDEbA2pXq9sVlot6adkz3+k9UPRgVlRzrTk1l2eQV1ZX5ak70tQmkJQat9emNK7786pBUoqL6TNCbimu7cVDEfL68IVmzG0T1vhbOGIgerqINYUVCLZ7ULXVqn4YeE6vD3nNxSVBVFZWYWtJQGUV1GEDaHKXwEjVIGs7i60Hd4d+atzUPDDYng9qejdqz9GjxqG9Ix0lJZXweGie4ID+YUVSM/w4buvv8WGpR9j7Mg24rqSqGZiveEYQ6KdwZZgpub+M5kLySF5mKPKyUgE/qAVvGs5V1LJWTN5YJ2hAnUFOlonri6ppEpFsKOmsKya96l5+tlTmugFLIp7K+sBP2NAsd4I/H3dOjQbXjCigL4oNRLT/WFEaYAfNhUosSoJdUp0BCST8HhjoCRvSQew2oBGvb34VvM9buvftUDOug2tb1Oeehpd2rXDI1Mew3vvfVRDfxSvU4pbJzGPAGHHVYFq/P3y13HN+ftjn36dUVbpx09LNuKXlUXo0i4DE/Zph7YtkvDG7F/w48IibNlSic155ajwB1BVXY1gmEUSytEm3YNKugZUFcDpMpHVoj3ate2BVlnJGDayLwyPU5ISbthUgpDpQFKyF5XlAbzzzHUYP7IL9hkyBFckCgeoRaT9kqJLJwoEtuVEJTcVv25VyVQvIlJ2Kop1oyLcLR7Uf2znqTzO1GlZAcHKo1FuVhco7egpMdDR28KA1xvv4U3AYi0y9cz4LaTyLKlPY35LjVNtYntjawpQYn8ocnudhhQOIFNy1QClugBoW+PYHjuyh5noA0SDnrwLRPDoU8+gU9tsTHl0Kt577+MaoGS3pllpSfSLtN6zw6Co5kQw6Mf1936M8kAAD1x/FBb+locPvliOzLQ0ZKeloHfXVLRtlYSVG/Pxww8FyC/wIxyM4Pd1BdhSUoZwuBITRvaG23Th6x9+hCsphNadu6N9dhJaZ3dGcrIH2W3S4PSxhJgTq9YUwHC74U32Yv3qfHw16y7sP6obhg0bjssvu2Tv1inVZgk6NsmWSMk649SGZG6h2Ibk78loqDtSTTEpFdaxI7iwtn80T40CSCaXi3pX67taRhwBpZ10ZJQxSmmf2FlN0HRKCESsk3ymlACywFBb4pSaSV3He+nxNbWOqclAqbDQAiW+KxPOOkBpRyCkv6+LPVMxrOZa56iofTd5DwSlp59Dp7ZZeOiRxzH7/bk24+l2WBJvp0GJnkuGUw7BBb8X4YFpX+Lkw/qhIujA94s2okPLFHRv2xJpqSYKtpYib0s1ygurURmIIDsrHT8vXouKsipkZ3nwt7+Ow6rVW1BaUYLCikKsK0zCoL7t0K5tmmRLCEYC4jyanOpDaVW1iH5U7q9Znovl3zyJEf2zMWw4QWkvLUapqSzFFsmbZNt0NZcAXy/RPeavE9ugWvejzOkalHht/UFJgMAyvcaov6oYYfmyRQGOsVXbEgO3tRE08NozadKsyz5uC5h4raSZqCW+Kh6g5sPdpJ7eTQZKmilJ1ePaoBT1iq/HqaR8rW1N/HjUHEs2AX2POlMdK1Dq2LolHpkyFbNnfxJLW8L3JkvSArjoX2Ns2VrFcIZD+HJZIRauy8dnc1agfYtkHHP4AHz21TqkuB1o08KD9tnJKCwtR04u49wC2FpShXYdMhHwAN4A0CIzCe27ZKMiEIbP50JVoArPz1yMdm1aYNjgzpI7yXCErUR2JkMTkJtXhspwCBXlfix8/0H075qJocOG7706JbIBVp6g2CZQYm0++7vXWRi3xQxE5AupAjXKM87Kv23pXuoDHgQMf0CFk+jbRE/ROD2EUgIQlP5IyAd1SuEQn6P6qQZswO1WFXDtTdckEx2Uhtq4+VF90eErf6Q/2wLQnfm8uYOSWld102Vt5GRQrfChegBYbVO+iSlRUJqGDz74RLyuZTUKKFkApFWkOiGYLQOB9MNh4p5nf8GPq/PgrA6htQc4/eQRePnVBchumYIWGUno3iEVBYXFyMuvQrgyjM35pQgludCvf0fkbypGdnYqOndpjbDDQG5hJRYt2YAtpX5kZaWiV/fWaNE6FcFgAPTPTE5xSSSenxkvnEn4efFK/P7pk+jTJQP7DB+5d4JS1NoUFVO2tRW0KBZfdYRXK7eBmsn6LfZhy7O8o00moORnndCaUKSd7uI/p3/THwEBDcK6IEEMbFS6W6czpiNjn+R6jlFCT/TGsp/qyo+FgEZL5B/p047mZkffNzUoKZeACJzMme4w4BC8j82jPmVqVHCPO2pqexGpX22PudtPsClPPYf22ZmY8ug0fPjhZwqNtAZCpbuMlV2yg5JOoxKJ4MbZv2HN71vhLKuCz+lERiSCThluLF9dKE7C9Cfq2TULCAZQUlyFFslurF5TgHUlAWS2zUSXdq3EN2ufIV3gS/WhpDKA9z/7DampKWjdiqDmQ8u2aTDcTgSC9MdjuhcDYRqNXF5szC/EN68/gB7tUjBs+F7o0a0BiQpKeqxur6kQi9obTinF6QEd/3t9fX1OPf1cDUrKwmLvTTwQaGUznTb/SEljEQsFbOz6r9gGcBGYXFZpaKsbvDbOKlezyq71b4fhhNtTG7h3BCp/9vumBiVHKAJ/JGyBkiPq42XVJbFSkEhi2uhQY8LTjkdfU9Fd+xcmHpvxAtq0TMMjU6bho4/+py5hxksKgdoVQesA4s4UglcE5REnjp36hfymVUEVurRqgfKirTDzC5GclILy6gCqAyF0atcCGRlOBKpNdEymOd+PgjCwtrASvTpnwKwKos+AzvD4nMgrKsX3ywqkWGVmshtts9OQ2T4TucXlqAr40bl9JjLSPSgtqxJ9li/Zh9nP3IRe7VIwfMSovYspxQBJRcNvu8V8keKVuTSdUwkd837mPckSmJqCYt7OAJJ+vhYh9b+V9U2HfMi5Ge0q09f+GVaiFPNhm2I+5tVHAHZtE5jsVjk7i1N9Y58UY2o8q1xTgBLnj3GEXrcL7lAE1ZEQHB6fGncdS4qz4azlDLBjQKrfFSYef+ZFtMpIxqOPPYE5cwhK+j2pA8aUCgFaYamMN1JY1KRhxsSCXD/+9eZ8BCMm2pQZaG1EkOYE0gIRBEpKUcW17XEBgRBS05MQjjjRpWUaPv1pFQrLQ+jVMxvBSj86tnDDnZqKNh2zEDbDWLCiAKbTicItBfA5DXQf1BObiitRsKUUA3u1QlZWEnJyCuBOTkJSsg//e/Nu9OuYIdY3qZDbSOuoSQsHKECiZYkvw75xtI4ltgy0c6Te/JoRRdOZRBmS2pzcjFSCN4RTobbmkaHUaiY9yf88KPG+HEvUYih6BSUyKO9t5fJgB0kVhsJPbA4u0bguNQ+xeWscYGoqUCrIL0Cy1wVH2EQgEobDQz8lZx3B22qlaY2dFoTt2GU/evTxU//ZM/H4sy8iKy0Jjz0+HXPmfBZbgxqLtAgnTNyEKX/ceOyVj3HKYSOQH3Th3nd/xZLfN6K714cUfxhd22SiSwsvzGAQBUUB0G2gqKAU6Wk++KvD8CV7kFtYgd/WF6FtizR0apuOZK+BlAwf/EGgdZs0bNhYiNQW6Vi/YT025hZj4LDB8Bsm1uYUY0vOOkSCQSR7XNhalgdfaiuU5nyEkQOysc+wkXuHR3cMkGomBK2972sCkmzDKLugDkltTEWt6TekAal+Z1t9riJY2P2e7L/x0fzsrKevwQ4exuewRJACXVXzTbG+msCkdExKlIuZq2uSTcUaVbCyAvSG6ee2htFkoJSXj2SfG86wKeKb4WHsmx2UGJ+vTJfUMykrqilpSfhv+6yEtAHBqiXIsbpsajx9INbNwE1MffYltEzz4fHHn8SHwpQsSKO4bitdIiFEBgEygvte/B8+nLce/bu3RVLbbDgiblSWh7Bq6SpMGjEQa9bmo1vbTKSmu7FhXT42bCjC5oIyDOmZjeKtlSgtDyAtMw2bt1ZIZoDeXdsiOcmB1q19IorREhfwm8intS5ngxhYeg0ciNJgBGs3FWNLUQnaZSehbbtWWLYmD/uN6IF3n78dPTskY8TIUXu+n1K8Unv7u5QvjYyHYoy9MeqfubHtIjnvS0tYTXGnPqCzo2u4+clM7DoFvSgZPEuldEM0AdsQ9UZBK/WqEH5R2nIe7IyJ1yp2VTv9fM2+1AXsDdHfmvdoSlBK8XngjJioClN82w4oSdraHYMSTzjWbtw58d8CpWQPHn/iqSgoCZCJxGbTZUkuJabdAa5/8n9YsbkMuTkbMWLCcDgZDB7xYPXC1RjTpwdWrclFVqoL1dURyb3N9CwV1SF4TCBYFUSFP4gWLX2oDoXg9iYh1RdGSpIPGZmp8LgdSMtMgsflwqr1hcjKTkPnzi2Rm1eBRas2I+xxAh4P/AgjPSUV5QVbcPABXfHmjDvRMTsVw0eM2LNBaWc2ktKLqFPevjD0RoxTapMheWqDV0NtPIISq2REM5va/IWoU4qV8m6YJxKUFNjEdEWcA6VjirkLkCXFsgls/9nKKhcvBjZMb2N3aSpQYo7uFK8PjkhEgZLXA5folP7YYeESUSsGIPUHJgVKGcluTJ02HR999AUiIc3i490MVLB1BC7Tieuf/BiLN5ZjU14RfF4DPft1RktfFvLWbEaSvwqhrUH07J6FjLRUzPl0Kdpmp6BlejJ+35yDQNCDVj4vqsqr4U7yoG37VKSmpKOirAIejw/edCeyWqbC5/Jg6dINaN8xC55kA5lZySisMrBq/VZEWAElEpYy5mF/GMccNQKvT7sWXTtkYvjIPRyUZPkS3UMxf6TtbQwuBopj9k3PxaIdLOOIt+h36DNUfw1AfTYll2aITEl0Slp/Y/3SNCXLYUOCEpXqdEmwh5KICOFSpn57E4CmuLcDxa3EBrprFyqoz/h35ppmAUrMrkjjQw093M6Mg4yrrrZjJ0wFSmk+J6Y98TQ+/liBkm7234t1l+I1gPzyAK6b/hVy8yskZKZXz87wGC60SErFgh9WIFJRidG92yEjMwn/+3oFMpnV1x2Ex52OTVv88DlDGNQpE3mFYRSHQkhNcSGZQcnwoGfHFKSnpwCmC//P3nnASVLW6f9b1TlPjjubZ3fZXZZNLFkJAooK5lP/pyLBcEaEOxX09M479dTzVAxkloxkMJKz5Lg5zu7k1DOdc1f/P7+3unp6ZmdhQWQFacPOTFdXv1X1vs/7i89z151P0TYvyInvWoHbG2TzrnF2DURUNm88kaAUL1LQs9QGvezadDWds0Ks+kdw3xQulcy6on1xPaZbUNUxqak+vqToX2tgsty3PSZqCdye1w6UBJAyGbNGqjKByzzg0nBsvcxrthIFL1dG8foAkoxtf4HSsLAEuD3YxFIqg5JYhtPdmZeyeqwyENvLhzr3mArW8/rN2qvxOYUJ9VLuvuuhSa1E1nOtepBmi5JR4Du/vINnt+WIxzI0zmhCN3Sa3F42bdwFySwHzWnA49bYPZTG5/HQH97NUHgHRrGBQsHD+46YT43Hz90v9uJy6gSCTpIZG3ManbS31JPLxunu6WfVoUtpbAtQLOhs2xVhOJIinTXIJqIsXz4Xj0PnmWd2sHPnb5k7K6hKAv5het9kXanY0GRqvj3XfamkKDpkUU4tYJPg857Fh9Lc+toCkwIlSWNUeQOWzfRaWUpyH3JiIU25A5aFVL2Y9jUuZxVSvkov5pUYF+rY/QFKAuQD/QME/R6cBqQKpkyVAiWJ25T7Eiv1SFNuRrWDJ8dLHGlvr5d36Ur8Zu01eB2YoHTng8rirX5NBkUl8lQRSvn012+jf8SU37I5nBjRNMVMmra6AM01XmLpLJmcDb/Tgc1RYuvuF4mLUAs+Omc1c/SBrazbEmZ9fwK/34XXbaMh6MPnsDFvXh0dHfX0DsZomuEnEU2ybsMwiZwZbHe5StTUeBVTpsSu7n/oNyycF2DlKhOUVDbzdXjt15IA02IqKfdDJLlf7vVSFtN0wCRB79fKraq2lKwsvMXE4/G4/+rvkfFnBfT2EZBM9/Wlt/PXI4Y0dbz7A5RkDKKlF/J7cBiaspSkSVqs5QoAaBri5E6KMakGWquscuJKJsUqy382Lajp41NTQUaKJ8VSuujiy7n7rgdRfRxVdDiTNhcZk2pplLEUOePs2wknzWLaopHD7/QRHx3Gp3sI1vgQVRVJ5ASF0M5WIpHK4nYWCbq99AzEWL24lXq/j+vueh4DNwG/k7qgk7aQi3lz6+mY20JOarlE3jyXY8f2YfIFsbiz1NQFlbpuNp9VNX5/uvN8FiyoUaD0D8enZMaIykRu0yBT9SSZajVYqfOJwPDECeThvxbAZFp0BbLCE1p5TWirev9KUNo7INnLcaDJC2ZvgFS9cF5vC8ka4f4CpZHhITxOJ3ajRCpvcrG/HChZVtF0UFN9L18KkKZOV8GtX6+9Go+tVAElkTqyXlOBTdRqYvEcHpcNl0vnC9+4jeH+FAUhQdGzeJ1+ZjSGGNo9TEGI3mwlQj4vQZ8Ll0OuURR/7dTXuilmc8TjWeyaT9UhvbBrkLqQl47mACce0YmmFfD4PUTjwuOdo7YhxOhQgnAkpuqZAj4vyVgWb8hDNJbg+ht/xMJFtaxY+Q8IStYDk8VmFg+aPVzT9RqZxYR7xkgsV3BqjMoEJgmUv3rTc3pQmpiOXhVTenXnl/FabSPVE1bAVwC1+mXylJsW0nRuhPW36dy9l7NCX6v3/95ASVkoghRW+1mVwq0AwnSW0nT34uXiUNWgc8EV1+C2G1x44VruvvsBpb9mwdJUF1wC3Zt7Rmip9RPyOfjSv96GkYJkIU8oFCCVyTG/oxGXXmL9xp10DQ0RCLTg9zjxeVx4VDbVUDLuAa+dphYPQ/0ZNuyI0D8wwLJFc7DbS5z09oUq0ydV2eOxNA67jfaZdXR3R+gbjBJs8NDUFMDjcBJLJHE63Pzqwm+y4IB6VTz5D2cpVU8CE5hMV246M9o6drqmUysrJ+eofvgSSBSuoupU+itZhAJKuXxeWUp7Gvvwai0lC5Cs67SAWOIJU1P3kwHJGv2ewQ+zcHTfKVpeyX3Yl2P3Jyh5pV6sYJAqmJYS5TaTCtVItSsmW1+5aHJfiwamA6bp5ugFV16DSy9y4YVXcO+9D5XpSswv32OjLZUYT6Z4+MkdHHFQBw8+spuuDSO8sHOAGa0t5DI5nDadmqCL8dFxntvWTbrkUyKldV6nii05pZXIpuHQihzQ2cC85nq29sbo7h6gubGO7X1RlsxpIOgThZe8Em1taglSWx/guWd7GAmnaGjz4a9zMqO9kWy2QCZR4NIr/5OFB9S8BUry4CxgeilQkuNMi2kybYhlMQktiJoE5Zo1y/J4NQFf65yT6EyqVuirBSVJ+wsNaWWXVSyWNkZHwzzy6MPoTMRExMUTC0lleIBEKqnUXWW3F7ZFKSOVupeA34dUmJudDGbDr5moKzf/arBi5QqWH7jsVVt3LwVO+xOURDhAGnKTZfetJJLbe3ngVlX3vgDtKzumxIVXXoe9lOPii6/k3nsefsmPm8q8Be5+dDvRsQQrDpjDPX9Yzy33b2N2ey26AdHxKE5nEd1w0j0aIarpZPMGy2Y3sWx2g6Ic2LJrEPKwckGLArBIMkUurzE8OMZgNENDTYBZM+qw2wycNo36hgA2h86jj29md1+Mzs4OGpp8BGu9hOqDOGxOzv/1N1m0MPTmiSmNjIxwzbXXER4dLVf2lPcj65/yZKnepeRnKftX/yr1CWUvqTJ9dVzVwWZJoVlMqJoZ1X/NA+RBixWidqVybFPMVpHcMSmLqnz8qSc1mzvK29rEfFK0IYbU31pv6apnSX43x2DVRkkPg2hOmC/zGspnnHLNcj4rJmZdnt0hvUdxgg3t5vjVF4qTIe0kEIuOKg6cQF0DWc0gm85C3mDcXSKQKuG1u9G8bok+qJYLqQzOi8vr99Hh95LHoHP+bA5ZskSp977Wr/0FSlI86a0CJYdYSlNASeaF9WwVKE0pOftr7sVEWQpceNV12I29g5LF22RumiWyxSJig3/7+3ewoLaWXDTD7Q/vwOvWCHq86CWNcHQcu02uyUYCg0yxSFNNgGOWdzCzqYZ1W/ro7R/DW3JSV+8lmysQS+cU64BmsxEMemhpChD0u0glkwyPxCnkheEyS3gkjtdTR0NbiJo6F75gEJfXyeVXfZcF8+tYtfpN4r5t3LiJj/zTR5WCh4DAJPAp89tYIGQtYAU00otkLd4y6Zm1qCu/Wstcncf8tCzgqeZ1NShZQDT1OOsz5vhMorVqADTfL7+r3p6AJZNUrTyzS3pZVcQcbQWj1HnNTqvKd00Za/Xf5WiH18fnz/5OGdSKRMeGGBraycy6RsJ6mrTmZPGcpRR0u8rYifqcpLFT+TyRfBpftIBQduWQtpgSNXV1uGa14ahxc2DJjZ6Jq4bRapnxv2ZBVn/27wWUVPGkPIRqmmKrQtt6xlK4+IrbSPa8U5Pje3CBWEpGlksuuYp77n6oYt1amk6WTq6qFNB0btjWxcZwhI0P7EbfFGbFrDYe2dBLMZPByCTw+ppxBlzYnJrKMGbyOVKFAslUEY9DY3aTG6/HRngoQy4N8VhSkf9Lr2NLaw3ZdAZ/wKWydjZN+gFFvDNKNmOwYE49QY+dnv44w/EEjS0NqpTA5XPxxzt/zpy5gTcPdcm6det4z3tPqQCG9Sj3AI8qwDLBwAQXRaukq+U9YSKV0csCEHWcMOOUqR9eNSiVrSwFL5PGU20xlcdVQVfT6jKNGdOlUvaROXAVfDTHY/5uAed0ADoVlHSHiy9+83tl6C0R6e8i3r+Ro485HldTDX2jMSIZO1pRZ9xZwlk0GBiLUHTaGXPb6Gr0UHDo2FNZ5oykOMAbonl2O+lSgZDXxex0jiafVPkGXyssqpxn/4KSC71QVO6bVi4HUTNoSsNtNT/e1HjS3gLae0ss7Hm86b6RT7F27bWqeHJyHMkUfBDBTKHtHcpk+NkzL/DC0Cg1XSWy66PMbQyRKerU2E36mWfX7aBj/ixisTixSExZzU6XNNnW4CgZBHwazY0BnDYvvUNj9A4mCLihKeBRcSPD0JX8ksMpSR8bNt2BXddIRJLU+dw0NfoZHIuTEQqYeAq/z4Vhc/LoY5eyaFGAlasPeeMHuiX+8Ze/PMY/f+KTZaujyl2qshIsEKoAlumDVT5jgU4Zq8p9Z6YJbv3H5PfY01KqLHRx2dUhEy7UpCD4NK6cJQIgMR1x0aocuskCAZpe2YjV2ZW7KP+a3d+V7zHR7mUtJQuwDF3ny9/+oRqxkUsTGdqBx5ZmzZLluIMS5LSxO5xnVz6H3dAYiETIGSVeXNpC3fZR8sPCm6PjMjRcoSDawbP5oLuZfDKqKDv8pRJzA/43NSjZxKWWNhPlQ0+2Ul9LJJ4auJbnLqBk5JKsXXsN99z7KJpk37QJMcx4zmA4kVYxwq5whOs3bmJbOEp7v5v07hjpsbQCmLbaNJmkTtHlRtz6XM6gq2uIebPrmdNeTyqRVUwAulFS2TSJR0pxZfdwHHexwLyOZoqlLC5vQPFu24s5RAlYgK2pxkdqPEshk8Ef9BJNJfDUeMnrdlw+L1u7I6x/fi3LltawcvWbgHlSArDXXHMt//lf/2VCQdn6MMM5Fhf1BPhMgJJYs2WXrOx4my5YGamsf8qWlElrbRJnTeu+qb9PxJCqLbFqy012weq2lAmXzuQnFBdoqjVTNn0qrqYJXDIWsZBMGfGJkMVk17J6rNXuoIWPEvv6/Hnfw6Y7KabjMLKdnFZEyoSXds4nK13hCehz+rESDz1TAAAgAElEQVQVSnTnc2zrqCG3pQ/X9mG0XNakxHC7yL1tKcacWmbqDk5M2bDlcjg1gzm1NW9CUHKi50skC7myoMTeCf6mgkn1fDBxbB+bcU3Uq4gDyA+WpXT52qu5996/KEtNsmVyqDS99icyjCSy2NDJY+OyJ57muV09zE43kuuOkhsvkhwbx7DtYt6sw7G5bHjsIkGeZuOmYWY21zCzNUiuUFSlANlMnmzWQIBYOKUk7fHkxicJuoIcvGwZ+WyBreGU4gcfjGeEGw6/Q2d+vY+mgM6WgREiiTgrFy9S7SbhbJ5IXKd351qOXNPM6jcD8+TQ0DBnfuYzvPjCC6brUuUFifx1X18fTz71FD/5yY+54IIL2bFjB6FQkG+ddx5f/8Y3Kz2vJiBJrMYKWJc48zNn0N/Xz9NPP0M8nlCie5OK5IC6ujp+8qMfctoZnzEtpCpgkmM//vGPsXXrVnUOeV188QV88xvnMTY+Piku1blwAZ/+5Cf41re/UwE9mVzvfOeJagyiO799+3ZGR+VzOitXHMRzz4vyrgQWfZxw/PHcdde9JJLxySUKZatpMhjKAjIXQtZu8KWvfkftcMVMhPyudYRqghy6bDFer4fRsTgPdw+R9taQjxcZNQy6l7YwXGdnVC8hEpx2If4aCJOtq+Hg5/qZ945VzHK48SSz1GcyzK0LvQlByWWCUj6jLAtro9mbS2aBz94s51duUZnP74Irr0XPprhEQOn+x0gUiohEk1+zkzUMeqJxRpNZ3LoTu6Zz2e+e5NGuHvw5O3NsATY+/xT1rUtoavBS4/cpOXKtmCWfK/LMuh3MbQ0wo6WB3d3jFPMaXimkdNmkGBuvE0pFUWku8fSWXUQMFx6/n4JWwl0ySGfSxLJ5cnYvTT4n/sI4M5trWTy7naZWHy63h1hG45n1PTzy8K844ogOVr8ZhAN6eno44YR3kkqn9whyz5o5k7PO+iq33nob45FxauvqePqpp/nUJz9BX/8A4+Pj5LJZtm3fzqc/9SlOO+3TyuL47Q038KMf/Zizzz6Lrq5dHHbYodx806088dTTZsSmHCCXY0X6+pKLL+CU933QzNuVC+dkkh5++GGcccanGRkeZfuOnWQzaU499VPccONNKitx8823VJRMFi8+gAt+/Su6e3t4+KGHWb9+g7KAmpub6enp5cgjD+ePf76L7Vt3qJKYQ9es4YmnnuLuu/6oQMhmN7W7BGXvuusefvKT/zMjT1UsBtMuCK3EqWecRW1DI9nR3QxseUaZ6IesWkZbeys7+kbY7A7gcjcyFk6yJVDEyBSx7+wngk74/Sv4nL+NH2jjHL0zzoHRLIGV80jabLTnDAr5BIf4at90oCQV3XqxqBRiHUphZnq2iGorybROp0aWJsNR9TOaakHJ78WqTc9WEkvpWoxsmssuvZIb77yXP2ztx6bpLG+uozXoYziSYTCapNbrJuT2c/WVD/L48zspuDysmNPB85u20bloJqV4noDPjtvuUP8bjyYUi0CNx8bS+Y1qbmUyReXWDY9GmTezif6+KA6XQdAfIJmOs2U8x/qdw8ptw8jj1DQKmkE4llVZakc2zqIGDwcvnE1bawMFG4riBJfOtTf9gBlza1j9ZhAO6Nq1i6OPPnayxVN+zlbl8+c++xlOP/00tmzdSjQS5ZhjjuG8876lQkQCDnfdc2+lTkfE8GbNnMFtt9/Bv/3rOezatUuBmrh1klavqa3l9ttvpqamRsUPLCI0sWqkWVNeN954Cz/44f8oE/dznzmTTRs38chjjxEKBrn80ov4xrnfRoj6e3t6icaiNDTU89F/+giXXXaFKpqUs5z83nfjdjkV0+PSJYu57oYb2bFtJ5ddeiELF0oZv0axUORdJ53CBz/0Pm677XcsWriAD3/4A5x77neUCT810D0dKDkdGrfcdgu/u/cJBjc8qap9j3v7wTz8xJM89vgzHHLIGlLzluCkhr5sii32LMWRJK4dQ2z/+OF8zV5HwObgi+4w7x4qUf/4Nua8+3DGHUVm5YoqTnWI/00IStJ2IZpluXzFUtq7lTShTvuqRB/KmWKznXYifmiBUjGT4LLLr+YnN/yOP2wYxMgYhHx2Dmypxa3ZyWSLBDxOvD6hWNH548ObePSxLhyjRUo2aJvTjruYwWVzMzg4QsDvJRHLMDocIxweo6WpjoZaO30DXSqjdsLbD2FGSw3X3P4iO4a301q3kIMX1/HnF4fIJFMUbU4MtwMXRey5ONlMhpS9Dq1QxFOIYi/lWTRzBkvnteFxOGjqqOW6m/+b2fPqWPVGt5Rk59i0aRPvOuk9qgajIm9TjhF95ctfor+/j9/d8Qcuu/wSzv/lr5gxYwZen5ftW7crCtNcIa/A6m1HHqWslmAwwKpVK3j88cf5wr98ntbWNqLRKM899zw//enPGBwcrASSBWRuuOFaWlpaeOzxx/nKV85WjYfKktJ13B43Z5x+Gps3b2Hnzi6SiQQXXfQbzvjM5836KMNQ1lp7ezs/+P73uPjiy5SiyMjIKGsOXs0nPvH/VJGiHOvzefnil87ixRfWcd63zuXpZ57l7rvu5uGH71OlEE6HUzU6ChA++ODDfP/7Py7T207s4NOBkstp56orruSBP91OJBHG8Dr58IknsGXLFm753Z84YMmB1BxwELlSgCF7iZ6hIfqaAhQ29RF9zzIuMFr5kTHOwqLOE1qKVd1JbK2NdNbV0RHJ4Cimmdn45oopSe+bVwppxVLaKyhZcaLqSviq7O5L+GuTrKXycRLTnMrxLSUGF111LYVMgksuX8t/X3UH928fpSDikA477SE3Ia8Hu25XVVP3PtvFpr5RxZ/lK9nIbo0y2vMIiXyS1uY1LO+cRW9YWAMcZNI5jLyhqrzjqTxZY4A6n5OjVyyjvbmRm++8me6xLG7XfGY112F3JtjQaydPkra6ZnrHxinq4DMSeI0EmVyGQskNxQBoDtx+FwXhLiuVOHJBOy+uu5SFB9QqiaVzzv7qq1LseeUuMLzmLAHSGHv9b3/Leed9e4/gsMR3hHvonLPP5oEHHuRzn/sss2bPIjwa5rTTz6CttZU1aw6mtaWVH/34xxyweDGf/MQ/MzA4iNvt5n9/8lPOOedr7Ozq4q4771aW0chomLwIR0pZgGStvvwFrrvuBi655ELO+urZrFi+jFtvv0OViNSEQrzv/afwTx/5MOPjEdauvYITTjyeg1ev4ktfOostm7eweOliRbI1MDCoWhWWHriUOXNm8+gjjykQEpoSSc3KJD33m//GxZdcpkDpwgt/TV1tLWed83UuuuB8vvTls3jniSdy5513M2/eXA44YCG//OUFal+VcVotJdOBkl4qcPapnySZGOPpbVsJtTVz9BFr6Osd5JGHn2Tp0iUsWLSEPsNN0uEm2TXIXw5uZ7zRyzl6MzNiWf7dMc6hd21m9nsO4ybiLCt5eXfJxWYjRcAo8LZg3ZvTfSsUSOXy2MoxpYn7q8rap1kjrwyUBISq+mvV+aprMGVBX3TVdQqULrziGk756cWMDxew50s0elw0+900BX143W7GMznufGYrW4eGKWSLuLMakY3dpMMboZgmm3OrzF1d0zw8TjtOR4jWxhkMDY6SSKSZN6tZZWJf3L6TXG4Mmy2L29tOfaiW+pCXkZFeBmK68h7cthJp3YHX7WNRgxdh1uzp2U04O0i+VI/bU4vb40Rz2bG5HATdboa3XMFBBzW88UEpmUzyxS99mfvuM/Wupi46mQJihSQSCb797W/x6wsu5F/P/hq/OP98VQh42aUX8clPnUpff7/KZh133DF8+1vn8atf/Yabb7mFj33so6pKfObMmWzctJmnn35W+dZScLnsoGV8+MMf5Bc//6UKXn/5y2fx/vedzO//+CcVh7LG8/nPfZb1GzbwyCOPcNyxxzBnzhxWrVrJV79yNt/9z39nzcEH8653vZe6ulqaWpqZO3cuf3n0Lxx77DG8//0nYxQMBYIzZrRzzjlfJ5FMEY/FmTd3Lmd+5nR27upSVKy1tXXq+kdGR9i4YRN/+OOfVUPtdEBU/TfZ2/7jrK8w1NdN8/zF4NK44JorOOikd/GxY95Jg8PN1s0b2Ly7m7yzjpFYnoFcisSxi/godbywtQt7exONRZ1CnY+NWpqVdh/+bIaovYQPONTlJxh689QpjQwJHa4TrVAgkcliV3VK1U3Se4KSec/3DkrTQZj8bSooVWfu9FKJiwWU0gl+efXVHPudC9ESBdyajTq7gzqPi6agXxUoSlTnD49uZkN3P/lciRA+htb1k428QJEMuUQau5bGpgu/thunK0BH6yHYHDaV4BEa5kLJoH8so5ptXVoJu9ODz60pme7e/t0EPLWMxeO0tLSp+5FOpJnZ4CPgsBEeS9I/FmYsNY7mqMHvD+IOushJDZXdRmrb9axa3ciqN7qlFIlEOOSQw8hks9PWKAlZ2ze/+Q1eXLeO1pYW7vjd7zn3m99AguMySU444QRlaV1++VrcLrfKdJ1x5uncf/8DXHHlVeqcK5YvVwHrO++6R7lwPp8PCUp/+rRTufjCi6mprVGxJ7HWOmbOZMniA/jd7/9AV1eX6pX79Kmnquzfk08+xTlnn8UVV16t4kniVl5w4a+Vu3fuN/+dY459OzU1IeUKPvDgQ6TTGZqaGkkmkmqsn/3smfzyV7/hIx/+IP/3f+fTOX8eTzz5FLpdo3P+fN5x3HE8+eTTZHMZ+vsHlQU2tXRh2pKAUp7TPnAKvpCflUcexR9vu5n7/vIkngPmceJJJ3B46zyymRRODDZu7SVhDzGQSHH0YSu4wBPBYbipzxcZs+t4dY1TDB8FXaSH8tTbvATyWRr9UtEdeDXW9Ut+Zn8VT46ImonLpoon49kMDofFm24Fsae3kiaAaeKyqp28agDal64UsZQuvup6cqk4F151Pe//7gXoRVS/mVd34NI0Ql6hHnGiOTQeeGIbT27YTVFzEO+KoccMcsktFEpOnEYKTUvgo42skSOZ2UnIP4fWjuWgZ8hns5Q0F6m8jWSuQMgj4psOXE4bjSEPm7Y/TX2gE7dbZywPIbeO+G9iiTc3eOkOpxlNGWQzo+TTceqDzSxf0KaO3dI7QnzX7bztsKY3PiiNjo6qsvRKwVp1caKmsXTpUg5cupTGxgYefPAhduzcybnnfoPvf/+HyhD++c9+xmc/93lEIWTNwWs48ojDuf+BB1XMSSaQZMvOPPMMrr/+BpqamtR74saJm/e97/+Ac7/+b3g8Ho444jDuve9+tm/brrJmhx56CL///R/x+X3q58cffxKvx4ME5RcvOYDnn31exX7ENdq1azejI6NqE21ra2XRokU88fhTHHvs0Rx73NGKLVOm+oEHLuW8b/0HiViCnr4eVi5frrKBPp9bAa2V/UmlUzzy6F946MFHpqmnMksWJqrBwVEq8LlTP8bM2QsID/XywP33kSlqeOtDLFjUSV19HaVsEVchr/TCosFmHM0tNDbVM2ov0lF04DWggEbYo+EplpR1JzUsNrsTdypBi9/75nLfhobxuOxo+TyJXNZkbpyGTqZ6E9hb1m0SEFXN331BcGn3uejKa8mnk1x05XW8+99+RmPIT3PIoxI3qUxBlQHU+M2CyJF4nLsf20Q4miO2NUl0KIy7kCFTHEQvJCnixEUOv95BrNCFZjTg8Xcwd24DNptHeRyJTJFRCWanMng9drxeh6I22dG9i4VzDmRWc4i+sRhjyRw+p506v5NUJkb/SIyiM0RSxCfScbx2ncM7Z7JkyQzuemILzz5zBccf2vbGd98kGHvCie+qPL+prsrXvnaWqu05/vh3cPfd95DJZGmor+eee+9h4cKFfORDH+Jr5/wr9fX1/L+Pf5zunh5uv+13SrFzxfKDFKBItm337t2cdNJJfOc7/6FcMwEKsyO+RHNzExdfdAHvf/+HyuOYqFVatuxADlq2jL889rgqDbj66mt5z3tO4rZbbicai/Hzn/+Uf/7kp1WhmQDh299+JHNmz+VPf76LTCZFNpNT2RKpqzrnnLO45JK1vPDCiwpsDlmzhqeeepqTT343s2bN5DcXXKRc1ZaWZhUol3HuaSlN7otTAy7kOfTwFYIqDOzaoVy+ZDpLqLaGw448kkBdHcMDA4T7egnUBAlrfkr1Ido0J0Up1HPqeAydpFHkRVeeuUWZ2OC32dGMEvPnz+ZtK1e8CUHJplRjk/m9gVK5QalcBmA1S1fT0QpQlar75fYFiaqOUTGlK68jn07wm7XXc8p5vyDkcdNW48XtcFBQ7SXgFuUd3cZ4LMUDT24kEdfofWEniXCUOS2LGB5fRzKxC4qdGGylwTUXW8BJqVirwgpzZjcTj6XY1dNDMq/hcpYoJbMUCnHihRHlgjmdi5k5o45G7zgOh5d1u8PU1bYxv7WGsdgw3QMxdG8dQ7EkxZLGjHoPTi3P0hmNLFgwm//95dc5anXzGxuUBBCuu+56vnnueWb8plw/VO1zv+O4YwmPjdHR0UEsFlOZtIcfflh1vh922GHkMlnuvuceVZjY2bmA555/QdUaBYJ+WttaVIB6LDzGySefTMfMDn772xsRRoLqmpRQKMRnP3MGP/nJTyczAmgaRx/9dvW94vaddtqp3Hvv/UQjEWV1SRHn6WeczuVXXEkpXyRUG+K4445VGTtpmxHXVFRNamtrVTxp4YJO7r3vQQYHBtTFzp07T5UrnHnmaVx++RXKVTzwwAPVrv30008rSpapoDS1REB+F/BLJKNmtEM4po0yj7OKqpq/m/8aardNZ/PkC3llXQroqLiHMBAoFgLhCzBfmtKzh89+5rN89atfIRB4E7lvg4OKvVETPbR8blpVYasHsTq6JNlhSwlmavnAdOUEL1fprdy3q68nl4zz6yuu4cwfXU40mcOulagTOWyHE6ddark1pEg/Gc/w3Itd5HIOnn/kQTRHEzNbO9jV9RjpRAxN7ySXe4pgcC7zFq4mkytR5xddNxu5VJ5UJsNwLIPbbicXTWErZNk19hSG7sHhPwSPJ81Y90MEAvOxeb3UNLSzekE7kcgYz2zqo7axlZHRUWIFg/bWBtLjw3i1AkeuWcWdf/oZy5aGWPVGVsiVhXDaaadz3wMPqkVgbjjT972ZNY1VRWtWK0qlS78cgJT+MnWa8r5WpiMpp9sqZ6gGJQEBqeoWsJpqqcl7MrFkrOIGJeIJZWVJTKloFKtaYqoq0cvtLNIcaWbNdDPIWCgoihXrGoUuo1CQznwTBMR9cLncpFKZSrV2NShNWzgJJFNxIir+ZNDU0MSJ73oXHqEZEUtQsQ2YZCYKfEolkkmJPZj4a4KRXJ9ipFacUwLkTzzxJL3d3erz4h5/9ayzCL6JQGl4cFC5pwJKiVxGpdAn+NnNB2LWE5ntP9MFq6cWSe69xmnv5pPozVxy9W/JJGJcfOW1/MvPrlKgVMwXCLmdeO1OnCJokCtRTBbJJPP0DESUTt1TT79AbfN8Rru2MNCzHd0WJFQzg5GRx/H5Gzno4GOIxdN4XQ4kPOSzaXh8TjZ1j5JM5tCTebyU2Db0ArmSl6JrBo22JLH4bubMOwJfwEldQ4CWGge7u3rZ0pfCEaglFRkinitR39KIkcvhLiY5dNUyfn/r91izcgarVq56Y5YEWK6T1DTIIrBMpWrgUX1tFRqQyVW0agJILdGEWVWOs0ywJFmNt+YhE31New8eT2T/zB68ydlAs2fOGmq5P60yLOs9q/1j4ljrc9VBUjMmJGUJU8Oh+9L3NjEuiXOVhA9J0trFAqGWVg474lBcbr+ydOQ/qtvPLvoT4uoJCXxWEb1pRpGccDllsqoeRe3qGqqEYdPWHQwO9lMqGBy4ZAmfP+NUli9Zsgfdyyv0VvY4fH8FuocGBvG5HWj5QgWULPUNax9T96vywF+6irvaun8l90RiSpde81tSsXEuu+Z6Tv3BWmW91ridqihRHojUGkVHUsRH06r/LZ0v4vY6GU8V2fjiTratfxGbrYaahjqCNfXs2PQQoRovBx/xTvpHxkinczSGfLQ1BBkd3sGOnjGc3mbSIylsxQQD8TBZw43XV4czm6TWmWPJIavR7SWam2oYHuriiccfR3e24Ax2EI30k0jmCLbPxOe0sbC5hkULGzn//87m2MM7WblqxRsXlGSXnjd/gWlNKHa1yWX+k8CjiiJE1e5oZZCxOrrldzmLOs4sVrSytya0TbAKTm0nqOxwVdaY5UpOZ6KrcZU7+dWOWrbKKmOyeAKseVzF+TSJgK5k8ihNxEatGMb01uLUsYh1Z8jOJUIEhSK++hoKTif5UhFNgtXJDNl4Qq0Ru9OmiOwkgK1qZ/JZdLuDQq6ITStQKBZUbZY9GKQYjeFwu5G6dLvTjd/p5KCZbXzqA6ewaEHna6qRt/9AaQCR7dbzBeK5jFLjsFgC5D7LHFNu7EsFritzb++A9VLWk8x7cd8uu/ZGUrExLrvqRk4+63z1HPxOOwJJoZAXv9tBMpolPJTAYXcowQOHTUe0Tm+/93HGRyKkEzYWLJlFX3cXsZFtOFx22tsPxrAXSCQjuOw6Pk8zI+EBRE1nxqw5jA6M0bd7MznpfbPZCDTMwa1pLKr30b6wRSmV+LxOtu9Yx333/RG/p4GAfzaRdBiHzU/O08KMVumDa2LJoha+/53TOe6IhaxYufKNCUryvIeHR1i95pBJnUTWQ6wGhamxJnOuVBGsKTvIZpIDWJZMBRDEkzOZBMQEF+iaFpQsNZ3yCaa3lCz+pLI1ZumDyeSs4nJSoFXliU62zEw3s5JB08sAWhbcnM6Kq9yTqrG1tDbTMbOdZB5e3LwRrZAHn9u8NkE6sZKKBkURVigZ2HRN/S7uW0ll1wpo0jGezqqx54V50tDQnU5KEpwXFh4BW6eTloZG5ra3cODCTk484QRVp/VqhQ+mWhH7C5QGB/oJOJ3Kmkxk0+g2h2KetOZVJRa0D9m0V+O2WffBAqVkdIzLrriJwz7wXwwNRWhoCFAb8jFrdg31IY/KwCWiGeRxSg2TxP+6huNs6hogFs9gz+mERwaJx4dx2PMUMzG8noXE01uwyaZY0smU7Bj2RuZ2zqOjo1nJdncP9BPueoaCkcYe7KS9YyFtdV7mzmmkaOQVi+XmTc/x7LMPq3PomujHeVi0cBVpPajYSBfMr8ft9XPpTwWUlrDijey+5XI5nnv++SntjVN2HYsvaQ+beIo7ZxGnlf8si68SwylbNRVHqeKCmcq7ltEzKWZVDSpV310FIcr+EhFLabqVU1q0pdJfl8tJdq/s6lV9nyXlU9mE5fs1VJbOHF95lNXhM8u3LY/j2WefZWCwV1WtSx+gBMWNYlHxbiurUIBJxZPK1mL5Z4kdKbdZAEt6/OQeGUUTrOT7yu8ro7VM/6LbbbS1takKc0kI1IRqOPzww1myZIlJtv9XvvYfKPURdLooFYsksmZrz1SO7uk2Q+tyJ+hsJ9xtq+p+uibcykY65X5ZoJSIhrniyts5/mM/oH8orhR1ZswI0NIYoCboxqHrZLNF6ZFF1HjDkRQ7Ewki42ly6SJ9u3opGQWG+3ZgI4ujJHpvTuLJbmy6HZvup+hrouicQeeCDhLhTcyY1UnOcLPlsZvQsn7ytiQ+zwoceoL6VheNLfX09/YSHoqSTIlcmNQSCqVJmoDUKK05lmBdHalMgmc2DxDbdh1HLW9j+QqxlM56Y7aZWA/x1czr6T5bzXusFEVyeeWyTO1cMmMnJgSpZax67kxvr/pYC8Sm/t1EnzIjki7VsK6yhWYiiQDiVNlu2U1loolKiopZKOvNjOOk01kTJKxduQqX1HiUezvBXjAw0M+NN9zAXXfdSTabVUWaJVOhUJ1P0bqWQc0CDjmuekFZ98oK4gvAKWGBMpibx5qILQvW5Xap4tSjjjqKz33uc8ybN+81ceP2Gyj19xEQwYRikXg6oyq69yYcoNy5KXxJ1aC0r/PXsqiqzyWBbnHfktEwa6+6nU989XyS6QyRMRF4tBH0ORRXtsftVBzZ8WSeofEMRZeLdMEcdzQcY/0LG1QT+nOPPoBd06j1NBMe34RWKmCUMjg9s3A1LUBzB3G5HbgDOkZihJbOBay7dx2hXImx1DpqfaswSBFPb8bh0ZWYgFH0UdKcaEKkXIpTyMWxOzx4Q22U3PUkcFByetC7b+Hty5tYsWK1Kn95NY3L+3ovq497zXvfXs0g9uUzYhWIzJFSKaliXjfjVybMGCpTJ9aDEK2VrZ0yYZeaQNUx6HL8QFka1TlCFS/S8XhMq8ECHPnZFKQUFVsDl8QBHDIFJwLgci6hHS0KkFg8UgJWMqYyqJjjNd1GC4jFEkvE46RSqcmyUgrkyqE0NfxyNE3kdIRZ8SXqaaoXXvWimXqvxVwXWlzJSr4Wr/0JSkGnW1kXcbGUJMNVJRxgUZS85Map3Pbp6U729d5IoPvy624kERnjkmtv40tfv0BldTNpk2YkHc/i97hoaPKrpEMkkWUomkML+pSCr8sBPd19eP1+HrjvceYJw6RK9esM9q5XZrhRGsNua8U3YzGepkYyuQJtC5rpfeJxRgt+XMlxZnlnsrP/Fma1n0KxlGZ46Fmw+cnamijpQUqGVIOXcJTGILMb3eYh7Z1F0e6mKHV4dX5Km2/hbavbWblixVugNN0EEGvFspSqQWnqsYrlz7KPqgLd01pi5Togy6JRMSoLBHRd7WYToCNgp5FTtUYo+lHrPWvTlQUp45RzWDS6puUmqhFlhKnEWi0o3fNqBSRNcC0LKZYtHLWwSpoq3nS9hpLk+7rg9uW4/QlKElMS9y2eEZI301IScBagkHtqyXa/XMzo5d5/qfsg7tvl191EIhLm8mtu4YxzfqOaX+26tL3A6GiKRDRLU4PPbDVBYzCSpjeeJpku4gs4VP/Zhs1b6No5yPLFHSSjOYqpIgObtmCzOYmnu9+NJM8AACAASURBVAh55lLQXWgz23AEQ9Q3BNm5dSexnU/hyxvMX3IM2zb/ntkzjkd35enpeoJgaBFxpxdvTYNZzxXeRjaZQS+MUDDC2GoXUtC95DQPbmcBx/gTHHVAnZLkestSmuapizukQElS39VumWXmTLV4qo6xrKRKjKec0RPAkDrECeLayf1RQqMiqdoJH3DCRav4U2owBimRs5H6ICtTWLkGM/MzMQarjrh8gBVrsvzNsns38XHzgEo8SzTnbaZ67kQdzr7AxetzzH4FJZeLUsG0lFQ9WllSy6rpqoDSHrRukuUtu8oq47vnvaq2PKf+XH30JFC6+iY++pmfExmRRINBY2OIkXCc8XCC9qYa2lsCuJ066ZwAqRnoHh6Pk8jFKLkKqt6s4HShOYJk4xnSO7px5HJE4mFq/S3Y9Bw94Y04mmdhs9eT6Xseh55Cl4C13oTdbeBtmEN4YJvqoasJdDA0tB7N1kypOIZh0zFcrWiZfvRihkwuQkkvEJp1FI2dKxh76mrWHBBgxVuW0vSLRxalEK1LUWBlkVYW9PTWxuS5ZUJSJcwjD1xpy5kgUT5rWQvM/KT8v2S5JMY0YRVNnMeszUI1H6uq67IApHxOWAskVS9/Ey9LWgosQQLLLbSuozr0NC27RtXlqTHZdMVq+ff42l+gNCAxJbeHUi6rQMkUKZ1Qkam2lKYKUao4XNkVlvesn6fGnaz7va+gdMWVN/DP//Jr8sUiIb+X2GiKDVsGiSRyeJ122pr9tLQEVJFs/+AYXcPjaHYHdleJbMhGvmDDCAZwZHRiI2NEN+5QvNuR+DB23cCBRr6QIJsLg81JyRmgZKvF76knaGjMn9/Bo8/ciqb7KZW86JrEkLK4HR1ksz1kjQi65oNSHl2mkytENrkLHT/LTz6NLff9msMW1rJy5SrOfiPzKf09LpS9jckMXhcolkndK8FnZZZMcGYLCIi7NFEsaQKTuGrSu6eqqE2oVLEk5bpZmTpMWRtZJH+NW/BGua/7C5T6+3oICSjl80QFlFTMbbJwwEvFkwSI5H3RyyvsxVKa+gyseF91ulkspbXX30w6FubStTfzgU/9D+3ttfjcHjZtHGLXtmGlTNvcHKJzbj1up7BHjvPY5i6SuTR+l6jQGOTaW+kOR6lraaCUKxLtGWRk+1ZcmQhuAR+85PMxSiWh7TFw1bajOQN4nG6Cbj/5cJL29nqe2PAotpIEsWfQUFugt2cbNi1IPLkJXXdQKJniAzZHM5qngUxkI5oR58Aj3svuF//ImkUNrFB0uF9+K9D9uixCyegVipVmXotRcvKOaIKNkv2uAhaZwMqdFNXcsm9lkt1WqbBqmupNE633fwRAkqvff6DUR9DjpCTKsEJdYjctpX2976LMLFZzWZTJ5N2uTIQpLVHlv0uMsaKBXD5e+JSuuP5mktFxLl97A6uP/y5LDmgiEc/Rt2sMt64xa2Ydc+Y2UBt04XDaGQ0nufupbQxHx3BLfYDLQSTYTCSRgkhCCUnmEimSY6OM9fXhwY5LD5LJZ9CKRUqlDHa/m0DLXAKuoBIQMBIZjHSaLWO7cZdczJg5D483y46Nz+N2+ognd0lYHaOUx2YP4K1pR3fXEB1eT3JkM/lckhpXhqOPPlgp5H7trLdA6XXBJOtLRCVCMnsWh7b597J+m8QYylaPuHISZDZdSZkMEzGoqoSg+WlNUxPOpVoL/nFe+wuUBkRdRjKmohKcyar+Mour/WXvfrm2TMWVygdL7lZ+tuJLU8sIJno6J5cXSPPPlb+9hVR0lLVr/8CCVV9VPNxyMnHpm+s8LFrQRGuLX4kJiGptOldg465BtvcMEo3HKTQ1kXA7cUotU65AemQcj8NFPh5l24YNOLNpapy1uB1+igWpTSuQNeL4mucoYkFbwSCbjOFKaawb7cfrdDF79myM4jCbnvsjDldQOGAVBa7EM9zeRgJ1HRTzSSLhdUSHusBWxK9FOPrtByuWgLO/9pW3LKWXnUiv4QEy+aT7XywfSc9bbppp7ld/0V6CWMpdswLSJt2tlAuIy/eP9tpfoNTf26eI+MV9i2dzCJngPoNSxfKRshKzfkzcOHHKzXbrCSYBqxxWUMa0lMpbWHmimKB0M8nxMdZeeSurjjmXdN7A6bDhdjkIOOy0NvlpaQ1id9mFnYZEPM1AeIyegSGGwmH8rQ1kAnVK8VgCArl4AiOawJbPsHt7F3o6iT1n4HIE8Ni96LqTnFfDFqhHeFFK0T6Gh3awuO0INo1swe9ro6WtgdHBFxgd2Izd5qnEQKUVxxucTSDQxOjQZjQjS9HIkiumsGV3cexRK9+4Fd1vhsWnYkz5QlkBZY8Sy326RNkNxWX7RwSk/em+9fX2EnCboJQQUKoiedtXF25fin9Nju4J63nqpLBR4qobpCRgnMuvuok1x/w72O04bDZ8HheFjDBIZpWctjvoIV8yiEXGSaWjxMdjpFMpaut9JIS1wl9DVqwZh04xniIbHkHLZYgOD1NKZ3E6fBRyWYxckeDMBbgCIeWyDW25B00P0N64jMHxnbg89fhCPkb6tkAhga7ZzdYluY5K4a+LYjGPy+Eiky1Q0HLY0+s5+ohFrJCK7reKJ/dp/f9NDpKKcSmQVJxFL5cKqxqBmtCSqXM61YLYhxarv8n49/dJ95el1NfTS9DrUtQbKvumqEumz1C+HEhV3HIVZ5pSc2tqIO+1VG4ClMa49KpbWfX2cwmFAooO12W3ExN13GQWp5JXclESftBSWuwhEtE0dnsRu0tn1/AAHlsraZ8fw2dDzxfJJ1IY6XHiQ4OkohGMbB5Jm0mwO9gwF0+ghsxoH6nxPjyuGRglXWWrReTUkESkdEMUUxLKN+l7lJS4qfRj6G4KRo5SagzdUYfmcFOKPcOxR8xnxcq3Krr397pSrSyWK7evg7HaTiQY/rd87Us7xNT41t9yPFPPvd9BKZsjmsviKge6q92rfbl31dcjKQtxryaSF6riTP1lb8BmgVIyNsblV9zKISf+B35RsJVCTgPiuQLRQgm3S8frtpHJJinkM6SyWcW73tnZSq6UZ3BghHC+BUfQTdbIohcKZFNpUmMjGIkIuWSSXGIczebC4fZh0wXgNJLRHrxaCIfdr+hyi8WcAqVkdhy75qNUNEFQzRG7A0M3yOcjqqTAcISI9T+NW85Z0wTJjRx32FJWrFj1lqX0ei6ivX2XAqZ8oaxw+9IjEqtIetKkyvvlduFXe22yoESK2YxdlRiPjKmObpF9sl4mmZyGwyF1VWUyOGUsTJPjfrUDeZnP7U9QCnhdUAYlh23vst3TPaOprThyjGoCfxkQmmD7MkPkEgW66sabScbGVUzphI/8Dx4lu10ikc6RLhgkFLtDAbuew2ErYrOV6OkPk07FOeSwg4QilGKmwLqdMQyHTaXtjWJenTsTjZCKRRWZYD6dUrEz0ZBz2d3kcwXyRYNCJo3PITJONeQK0nRbZHRsGw5nI7puh6LUK0kZgB/N4SSd6adUzGDoTrKZqJIItwdr0KIvcsyhS1RD7r++5b79jVbMKzyt6crlyq7c9B82LSSHCmz/rZa+LJh8Xnr+TMoWeY2ODisNPeEKl8C61Eqte3EDnQsWKtdFFXJKDYpdCi3/un6uV3Lb9isoiTskoJSV7NveQemlrkeep5Dxi/iEiJL6A0ElZ+TzelVfo8iBq2fudqtiXlFzloysHC+qswJA195yG8nIGGuvvYlTv3wx4+GM6nFLyiYnbbC5HIV8mnw+QdBvV9xXA4Nj1AU9dMyaqd73OVw88NiztLe2kzAKZLJpRNFS5NvlWQuLhPRKSguTraQTcgZw4FSB8XQuTdDjYSQaUV0GIrc0MroVu7MGp7eWQjZLPpvE5ZBm3hrSmVEFehKIl0yg3WknkRrCFt/IMYcfwLKVAkpfeyv79koWwt/qWDP1Xy6wLMt/V3+XWEjSmPu3jiEpcMyKgoqudm8pDCwU5XepNheqFU25m+HRMRoamtQQJYsoUlFOlx236uF7fV5/D6AUyWZxvUJQsuJEsgFExsPU1tQo5WWn26tUjn0ej6pnE0I1ASN/qEZR6QhwSexKhEgFKCRnd+1td5CMjLL26hv48revY9PmUQbH0xTLjZXpVIJMOqqsJFEeGQmPKdBrbqwlEsvS3NTI+mdfUFTKs9s6GCimMDJ5EvFx1SwuoKRoDjUdm81OIVuglClgZArqby7p+He7iecTimdL0vv9veuVG+d01mFzBygWcgjtnMtTg1FIksvm8CiASuP0eoA0ke4/cfThSzjoLVB6fRbPK/mW6WJMk6lL/lY2kjlKWQzJZEZZbLIgBASlBkrXpAdOUt8aacWPY7a1iOy5jK+Yz+NyO/H7J1y8V3Ldr+bY/QZKkn3zuhShXURiSq8ElEpQqMqojY8M0dDQQDyeIJOXHjQDhzAzOBzq3gtThc3hVPdYgEmej/CdC1WMz+vhultvIzEe5rKrb+S0sy9jV3dEWdLReILh8SiR6DhSLdJQFySaiKnnNbujjXQqTU/vKAcuWchA9wCx8TEcLg+OWr96luNjYTUGIfpT1DNOL8VcURWsehHXK008k8JlkwYUjVBNQAFYMZdlYGCbsoA0zUkw2EJez2GX6HfJqehQxiP9iqPJ7fFQKJWUJRjv/jOHrJzF8pUr+bd/fctSejXr4W/6mWpgmrCQ/nYxpOqLkVKFWEx6nIRPyoxzySIQDmoxuZ0uB+NjUVxutxJCkEkui8duM/v2xMV7vV77DZR6eglJyj2XJSbum910s/aMHwmNjGTVzCJYq/exuhVbAEBYBpSbVM7CmsSoVW5whb/LFGuwlV1oKdq85pZbiYfHWHvdrXzs8+eDtIJQIpZM0TcSUZzp4vKn8kUyuRwNjX51TM/uPmZ2zCUU8BAfS6BlskTErQoGyKfTZDJp1aUpbptNs+N2ebAXNBxS4W2zkUwnicbG0XQ7Xo+PrIzLLvxJeRLj40r5JFhbg61kp6jJ5qZhw0k8FiaRDEtaEWwOfL4aHA4PiZGHOOSgNlWn9FZM6fVaQa/wewSYBBSkF8502f62FpI1PHEphNRtbCxKPJEgPBqmtaWVQDCgVFXEpRgfi+APBJRcVXNLC16vh1DQT3193WtGdbsvt2t/gVJvdw81XgGlHHGR7Z6m901ZkuWUvmCNRbE19bom8WtNc9FTn/skkjcNrr35VuLjY1x67W0c+o6vk01n1EZRJ+5ZMsmwSILZbdhckjlz4fbaGewfUJbP7I5Wtm5az8oFq3n4/j/TtHAx3lANsegYyURctSzlM1l8Tjc+jw8jW8StOVQdlMOpE/C78fp9pJMZNmzdgWEzpbWkfUYEJjKiiaeYKx1kMhESsVGVtSvpTtyeEIZWwuerRS+UGB+4hyNXd6iG3DdFnVI0GuWe++5nZHh4zwBwlWjARNt+mdKjwlttFUmbZG171AypP1rvTZOiLfMXWeRecnT1z9YZrQlWgZeyiIDFJFKmMCoHmScUQiZ4udWZ1QhNoYPyb1MqwatLMStHT4tpEyeoUOmWr95kJTBJ7ET2pr6+Qb3T19dHKBiibUY7N998ixqLBF/b29p421GH7wuWvGbH/L2AksR5TGoXuZ9iFZX18KzZ+FfsJ3tsRhUzq6T6zgSUYmOjXH71H2he+El8ARMopOk3lkrgsEEo6EF36YzGkkQTCfI5g5ltTUpO3W5zsOHJpxkc7CHQ1ESgoZWS1DhFxlXG1e3x4tHs6OkC4VhE1SJ5dKfq9Jc41IymJjyKPVVn09btFCQ2Kk2+aZOiuVgoqpiSy2UnlUpQKGRxujyk0gV0pw2X26f4m+Kj9/L2Q+e8scUoq2f2pk2b+ehHP0Y8Hp8sCFlGhwoYVFkbMk9UirXCqCih3bJ6gNq+pECxfIwCHfMTQvKoKGOn1I9UOLrLE7BaPKB6Yikz3xrXBMYo0LPAbOL4aqklk0nAJF+Tn8trQPFqV3Egld+weN4st8L6Tuu+TfqOslqLBE41TfL6FmWKeT+++IXPc+ihh6p+vT/94S5WH7yczs5O3vehjyprTiblZ8/8FO99z0mvGeDsy4n+HkApljHVTKw2E5OBy9xQpuNK2pfrqj7mpSxkqVO65qZbSIyFufTqOyjVnURjYyMtbU34gj5iiTjJVJTwWJiizYkw0GWMrMrA+Q2Dtx12CLt39dLf08Xw7i0sP/RdbN74HHXtbTS0zUS32REu/HwqgyFxREOAUIo5DQr5rCJtqwkK3a5HVWdH4nEGhgYUIAY8IXS7TiyewONyKdDWNRGeKJJIplUYQMoWBNyKwngYeZzDV3WwYtUbVPdt6oNdt24d73nvKZU/V1sk1SAwtfR50nGKD6esFTfFApmQXzLjBibB/uReJJmEqrGySu9N2kCqv1PhyNS/VYCyrFJSsd4mVA8URFhSS+YvlWs1v6N83oqQwUR8Y6r6SjWYTkx4Abky6ClwrHChqHvypS9+gcMPP4x8Icdtt/+eI484jIWdnZzyoY+qSStxpPP/74dKifj1fO13UBLqklQarQxKqpWiQrJXpj7+K91ueUZ7a0kRUDItpREuu+qPzFr9JQI+L8FaJ5rNIBKJ093XTTpfUCT9yVyCVC5GJhZj8awFzGhv5y9PPkl8ZBC7UWDJqkPZvmU9tc0dNM3oULLs2YwUWmbIJOMqvS8UwJJly6VTFPJ5Olpn0FzbRlIKLHMmV1I8mcRl9xII1jA2PkIikcTp8ZgMquLeaUXGIxFSmXFs9hqz/ST2FEeunvnmsJQk8CeKHB/+yEcrFkjFGpgCAtW7jiw7CRhWjBXlSlW5M2VLRIkEqJjA3rXfJllNVe7iHsHPigCm5VRVpH0r5P7Wucq2SsUNNLHMbC03x2JepWkBVbuUk6uArTFYE9ua5JPASuRvlLySCAiYjAM+b0BRqMjxnz71VFasXK4Wx5NPPs38+XOZM2cmp3/mi0rCO+D388uf/0iZ+6/na3+CUtAr1CUGkUxGVEHLltKE42+50H9tLPClzmOBUnwszFXX/J55h59D++xGgiEXA33D7Ny1nZFwmOb2OQhP7khkmFh8DL9uZ+GCRXTt6GJcvItYL0vXvINtm9dTSiXRPR46VxymvAURlkglUqp4UtaL3eFUjJsiMCC0u3oxjaa5CDk8SIhdvAipc5K4lhRXypSV+FRjXS0zWpvoHRqmu6cbzXBQKmQoSFmB209u7HEOW9ms+JTOeaOTvGUyGW66+WbOO/dbkxartbjVoizzT5sujUkXW3GhypaL/C6LUKRlcmX1jurgpKnyMQFitXW1RCJRtQbFdJeCtmQiOQkg5FukYVb1/lQYAcyKbEntWi6edQ6ny6V2JQtuJLBsFjMWyp6jhUSmJaSsszIN6wREVbt8Za05y/qqdl+rd3AlbGm6hKI6cvDBq3j/+99XtnykYNNFKplQyiQS1I1GIzQ1Nqm0tIwjk83gD/iUGyckXq9XM97+BKUar1OlyIW6xASlydc91V1+KbCezAww/ZHVc8U6QrlvN9+q3Le1V/+eQ07+HrWNPlLpGDu2bmewbye+UB2Bxg5yRpbhkV7IZJTkUk2wjuGRUWKZGEGJ90i8CAg6gqrCumV+p/o9m8uoqm637lRZNgl3yKbokB44u1uViIg1pRc08oaULRTJF9KKrVQspHzeUMfU1wRZMG8W23b1sG3bVhX8FhGJaEwode0kRh7mqDXtZfftDa5mMjo6yte+dg4PPvRgmUZ2wgrpmDmT5mazwG/SJFHWhulaCQhs3LhRHTBr1mzmzJ3LAw88SFtrC22treqz4fAYg4ND5KU4rGx9feu8b/Lf3/+h+r2hvp7jj38Hv73+BvOLyulh+Y4DDljE2Ng4Q0NDLOjspKe3hwMWHcC6F9cpJ2n27Fl07dpFY0Mjq1at4M677lYAFwgEWLJksXrgO3d2qe+JSsm/1LJUxbNMS6h6Iu9dutu8D9NJipuAJICz5uCDVQxJ0tRS7SspYQlsm+RzZu1MJCKChw3s3r0Lp8OJP+BXE1WquWtrgq8bn/f+BKVaj0ttFtEKKEnqaeI5TNIB/CsC3ZOe7BRX0IopxcfFUrqDE079BUWjQCGfZGwsTDqZwu52obtdpPMZRocH1PzJ5zJkUzmV6s9nxklGeqlvO4jhoZ04NI2OzuVoLi+G3UYulyIdjRD0Bgn6Qko9J+hy0uDzKJpdmRPxeJrxSEKd22l3gVZUrt+m7VvBKFIXalSsl7PbW4nFI+zq7TNpUvIF/L5aorFh0pFnOHL1jDeH+9bd08M733mS8mmnmsof//jHeMc7jmPJ4sX09fcjWTorXHLMMW/n/gceZGhwiG9/57vKmhJdsuOOO4b//M//5swzT+fd7zmJsfAY69at5/rf3qCOramtZcmSA7jgN7/kX77wFUTc8eT3vpePf/yj/PSnP2NkZITNm7eqCdra1srpp53Kjh07efbZ5/jIRz7Effc9wOrVK7nowks49PBDWbRgAZddfiUrVyznYx/7CN/9j+8RDIY49thjmD9vrgIksZgE2B548CFi0ZgZdK+UsYjrNVH5MlUvq9qFrI5PTA6+mx3uDQ31/NNHPsSyZQcyNDyiAMjlctHW2qZAS+2QDocCRwHRrl1dpLMZlYYWq01iSnIOv8/9unhx+wuU+rp7ynVKBaSiW1mryv2dvnl2UtjAkut+lXfIeobycbuGCnRLScAV19zAh794GZs37yaTihMIeVXaPpvP4fK7wQbr1q8nk0ozf+Fc+nd209bYyM6d6wmPxbDbfaqNJNjQTGPLDGnyRw94SWZSiikg6PGrmiJBm8agn6DXjVsXmhShnrRTEKVLwOP0EItF6e7tY2h4AOlYamxow+Ww095Sr+bQhi3bMDSzVaqhppEtWx+nkF7PUWsWsvLNoGaya9cujj72HaoSdiooWQvy/F/8nIcefpiNGzaagUg07rjjNhYsXGTeSLdHZZNESWH16lX8z49+zDHHHK3ckgcffEilxNe9uJ7B4WE658/nk5/8f3zwA+/nttvv4Oc/P5/vfvffOXDpEnZs38no2Bjf+Ma56jsEZObOm0t3d4/qZXr88SeUa9TZOZ8LL7iYb33rXM4779uqEPGUk9/Lie88gR/96H/p7e3jU5/6Z0WJe/vtd/Du97yb9Rs28uQTTyieb8kTKhS1JLwrO/GeBXzVsaNJGTfrMyKjVF5Qc+fO5atf+bLabRXXU7GoxiCgpKwsXVOtBrF4jKamJnZ3dxNLJFRGxe1y4XV7aG1tIRjyvcol98o+tr9ASeqUQh5x3wqMi+tis1Xu4dQr2FtM6a+NNVmgdPVNNyMxpcuuvYVjP/w/bNrYRXNjgIbGAAMjIyqu4wv5iSej9PX3Kbl2RylPMhLDphu88OJzeL1tFIwkoWATLp+fsdER2js6MTwuig6NdHQMu6Ephk23zUHI7VMFlMVsAc0o0tE+Q5UnZDI5hsfHKOREey6vSgDEy2hoaFUBeK/HhdPpZtuOreQMDa9HCi8DhEf6GRt4iKMOnW2SvL2RG3IlTrNhw0be896TK3NB7STV2Srg/PN/waZNm9i2bXvluAt+8ysWLFikXC3xbU84/h0cfsThKlYioLT8oGVKOUSB0ioTlIZUHZTp/jz//NMKUB5++FGOOupI3n/KyVx51dWcfPJ7+fo3zlVxJjnn7DmzlZXz1FNPc+CBSxkdHWHF8uXqdwGD/8/edYBXVWXd9fpLbyQkJIReFZSOgqKC2EbsXUGxzOiMY+869vo7jm3GAipiFwELoo46ir0gIEU6JBBIQkJ6ffX/1j73vHcTQgkEksA7fpHkvXvPPfeUddYuZ2+6MzA87tixx2DiRRfgvvsflmMCJ5xwHDZu2IBNmzbL+5C9fPLJp9i4MU+BkgAS5dBw0gGVgKDhstg5KLELqNAOIju7C6666s9ISklGTW2tWFd4Ap4AJE57hlhKkY7iG/uDrIl9EhMTI8ce6P2dkBDbPHTZzatbC5Q4LvFRLonRXUKXAMke05ApmU/07y1gCotvJXjp9dnoPvRKYTsd0+KxqSAPFXV+ZGVnISo+Gvn5+YiKssMWqEdhznpxhl21mozehajoOMQlJ8Fmc6Mwbz2SUzvC7U5C0O4Eomxy9pF60OToWElXjnqvqD1Ki0rEEpednY2g1y8x5FfkrkPntHQ4bC5UV9agsqJSfJ06JCfDR9bmYjblKlRUViNg8aPO60dqUirWLn4Tw4d1bv9B3mj5+fCDj0SnpLZyE33Weh0ATz35JF5/4w3Mn/+bwZSANatXoneffsZtFvTo0R133/MPRLndePrpZ9GlS7ZkD/nmm28wmKC0ZJnohU49ZYL4Qz355D/x+D+fwGeffYErrrgU2Z07Y9or03H8icfhgQceDnn5XnHFZbKo33jjTdxxx214b8ZM5Bfky0JOTEwU0bCgcAv69e+Le+++Cy+++BI25uWJGER9Ek3u63NzBeBoZdy8OT/syEkprlHm2p2Jb7qjNHiJspxU2hpEbEwcjj9+PE45dYIcE+D5KAJTXGycOEiyyPkmv19AqKKiAjV1tYimg110tDJHx8WIuLkvSmuCEo+ZBOu92ErxTTMls67PFNZ2R6xoTxiTAqWZqCwtxctvfAhXp5OQlZEqYUVy8vPgjnahR88uyOySha3FxSgrLkTxpjxJ5VW8dYtku42OTURl1VZ06TIQHm8t6qor0HfAQKxdlYukJJ5b88MDL+Li49EpKQVRVpt4eVeUV6J8a4kcYUmOS1YJBKxW5Bbko2tqhhg9OIc2b8qTFAnZWV3hsFslKgLnUF1tDcoqyuB0xSIxMRk5S9/GoYektv8gb9yxb7r5FsyZ8/EO3AGAZ595RnYKihvKpA7cc8/dIVDiAjtsxAgcdcxR6NG9B16cMlU8lGld+u7778T1XYPSyX86SY5fPPP0v3DIoUMFWB568F4s+n0JYmNisWbteMySeAAAIABJREFUWhTkFyA6JlqczC668AKUlpbJ8//0pxPx+D+flN/ZDp72XrNmrSiU//73vyIzsxP+89wLcqZs5MgR6Na9mww+Fcqc+N9//4OwrsbK6jDANLS2CU43cSZL+SRp2KA1kkwJ4rV9/nnnij6LSn32L0//W+j4ZrMrD01TAgNJ9xQMimKePzQZk6Lb6Ua8D0qrgVLuBjlm4vd4RXyzNAFK5tffVeDZtevCLh+UCd6a8R4qSkow/c05CHQch5ioaPgCgMdbj7q6UnTJ7oSefftgS8FmbFi3HkGfV0S5+vpaOOTMmh92H9Cj58HIL9goG3tcShJKCkvQpUt/eK0+1HrqkBwfh6y0jkps8/lRVlqO/PwCiTjQt0s3OQe4cl0OouPikBKdIOFc7A4LaqrLUVpRBYczlkZKlJeV0WQiR1jsQS9Kq31ITEzChhXv4ZAByRg8eFj7Ft9oBTr6mLGyUPUC5L/6PJF2XnzmmaewbNlyrFlD8U0phV94/rmQ+EYF7aSJF+GHH37EUUcdhccf/yeOPPIIlFdUYNWqlaJTWr5yFTZv3iyZRJksj9cPHXoYbrnlRvy+eDF+/vkXDDh4gJj6xx17DL755lsUFRXjggvOx5YtW5CbuwGXTp6EF158SUCLuuqkhETRc9GngyejucDvuPNuYVYTJ14oVj0qyKkHKykpwW+/LUJVRWXIC13rlsIAs32dUlhBajiANuF53rt3Hzxw/73CjHgg1+thYPdAOKg9lbSm1aYBjyJitIASw6UG4I7auxExdRNaG5QYxqO0vhYWq03efVcU3U3pnHYtSmVjq6pirm+/OwPlJUV47c05sHQ+GVHRMWJd89fVwmbzIis7E55AAIX5BQjU1cPrZ+RJxmpywetnVAIfUhJS0TEjHTm56xGfkIS8wjzEOuPQKasvfPYAfD4PmGMuMyMdiTGxor8tLipCdEyMmP0T6LvkDyJ3Qx4yM7IQ43ZLJudOHVNk/qzLzUHh1nJ0SE5FwONDdZ1HDCaJ7ijYXA4UllSjIGcmDj1IMaV2fSCXC5UvYUhu2/jHuKPcSEpMwoMPPIAFCxfIwk5PT0d6ekecfdZZ+PjjufLZE/96En379hXUJ0t4d8Z76NQpQwCBvksEpY15m8SqsGVLsZj/Y2Nj8f7s93HkmCPx228L0L1bV2FER445AitXrsKqVauFqp599lkChqxr+qsv47XX3xARjICSnJQo1rWi4mIMGzYUE075E+644x/yPhdccJ543H700cfo178fFi9ejPXrcySrhQYhORhjsrwpPVNDT/OGf2tvbbMbgfI7oU6pb5/+eOThB0X8otgoAcL8PomrZGZI5oVF3RmtdNHuaDkJznAn+zso5ebkIDma0Rfpp1QLKxMHGKDUFEHcofgmML9z728lljccWz7rnXffQ3npFrz25gdIH341Kiq2wFtdJ6Z9f9CnlNx1tfD7vPDUlIl4ZnUrnZ+3rgZx7lh07toNG/JzRccZtNpQWlYsh3jj3MmIiomTTZB+TGkZGXA5XeIIGe1ySlSI+hofyotKYbdaEOOIkiMlvLeEeeNKtyI7qxsqKkrk3F1ackfUVDC+Uy1qvR4kxMUjLSUJa3LzsGHdmzhi2EE4tL1HCaCp/Zix4xo4IepJwYlwyCEDkZnRCTFxscjNzTWUbm7xPH5t+qu49NLLUV9fh1/m/6ZcAo48AmOPORpLly5DUlIiXn5lGlKSUzBixHARZwgMxcUl+NcTj+O22+8U5d/gwYOxbu1aXH31VXjooUdx7PhxQsZmzpotAEGmRGCjzmn8+HG48qqrsSF3g7Q5KytL3BQ2bykQ14BLLp6I2+/4h/gr0V+ILgAbN+SJe8IPP/6I+b8tMMRP7W6ucDiMQw0V3ZrJmL25zYxSgbmhoIUFffv0xcMPPyiTTYESd1a/7IzbK5zItNC53VFwMBOGb/8HJRpNOjJESwBhUDIlDmh88n9nYpn+vunrNBCFHWbNrh0zZ72PoqJ8vPvuTCQPuBibczciLakjXFFuyevmjo+BK9qJ8vJiFOVvFJHT6o4GT84y5EqvHt2QszkP1fVVotupqKMDcBD1nkp46xloLk4816MS45Cc3gkWTwDOIHBQ/z4yhyvL6uDw0zJnRWxMDB3HJVghN9t1G3MwZOAwJMRHI2djPkpLKxHlcMhxlKiYKMDqQHR0LFJi3Zjz/o1yoHvY8OHtNxklFxrN5ddcc134yEUjlkCrGhcMd3yG41BJHdWRSXqV9urT1zjtplY2/ZSOGz9OHBgZcXHevHniHHb2OWeje/duePnlaWJpyM7ujFmzPpAwHi++8B9cd91NOOWUk/HWW+9g2PAhwrqmTHlJQOmUUyagpLQUWwoL8eAD9+KWW+/AunU5mDrlP4iKisbkyZdLIK8+fXrh4osn4tVXX8f4Y8fil1/nCwM777xzcPwJx+GpJ5/BggWLTABsOqAb5oo7YUoNj6AooFFRBdkpBKWHHrpfXCQ4cejNuyNQ0qDHyU2dEnVJ1Dfs70zpp59+QreMjnBY7WJ9o6MpwVmYhs6kYNK9NaVfMp9nM4NMw00jvPnoz8338fe5n3yGNWtWYO7Hc5FXGkBW9wnIzOyBQLAO9UEvgnYbauvoTFmEmkqmPLJJeBFmmeNGWFC2FSUVJaKYZgQAd3ISqqoq4PVUSnynpA4dUVpYhKiUJCRlZcLFkNuVHomtdUj/fpi/YBE6ZHVGVnQs4lwx8NXWyzzILyzEytXrcXC//uiYmoilK5Zg0dJlSE/OQI9u3ZCWlorqGhWx9MevX4S3dj3GHHU0Rhw2Alf95Yp9diqgtq4+FILaUlVdK8odWo/YIc0tVLJeccVf8PkXXzQpvjVtCg8TYHpu08dJuRBQV2KFOzpGLEjVVVVyoTryYUVCPOMLu8WTmc6EFGd4vIX3ZmVlijhG9kXFOL8ng6Jlit9Tic6T9AwBSh+e4q1bJZpf5+zOIjZt2LBBQIHnzXiwtbKyWu6hMyjBlEyNYmXx1mKxxikXAANOmuvN3fi4iZz1o6Kb8ZqC6NOnNx588AHEUi/h9Ui8aKV3MIclazhSmikRyBQokSnZmzucu3V9a+mUcnKYnjoo578YeVLEN9u2Qfia8pszx0Palhk1jG+uhquhj0dYN8jvgli3foNstDdcf506mWClGB0lkQtoDSPH5WbM8CE85S/1GQHnqN7weOpEZyjHjIJB2JwO5RXuV+FuebSIc5fe+hJNklZFr2JtcYwlXlcn4pqV4XkZRdLBsCYOsdpywZN1O2xWAcbqmhoJ6EZ/NrLq2toaBAJe1NeXoXu37rj99jskGuVpp07YVyeVpI0quB7QIqA0fPhI0ceoIPeGWc2Y3marU4PBN3YyAa3QOTgVByc0AayGQtc4pCtSPw/T6gO8jc+QSRQvUwQA42xdY/1OaBdUl5sU1goYw0CqdT5aR6TO6xmHREK7SOiQbmhJb6tTMouz+vnbtku9f78+ffHAA/dJSFtPPSdVraRp1nGam0KOMChFwx4S3/ZvUCJgb8nbLI6DFbROGiypoVWzae/ubVlTA9NBeCQbO5w10fkcR38A+Pe//40Vy5dhxco/UFxUDE9dvUprFIp1qQBM+duq5xlarJBPH4FNwnpzWagLZL4F5eCoOcW4WgvhGnRtql4xLlElEK7EeB6hT81g5cOl1itBrENaKjp37oITTjwRl19+GZKTeKyphc7m7GS7a1FQIvvo2bOPAAs7TpnJm1byqg3HGIzQIdawk6UeLJlUHK6QZcroRAbu0qFDzEHjtF8Ke1vHXtoJKAqQBG2QGWAMUijchdRncow0mh32PZIQ7oY3N0FMAZWi9E3EeDK5AzQFkKqpPNmtXrh3H1rf7pMokvQcr6mtEaYkfdxIHNH1qbThDqXodlgR8Afgcu+/oKR0/gEUbSlCcUGBnA+jlzv7QPoxqMOXhFZ2eEMxzU+KT6rXt+8+IX2sSWpoHSugEMYiweSs2LhhI9544zU5c1ZTXSNe1GyjjFsoe5xhlTbmREhPaLiD8HJ5nDHOenwbDLtpXYTfzgA8mX+NtWnbQQQjCB51rXTCpX7J7YrFSSeegKOOOnKfRi9tUVCiqNS330Gq000HbEPMwFiwwpga9I2Ke0SnCWOcZaHLIITEmzBghC1aKoZSU5RcWabCMZbMLE2zEwVAapeh1y30ZCBltjArPI/J0JpmHOg1DF6sSztIKpIXboO2voX1DNu3vu1ImSp+SrCKXuu+++5BYkL8TkFJv9e2oBSEy71/+ynJMgwGxYl24cKF4sNGsUOf9me4D0ZajI1V8cr1QlcRHRTj1gEEOeaMSqFPIejIDxxzNWbcEOi0qiJN6MLUVpLuSuZeUMT9VatWwe12Y9SoUUjt0EHEMLaF6gRGoJB1YIDctmBlbJEGI9cXNt6MzPPZvKyCkh2XbhEW8PdtioVJKXyor6dXtwr6RpXED9/9ICLg5Zdeiq5ds0Pze3sxpHZCfJr9dYuC0u+/L8bkSy9VbMPQs2jwMZhnKCCbuigk/ITPjKmbQyzLEjRYiOhZjNpC+c9MpngBsHB9QpTCih4DBMPbSqiuUGymMEyaQ+EqYGxYrwYhM9vTMBsGyLB4F45gqT8LH0NRTdR6CwWkVHwS1bn30qv95htvRHx8jIASdUriErAd65teYA2Z0oEBSo1nv15EO1tMO/JJ2pV7t9VDhVvSWAm+vWt39pydrezdvd/cR02B2+7Wu7P27uj7FgUlE+ibUh038Xgj0WsYsMKZX82DFtoRGjErfYC3QYfq7BImbhui2o1EYSVahw/PqnpEwjd2LoPymmI9NWTBYSUzfZT0QVytD9uTAVH3cidW9QZ8DOrFc052OY/H82/KYrmt+KYnlWZKoui2W+X6qKj9+5jJ9vq8JRbVjkCrATPZTrSBlmjDns+p5tXQmm1ucVBq3qtHrt5ZD9Ccr0DJAY/Xg+qaXQclBgDjmSqyqqjo/duje2f9GPm+/fRABJTa+FiR5dTUeGC3MQmiYko0KDSlV9CvEtIpRUWJ7osK1JhYZj3d+6W1XAL2/ptFnrCveiACSvuqp3fzOXJ6u84jxycIUFqnpMU3Mzhpyk3/HCpSmbqZhgCGw42mt+4+KBFQ2gedvJ8/IgJK7WCAGWOZKaSrq2vEWuLz+0Uka1KvxODxTEzocMDldCAuLgYxMdHbWCj31mtHQGlv9eyBU28ElNrJWNNsS3M3PcoZU4rmaA1KDfT4BCUexo2OkuM8CQlx+9THJAJK7WRCteFmRkCpDQ9O46YRhBiGhQdzVZSAbRuvXLus4HEFMqZ9XSKgtK97fP97XgSU9r8xbdU3ioBSq3b/fvHwCCjtF8PYdl4iAkptZyzaa0sioNReR66NtjsCSm10YNpRsyKg1I4Gqz00NQJK7WGU2nYbI6DUtsen3bUuAkrtbsjaXIMjoNSGhoTWNZ/Hi7ULf0ViQqIKdhcwIihIaDBVVHAURlQM4Kuff8Cq3A3wqmgmEvGgqqJCgoDROGdzWFSKb7tDTsFbA3707dsbx4wbj44dVQr0liwRUGrJ3jww64qAUhsbd++qLfAnW2BliGCJj8HwGCocBsM9WQMq2J0FDvy69Ff8sLkSca5kjDj4IERHJ8HutyDRHoBEKiFIBXwo89uwsKQaZQEfXLEufP3p+xjVPx1nnjRefJpaskRAqSV788CsKwJKbWzc61duQK3Vhw1bK9C9U1cUlRWjvqIKPbKzVMZXFnpzB6x45+MZcBx0BOJjUtE3NREVPhscASDVYUWCNQinBfD4glhX7sdaqx8+ix1Wpx1+Ty1c5SswuFc6Oqa3LFuKgFIbm1DtsDkRUGpDg0bxzbMyD+u3FuLRl59Hp6SO+O8P32Jwr3548u77QwklLYxHF7Tg9Y/egb3/GKR16YcYK1DvCcDhtyIWQaS5rIizBeD1BbFgaz1K7DZERznhswA+bx0cW5dhWJ8MdMrMbNEeiIBSi3bnAVlZBJTa2LDXrcxHUUUZyv01SIpOQlV5BRjRML1jKhxGllsFSja88dGbsPUbg4Ss/hK5s87jhytghT0ARFsApz2AMo8X+XW1yEpNhMMWgB9B1NbXAUVkShnI6BQBpTY2BQ745kRAqY1NAc+qAmwqLsRNTz+KXqkZ+OHnnzDgoAF47O57JYsFGZI6YWLB2++/BedBRyE+sx88PgtqvQE4AlZY/AGU1fgly2+0tRod0xPQOdkuGVVtFgu83jqUbVqBnl3SkZ7RqUV7IMKUWrQ7D8jK9hooMef9ihUrJcWRlEbRHyUxgGRmCH+l43M3CJNrjnseusCoUlIxhWOjSxDdxlEmjQiT+vnhsLUqTrNYuIw6dPocnTSgce6GhiHYw9HEQ7HkjXjdDa8L/6WCwOuw401khrAE0TuuE4J2SI6uzqnpklKqPuBDYnKSEZjesLIZoBR98BjEZ/ZFXZ0FdX71rOqaICqrahDvr4ItyomDeich1gG4EITbxoy5XuStW4KundMj4ttuLnsdjticNmw3q4rc1qgH9hooMU32RRMnobCwMBQ2Q8W0Vv8TC5IpMUD4KxWcPRz/2hSvW1LAaIwz0IwB9iUNjfrCDDr64lBdRsolc0YKlewi3B4JNK+rNuxcCiTDQKgepHK9haBFJzgwMpuE4oPLtaFWqd9DMb+NNFTGc5iSavYLr8OVbENNfT3cjihhRmyQpNqRELjqicKUPngTiQPGICGzD+p9Vvi8QdT6gigorkSwugydYmOR0jkZHeKCiLJbYTOyY/j8Hmxet1iYUlZW5xZdFM1lSkxIyugHzNHH5Jk7infdog3dw8qYEICWy+7du8sc5ybcVCFoJScnIy4uTr7Oz89HXl6efNa4ZGRk7LAPeBibfcUg/8xDuLOyZcsWpKWl7eyy3fqebamqqpI+YFvM4My4XyUlJfKOjO3V3LLXQGnJkqX404QJIZDQDdteVhG10owEfKEMJsr4rZahEWw/BAQq04mkN1Jo1KBjwkkGNJqEs46EU9WE87ppSAvlitNPDoGNAS5hFDKyPBgP1yBr3GdkVwo/3Py9KfuJwqwQ5GH2C68hKsmO8uoaRLvjYZG0P8y2YqTl4vWGP9Jb77+OLkPHILlrX9T5rKiu8mLlpnJs3ZKPzNhE9O6dibhoC5O0wGFh+m7Ab2EixHpszVmE/t06oXPn7ObOmR1e3xxQWrRokUxqTlwutPXr10tGZAaoa+tl9uzZAqTHHXccli1bhq1btzbZZA1c6enp8v3cuXPxwQcfyH2Ny4gRI0Bgasy+yMoKCgqwceNGSX/ERc/EqgQcZofeXnn22Wfx17/+tcWBnu3YtGmTtIVtIwB1kwy7aVi9erW0n5Es+O6M68XvmlP2CiixofPn/4azzj7HxBIM7Gi0IM2LUgQpprEJMRQFOiFWZTClMICYWNT2FrpJlpJMH0Y6bDNIKlBTspX5+3A+N537rWHm4jDAalBRqbat5swrBmI2BkIzI1C/K5CdNeVVRCW6JKEhWZJ2kpTvCdqSw0xFLXl39htwdx+ETn37oarGi7z8GvgCVjh8tRg6oBei7Cohgh8WeAMBMGmT0woE/B4UrFuI3l0JSl2aM192eu2ughJ32U8++QQ9e/bEgAEDUFpaildffRWTJ09ukkXs9MH78AINEASEjh07NuvJBKVffvkFV1555Tb3kSnGxsZuA0rsm/feew89evTAUUcdBTKg//3vf8jMzMTo0aO3y0ZOO+00EDxbsjBt1M8//ywhmY855hiUl5dj1qxZGDp0KA499FA8/vjjGDNmDIYMGSJg/dZbb+Hhhx9uVhP2CiiRkn/wwYe46eZbmszJtu2CNABLQIkgZMCOsVg1SKmMu6GcIwZCqLxdjRmY5i9yb0i0o9TVOA2z+VlautSwp5NMhtmMmdWExTotchrsrWEOTiN9VFiH1DRbVHW8O3Ua3Ilu0HavUmDSc7th4CQm/+VHM2a9BWQNREbP/qis8aKiyou+XdOQ4LTD5SQLpOQXRH19AOV1Xsn9FeUIItphQXHOMvTMzkBmVuswJU7m77//Hn379hURiIViEBclGcgrr7yCsWPHClht3rwZxx9/vCxG7tLMo8bfi4qK0Lt3bxEjuBt36tQJP/30k7Cu1NRU/PjjjzjnnHNE5CGT0Ts207Jz4+TzuLMPHDgQubm5IFPhfdz5v/zySxx++OGysPr374/OncNi7n//+1/RlZ5yyinNWmyaKXERc0E3LkceeaS8g5kpcfEvWbJE+uCkk04K3cI2Mk092QqBYunSpXIvxUOyLfbp6aefLqDE7wmEmmXx75EjR2Lx4sXSl/369cMXX3yBgw8+WPrs2GOPlXFgIRieeeaZoeeyL8lwCaAEIhayJv6dmJiIGTNmyFglJDCjLoT5fvvtt83qp70CSuyw226/A59++qnSvZiapBckIyOOHn0Efv31V0yceBFefHEK6uuZA92BoF8lzktKTkK3rt2waOHv0gFMXT3vm29COdxCWWqbACXSRu5kfXr3Qlx8LH784Sds2rRZgGzw4EEoLi7Gxo156NevD2Jj4kLKoQULFoZa2zEtDSNGDMdHc+aqFOSwYNThh0n+9d9/X2JSqmtgNMDV0BvJX3Kb0j/psi0o6Uy6wLsvvQpXghvwm/pNsz0DjFS9Frw98w10OXQMMrr2Q52IZlRkAzEuCxxMXuINoHhzPfx2JyoDfnjhR6WvXnLMx1Svw6BendCpU1azJszOLt5VpkSg5eTmYiPQEFwIAlwk/JuLiAuHwMMFd+6558r1K1euxLBhw/DZZ5+JiMAFQH0Or+c1t9xyC/72t7+JKMG5xXq5QHjf0UcfLc0nGFIEmj9/vtRBRsF2/PHHH5g4cSKefvpp2em58//2228CTDfffLPcy/tYF0GNi1iGIhiUOjmnGhcC7Pjx40MfkynNmTMHJ554Yqg+nauP75uSktJgIycITJ06FVdffbWIQwQpgpEuBGC+O4GZ4ML+IujdfffdAsgEpbKyMrz//vs47LDDpN0EOQI0xWaCNesgQBMUv/nmG3l3DeCTJk3C9OnTQ8/ju1InRkDjs6g3YqJNtpuFmw0BjXUT6NauXYs///nPO5s2Db7fK6BE5Dx5wimGnN0oQyy1QzYbrrj8MhRuKcLnX3yBTz6egwmnnCL6jTPPPAP33Xe/AE9iYhKOGXsMyLySk5KQkpKMp595toEinIpfDuqVf7lCdBEMF1tTXS2A9NXX8+D1eGF32GVHLC0tk2vPPfdsrF69BgSge+++C19/8x22lmzFDdddg0smXx6aFH369MYlF0/E7XfchcGDBmHChJPRq1cvac+GjRukI1+dNh0bNuYZOi8NSo1z1jcEJfNOKNa/UJZd4K1X3kB0nAMIqBTQJs2+UnJr0hQA3p31JnoOGoPs7n3h9fOWIFwuC6z2AKqq/PAUVMLqj0Iwyg3YAY8NKAv6EPB5EFW5DgO6pSGto9J1tFTZVVDSz8vJycGaNWtkd+cufcYZZ8jC4eL77rvvhBFxglOso3KZC4zgRb0MFwIXhIz/lVfi1ltvFQBbsGCBsBvqbbhI+H1ToMTrDjroIGEGLBdffDEeffRR3HnnnZgyZYp8xg2WIgh1Myy8h2yEoGIWydk2AkPjws2RTEwXgtLLL78sz2VpnFOO4ENGowvfl2166KGH5HkEJL4TC8VI9oFZ58TvCCIkBOedd56AEpXS7GP+EEi4Frp06SJ9+tVXX8nfBHeyKzJAimAEd4I25zoZq7mwzaxnxYoVouRet26dvA9BkYXtpD6Ln3ED0axrV+dYi4MSG0x6fPQxY+H3G7nZTTTB5XLi4kmTRB5++ZVXZFec9/VXWLtmDb7431fYlLcJ3337HZgY1261o1+/vujatRuSQqD0TAiUlCCnQInobrPbZCcjC7vt1ptx0UWXoLy8Qs6NsQkEg5NOOhEXXXi+TKAtRUU4bOQIXHnV1cjJycXXX32OUaPGCJsijX/wgXvROTsL777zHj7/4n+47NLJ4lX9xRf/Q6+ePWXCzpv3rTyD1j/tYkBWFWJxDURRDVqmNN+mvuF7vP7q24iJtcuZNx3xVkQ4Zsw13ChE0R0MYsbMN3HwkDHo0qOvSjEOwB0F+It82FhQhoTYWFicbvjEIqhAqdYRRAAeoHg9+mR1kPdsybKroET2QYsUNw/db7///jvmzZsnnw0aNEgWCBcZx4p6Cs4rsiIyFC467tLDhw+X5l9++eUCJpxXFOE4X3gtQY11kQWNGzcuxGq4kPk8gpdedBdddJEsSLIi6rc0KL3xxhvCvjg+P/zwg4grZ511VrO7jW0gwxs8eHDoXrbDzJy5iMmudCGgkJVQNCNwc34TsDVAkgUSKLt27SoARdC6/fbbBYw0KFEEnjlzpvQhRTeyIdZz3XXX4aWXXhJR9cYbbwy1i/ezLy+55BK8/vrroqzWhZsIDRKadfJzgh3ZF5kY59OTTz4pkk3jd9nVDtsroMRGjhs33thJzHZz4MILL0Bmp0wsX7ECsbExOProo3DE6NG4+uq/Y/mKlbIT/vWqK/Gf55/HiGHDMW7sWLjcbmRmdoLb5cai3xcZymTmfrfi5ZemoaCgEFde9WdhU1y3HNRjjj4Kc+d+Iv1AUPrttwX48suvpJ6bbroeK1esxE8//Yo777wVt9x6O9avz8EP38/DqFFHSf2ktCedeAJOP/1U3HPv/TIpbrjhWkkFnl9QiPi4ONlFHnnkMaxZuz60Q6jd05RiXH3TgJKbJ2Fj/dq06W8hNs6BgPgcsSZDtBOrG5XcKnMugWnmu29gwNAj0bVHP1jsAdhtQE2ZBwlVFhT5ArDFuhEgkwwA/iChyIJqG1Bp8cC6dQ0GdO6AtLTmKWp3NrF2FZQoNlA3Q8CgXomFGxQZ0Ndffy2LgaIcRQUyCy6UnYHSHXfcIQznnnvuEVGH91IU+8tf/iLiy/XXXy8gp0X8AAAgAElEQVS6IwIawWh7oMTF+sILL8gOTzbCNrEOAhwXJNlyUyb9nfUN5zZFSi5sLYI1BqULL7xQANVc+B7Tpk0TJqgPUPM+1hUfHy/vRsAlCLBe6pIowmlQogjIdyWr5DsQiKgDomhLKx77gorzCRMmCFvi8wjsHCOKXuY5yk2C4iLXGOtjYZ+SiRJsn3vuOQE/stndPezd4qDk9fnw2aef4q9/+7tejmYJBGkd05CRniGDujEvT6j5q9NexoQJpwrzyMzKwtNPPSmWu/i4eCQkJoiy97jjxiMhMR4z3p0h9TElNTt9+vTXsX5DLrI6ZcLhsIsGODklBQ89eD+uvPJvamFbgOqqKpSVKSp/6y03YdDgQ3H/fQ/h5ptvwL33PRAGpdFHhQCmf/++eO65f2PWzNlYsnQpDj74IMRExwgz+t//vsL1N1yDF16YikW/LxGw0kWBjnlaNQSlxuKbcoxSQPbS6+8gPs4BL81vwn00KBkWOlO1s9+ZjkFDjkD3Xn1hsVtgswPlG70o81oQG21FlI06EAtspJ0Aav1BVCIo0QKsFesxoEsyOrQSUyI74gLnYiP95yKjSERRiovhwQcfFGZA6xwX2yGHHNIAlMg4uHgbMyUuGrIdLlY+47bbbhNwo0hDcYR1sU4yjO2BEjcbLjKKglRIU1yjeEOrE4GArEkXLkjO2x0VAoAGXrI/gpMW28h6OB/0nCDTMDMT1ku9F5klgWPhwoVyLYGRINKnTx8Rwai/Yb+R3fzrX//CO++8Izo2MibqutgnZI4U2ygekh1RVCZ48JnLly8XxkPFNBXWXFsvvvhiyL9Kvx/bTf0TQY96NBYaCNgWGgOogyIw6ndg33NTMQPbzsC7xUGJnU5m8fbbbzfhWMg1ZkXXLl3QrWtXoaXUAWVlZmLY8KECUJwQ38z7RvRNsrhhFVQfNepw0QVxd31v5izExsRi0qSJ+OCjOaLANjs3pqZ2wNQpz+PUU88yLO1hCxuZz/HHH4cZM2biqKOOxLHjjsF5509Ezvpc/PDDPIwyQIlU+Oabb4Tb5cR/nnsBhx9+mCi92ZaA3y/6KXpZ//Pxf2H1qtUNfAWYlTZUCAiNXAT0BGzMkqgzeuGdt5EQ40TAZ0WA+qYQuhnMSfuPWiz48K1pGDniSHTt3RcWmwV//FaAurgOcLtsyHYCqfYgyvxB+INKp+XzW1DtC6LW70FV8R/o0yOtVc++EYi4QDnmnOxkJtrJkAyFOy31hFpxygXMe/gZ5xn7j5OehQuSQMQ5xHv5L7/nguM9FFsoBnL89D0UjViX/lsrbi+44AJZSGwX7+Eif+yxx6StvIdgqQv/pii0o8J2kHmTgRAMdlQIlieccIJcby58BgGXC571sd3sK/7Lz9hOtoWAQmZE4OH7UOHP96cIx38JFryH/cH7+e6sj/WzHv7NviMoUZfWVGE9fJ7WobFPdd8TAAmiunCuax+tnYGR/r7FQYkdd8SRY1BGPUsDx8CwB7fNahO0DwT8GDduLP74YzmKi7cqAAlaUO+tV8xDFMA2jD/uWBx8UH+8Mm2aKMh5PWX7sePG4Zt53+LSSy/FSX86XqGz+BpZhF6y4/Wiph6ASumEhEQBoylTX8by5Ssw5cXncPc992H9upwGoNSlcxe8/uY0fPfd97jzzrvhcDgx9pijZNAoBgYY78hQPDIQm5kaNQAl6emGOqTGYKSuUGzm3++9i+QYlwAItUQ8QCsdafyj4Y7fzXnrVRw2fDS69+6Lwo2lWFMaA3eSE74aoG8i0MEeRDX9kyxkS4AnYEWND6iqr0dp8TL06ZXeqqC0q5N0X19HMZF6JS5MMiP6ApEpNVZKN7ddXMwEjp0BWGs7j3744YdiedyRY2Zz370517c4KJWUlOLQwYMNFbThlGi0iIuRvhY0q6tiQefszkJ/a6prjMUXRFl5Gf75xJOwBi1wOF2YcPKf0KVrZ/zryacw6vDDRalMdkRT/rr161FXx10z7H+UlppqMKUzVZ36mAd9oCwWnHP2mWJ9W7hwEV6d9lID8e2oo4/Fxx9/gPHjT0Kf3n1wySUX4vY7/iGgcNFF5+Pqq5UVhuW22+/CvHnfhKxn8kbU4WjPekNsUkdLFNMx65P036onbKLM/tesd5HmcqCO5jLqw5QWSRXD8kb+GLAAc9+ajsOGjkbfg3ojf6kPv1V40bVTNNYV1eHQDm5kugKo8QcQtFjhMGCv1g/xWdpatBR9eqejUyRKQHPWy35/7Z4Cb0t0UIuDEneZI44YIwxFYGIbXUvIH1u+O/6447B02TLxEwnSEkGPP95rtYoymUzqkIEDcfc998qCJqVnkkUq8375ZT7W5+QoFmGITA6nE6mpKXju38/itNMMpy/TWToBpXPOElBasWoVHnnoATz++L+wKS8P338/DyeedArem/E2xo8/Eb379BKXgDvuvFt0WKedfqpQ01mzZuOiiy7AokW/i94hELRq/0wDdMxD08g50+R53hRjemLWDCRHOVEPm3L6NHkFiPWNlkTD433uG69i1PBRSE/uhQ0bKrA2EIfsVBvqPBakWoE0p3gWiMpKfEiDQQQ8QGmVB6Xly9CvX8cIKLXEKorU0aI90KKgRJSlAnjy5MvU7m6wFN1iEcn0WTIuMKsFxxx9tPg7FBQWhl6Mt6VnZOCOO25D6dZS3HPP/erAl4VKteHo26ePUOrnX5iCBQsXibimF/iF558v7gRHHXkErvjzVU1avU4++U+iZD3t1AmYOet9iWbAeNezZs5AQUG++EfRnaB7j2445+yz8Oy/n8dpp02Aw27HtGmvoVu3rpg8eRI+/HAO5v+2UHGQBkyoISixbWF3gW0tcRq7g0ErHvtgBpLdblBLwZ9tFYQEJToAAP994zWMGjoagUAXFDJEUr0TKUk2xDqDyLJbYA8CdZ4gAlaLpPmurAsi1mKBp7YOFVXLcPDBGa3mPNmiszhS2X7VAy0KSpSZb7zxFsycNTMMMNtjSsbnVMzRKuDzehUpMAGM1WKTxaeiACjZhSzJ7Y6Cx+ODjydMNfYZx0dieXraEkR1tQqZosAxzFZYP/VNVJoy3pAiEerAqxjBTIdj6VNFBR6VqDwTx5AmLFS8+n1+1NVT6cgTZcp6pjgMj3c08GHfJXcA1UwLHp39HpJj3PAHlIjWMAyKluIokgXxxevTMXLEaGzeFI+gOxaVtjgR9zrE2tDZBUTbLairDyLgt6Au6EexJ4iEKBvibB5UFC1Brx4U31rHo3u/WkWRl2nRHmhxUKKSOy9vkwKEEF1Sbd6ef06YVCkWocCJn/KohWESN0ApDBqmM3I8xGuAiV7EoesIcloP3fjQrqFBFpHRJAKqJyuHxcbtDrM+5ZAYimKgYqAofZIRp8l46+2Ckq7L3C+PfvAOUqKi4Q0SBJsudH9UoPQaBg8ejbxNDhRWWNCnVzaK663w+QPITrQjjeEnfUClJwCPWKqCiI2yINbmQUHuEmRnpSMzs3VBifpEWom4OdFi1DjUBRXDtKaZC6099CSmISMUr8u4gP5kjeugyE0zdmjsrFZxCdCexjTO0H+H48D7zc6LLbraIpXtUg+0KCjRrNizZ2/lQW1iKGbQacyGQgtTkMA476WtTXJuTjlf6rNnDUCpEQMyL3INJg3qbwqUtCLcOOqhtcr6ucpyZkBPiADpA8CGVcwslu7ER2l7wKzfS4FSDDwSISB8qsQ8mmFQmo6DB4yGz5KOZStz0btzd7id0dhYE0BSnAOdkyzw+4LIrw0ghn5LdiDaASTZfdiSuxhZnTsiM7P14inpIyb0keEJeB5ToMXHDCoEJDrk0clSF57Mp1me+kuyWLOISyuZNvHr62mKp1c2fXpYaKWlwyDPd/HZBEV6W/O56oxlrPgybSs679Kaily0hz3QoqBE/4gBAw4J6U/CiiWDM2wHRASP9MI2QjPSmhYOYaIZiyFeCYDoOErbCUdiYkdNMRINlMoypt0PzIp5A4x0mw1wVCClPbbNYVZYozpesiPHyR2CUhB49MN3kRIVBQ99i3YCSl9On45+A44QP6X5CzbBU+dDr5QsWG1AEWxISWSYkiBKPTykCzioZ7IGEW31onyjCvKW2YpB3uhZzLAldGgkY9IHT81MhY6VDzzwgPgNmQsdGgkiZFfa70vr7RoAeDAoHtR09rvhhhsa1EHAY/gUHo8gYHFsCE5s1z//+c89XFqR23e3B1oMlDgh6Fz25FNPS1tCOpow9QgtMs2iwmwkbFEyMxV9UDWkRA4bxxvofkImf7MqR/TiDUJGhjHSkPHCl5sjXYYBVOmQzN7ZOqiKQjx1osRUizI3msbC9F0IkI1rwnFxTe8SxIiLL0Ky2wWf4U4gcEzm6Q/A6/HAFwjA7nbA6rDhy+mvod+A0ejTpy+WrS3DmqWrceTIIXBUAOV0hotjCBMLagMUR1VSS7s9CLulHpV5S9CvW0arRZ4kqyYg0DOZgMD5c8UVVwgYUI+nC0GJ3t0Eip2BUlOLQHsg81l0pCSAEQjpfUwHX7IleiSbC4+YsC0RprS7sLJn97UYKOlmhBSzEtw+XPTy1PGvFa8wAED+0ZpmU00NtLymxW5a0NvTuxiRRkINMB+4N0NHyC9DA5jUra5oqm75imFpzZ7WDV5E8xszODUxSKZ3MH/7S3U1kpwO+ENhb1UYXIsvAG99PTwBPxxRTsnf9tVrr6PvwQwb0RG+oAO//bwWI/tlYHVpHDKry+DL7AhLnAUuJ8AznJU1gM0eRLTLg6rNS3BwN8ZTah3xjd7AtIBSh6PDXjzxxBNy1soc6pWgxDNrPCyrC0GM99Adg+zcDB70hjaLbzS+8Dk8hkEPZl5LdkVxkeyJh3sp8hEkGRpFh7XlcYtIaZ0eaHFQap3X2H+e+kt1DRKdTviNwG5mvBM3JXlV2tiC+PK16eh78Ggkp2SgOL8QJaXAspXLUR5MwZgO0eg1fDAKg0BKHGAPWpBTXI/K+gCy06yoK1iMAd1bD5SopGasHYKSDtVBlsSDr41BiWIXvfY1+BBQdIwk1mM+S8izauYjGgQl6ozoB0e9FP8mGHEz4rk1MyjxfBkV5zzxftlll+0/k6qdvUkElNrQgHGh/FZVi3i3U/yKzOGTzM0URTeU9a1nv8PhcCZgU84GJCam4Lc/1mNTURX6dO2MkSMGATYboiUxZRDrttRifZEP2R2dcFYswcCerQdKBIePPvpIxDcqnVkIPDxntqfim1m3RMsbAYmhPRTJDUoEAlr1qLsyi2/6Ph5iZeC3SGmdHoiAUuv0+3afOr+yFgluh1gw6aPVtHiqvvvfa9PRpffhqPQEUVlahriYaFSUVGDRikJ07N4fPft0w8BMN+xWC1wWoKjGj4+/+BUI1GJEnygM7de51cQ3dgBD3hKQqOim0pkxfwhMjRXde6JToj8alddkQTzLRtbEU/VkaAzdwbAffD4DsVFxriMLPPLII21sZhw4zYmAUlsa6yDwa20tkpx2+PxKzR7WXTVsKL/75r13sOCX5TjipPORltYJTocVVr8XleUe5ORUwJHcAWmZSeiXCsQ5rCisC+KnRXn4bNabOOrQZFxy0ZlIaiLVz550ya7GU+IzyGAowlFcImNipEKeKDeLY/QfIqMiWJkLjSo05zd2CWA9/DHrmSjiMRAaQ3Mw3AnDoPD0PMVEPp+WP+qn6K/ENtDlwBwtck/6I3Jv83sgAkrN77O9eEcQSwsK4OiQqs+YiFe3KuoXcxKBms15ePTm27Aub5NEMeBCtAqHsqKmshaw2gGHDbEuK2yWIDwBoLbOD2vAg5uuvxpnnXXmbuXl2lEHNAeU+C5UeOu4zhTbGqcXItPhNXSuNBcdPsMcJoPfk2U15fzIMCQ6HjXrMvtCUY9EYOKz6KNE4Gp8cHovDnqk6kY9EAGlNjYlPD4f6rkQKytFKUu/A57Ls9nscLnc8Ho98NTXw+5gggUfigry4fX6xF2AQfAkNC9TKTmdsvBqaqoNMFNe8k6nSxZdx/SMXUpo2NzuaQ4oNbfuyPUHRg9EQKmNjbNmQozRFD5us71G6rjdikiJF1VQMSXtehFmVtrnqul0VC3VDRFQaqmePHDriYDSgTv2e+XNI6C0V7r1gKo0AkoH1HDv/ZeNgNLe7+P9/QkRUNrfR3gfv18ElPZxh++Hj4uA0n44qK35ShFQas3e3z+eHQGl/WMc28xbRECpzQxFu21IBJTa7dC1zYZHQKltjkt7alUElNrTaLWDtkZAqR0MUhtvYgSU2vgAtbfmRUCpvY1Y22tvBJTa3pi06xZFQKldD1+baHwElNrEMOw/jYiA0v4zlq31JhFQaq2e30+fGwGl/XRg9+FrRUBpH3b2gfCoCCjtfJTbQmrsnbey9a6IgFLr9f1++eT2DEoEi7feegvFxcUNQsS09EAxxROTFQwZMqSlq94v6ouA0n4xjG3nJVoalBi2limSGHOJkSIZc4lB/vnTuHCxszDky88//yxxlQ499NBQyi/GS9q4caMknmQYXGY3aZyxhKDESJSNE1ruag83leap8b18HybUHDly5K5Wu0fXmZnZ9tJQtaXMLRFQ2qPhjtzcuAdaEpQYlO3yyy8HA7QRhJiN5OSTT5Y4UEwuaS5cbM8++yx+//13TJs2DRUVFQI4BJ/HHntMkgQwxG1paakEc2O8qauuukoymZgLw+OedNJJkrByd8qTTz4pGVkIOmwT89MxzC8z9DJ/HQtD8zJrCsFvbxe+a11dnQSvY8hhZoc5/PDDGzyWbWNWGBb2U2ZmJux2u/zN2Fs628zebquuPwJK+6qnD5DnNBeUtscsyHa+/PJLPProo5LhhKznH//4B8466yyMHz9emJDe3ZnTjVlw33vvPVxzzTXYtGkTPvvsMwGCSy65RESl008/HbfddpsADpMCMD44w/HeeOONGDx4cGh0NCiRKf31r3+VRcw2EsTGjRsn9fO5r732moh6evEyjjjzyd15553yHLaXaZ2YcZfX8H2YgWVfgtKcOXMEkBjNk8DCjMJknsz20rdv35D4yNDCBGECKDPLEPSZloqAzn4wRwPl/StWrBDQp/jZOBsx34/hi3kvM8Vsj6XtiFFGQOkAAYt99ZrNASXGzOakZlxuLgwuBIpbXCBcxPPnzxewIZtZuHAhrr32Wpxxxhm45ZZbVFROQESxO+64QxYS/500aZKwoV9++UXC3x533HGyQE455RTJssv8ceeffz7+85//4J133sG9994r1+hiZkpcgDpkL9vGRUZwIii9+OKLwobOPvtsuZXA8+uvv2LKlCkCegQ/giLjfTcWjfYVUyK7ZLhgMk2KvQRrxjXPysoSUNHi448//iiARfbGdyIQMQQx2RWBlgCmC+8jmyLoMvkCrzcXbhZMgcVxYRp2Pp8gyPHSgEj2xn7dHhuNgNK+Wq0HyHOaA0oUt8hoKNY8/vjjkrWWTMMcY5uTl6IFd32KRgQBshsWnXmEjIqAw8woJ554oiiqCRAEJSanJCiRKT3//POS0eTCCy/Ec889J6B0//33yzVNgZL+bOXKlXjmmWdEPNSFz/v8889lsZ155pkCQmw3gfGmm26SmOJ8ps7QO3bsWNx3330CUPsKlMhoVq1aJQDDviEgkd2wzQRughLbQ30dgYPvQ9GOIhvZDoG8qcJ7+ZORkRECJb4n45wzSQN1ddSbEcxeffVVXHzxxTIWP/zwg4jf3IwIWo3FyIj4doCAxL5+zeaAEkWL22+/HUcffbSIQtT5ZGdnN2gyAYnf8adLly7ClpiNhIuJi+7//u//ZJHdc889cu+pp54qjIBiH4FpxowZsmMzGwoZ1ujRo9GzZ0/5nLs+QYlAtj1Q4q7Ohc3UTGPGjAldRyAkyxs1apTUwQVMRTzFO17L+tlGsqXrrrtOUoRrkWVfgRLbTqbCf8mavv/+ewEcshv2EUVLAggZEkU0MiCCii5kSY2ZEL9rCpT4HLJT9jXBmVliCErffvutiM/8m7oqjhUTNbBenYS08RyNMKV9vWr38+c1B5SoeGWqbk5cUn6yDKbk1joMTl4WLn5OeDIkAgP/JRN56KGHJNstWYwWRebOnSu7MxchQYBiCVkC62YGXu7YXDQUF6lDIXvZEShR73TXXXdh6tSpAjKsl/8S0NhOikU//fSTtJ/6p3fffVdAir9T3OM7EkgJSrrsK1Aic6G1sXv37tJegiXbREAi+2OCTp3ZhSmm2GYyJr4XNwN+Rx1e42IGJZ2NmH1A0ZZiNIGHTIh9QvGVmwPbwlToBEYCIYFqeyUCSvs5SOzr12sOKFFPxAn74Ycfyq5NEYiptamf4eInwHAHJmiQcVB8I6hQAU3dE5kVxT9m1SUoEYS42MgMmL+NC4H6Iv5O0YsAlZycLDnfqFMiUJBhHXvssU0yJdZHUCJLIxCyTVysBKWvv/5a2kYRhJZAiiXMN3frrbeKnmrChAmiqG9NUGL7KUZRLGa7yU50mnPqmQgYixcvFvZElklgYf/wut9++01Y587EN9ZLMCKAaaU2+2n16tXClPg7xWSOAZkS+8Sclbip+iOgtK9X7X7+vOaAEicoLVRUjlI0O+ecc0DdCxWgBBYqjZlC+8orrxTl6/Tp0+W666+/Xnbip59+WhbZ3XffLZOehUpmsoMXXnhBAIygQ2sdfyhGUVQkgNBMzwVFFqPv5f1mRTcXFNkFFfEsZABczAQlMgSCKhcfRUIqfckgqLdindSR0VpI/dbDDz8sLG1fMyUCOQ0FBMt58+YJ8FOfw7/ZVjIliqZ8FwIU35fZhKmDokVSK6gbuwSw33gNAYwGACrEqTzXhfWQjRHo2GdkYRRtWchOeZ+2REZAaT8HhLbwes0BJbaXuysV3bSIke6bC5kORSEyHC4QinFkINzBqYil6MaFRuU3RQKWl156ScRBiitcHPx+8uTJojd56qmnhHERVLgoqGdq7MDIOgla2jLUnCMhFDcJnmQO+t3IpsjezBl3uUjZnuHDh+/VISNoklFSd0fwoS6NYisBlP1DwGBbCbxsO4GJjIfiG8GXgMPNgSLfjkpj8/6uOJDuqL4IU9qr0+LAq7y5oMQeoghBSk/nyMaFlqFvvvlGFhYVr9Q5sVAsIQsgkDVO9c366ETJHZnMSFvzKErR/M0FR7DiIm1c6IZAEXJ3Pbp3ZcTZboIVdT2Rsm0PREApMitatAd2B5T2dGdt/AK6vsYsJ5yYk9mCQ/nQW/T9I5XteQ9EQGnP+zBSg6kHdgeUIh0Y6QFzD0RAKTIfWrQHIqDUot15QFYWAaUDctj33ktHQGnv9e2BUnMElA6Ukd5H7xkBpX3U0fvxYyKgtB8Pbmu8WgSUWqPX969nRkBp/xrPVn+bCCi1+hC0+wZEQKndD2HbeoEIKLWt8WiPrYmAUnsctTbc5ggoteHBaSdNi4BSOxmo9tLMCCi1l5Fqu+1sEpTo7Wq329puqyMta3s9EAwCsMDr84XaZrNaYbVZ215bIy1qsz3A83h+v4oqymKpqq7lzIqUSA+0SA+09PGRFmlUpJI23QNqawuXBqCkjgZFzge16RFsc40LQgiT3uUi58va3Ai1hwY1OKOomRLFN4fdFjm02B5GsM20UQGSxxsW31zO3UtT1GZeKdKQVuiBIDxeFTW0gfhmtVoQ5Xa1QoMij2zvPRBRdLf3EWz99kesb60/BvtVCyKgtF8NZ6u8TASUWqXb99+HRkBp/x3bffVmEVDaVz19gDwnAkoHyEDvxdeMgNJe7NwDseoIKB2Io96y7xwBpZbtzwO+tggoHfBTYI87IAJKe9yFkQrMPRABpch82NMeiIDSnvZg5P4GPRABpciE2NMeiIDSnvZg5P4IKEXmQIv2QASUWrQ7I5VFmNKezQF6Mu8oFRRPW+hrzGmi9DnD/SF1VASU9mwORe5u1AMRUNqzKaEBif8yOy1BhhlrWZoCHP0ZT9fzuggo7Vn/R+7eD3sgAkq7N6iK6ag05gSYadNexSOPPCzAxBTiGRmdkJWVhZSUFHi9Xkm1zUy/o0aNkpTnnTt33i5w7V6LWu+uCFNqvb7fL58cAaXdGdYg/H4/amtrMWfOXDz66GOoramXz6zWIIIIIBDwIwgvfL4ALLALI9IiG1OMX3vttTj99NPRoUMHAbH2zJjaCShRzm4cRoU7y7ahVYKMD2X6WF+iaHEToVj4uWxRnEz69yAsVrVrWSzWBjL+9qZce54Eu7OMtndPBJR2vTc1qFRVVSEnZx3uuusurFixRrElPwSUgkGfgBLnZjDIvymiqQCMvI4im/7p2jVb6hg8eDCioqJ2KM6Z9Va6xWaga/wW+zI2VpsEJe4K1dXVBhgQSBSYbBuBzgw0xremi7jH6Pg+IfzS4AO10wggqRFugFlRUdGorWEb1OArmV7J9U3L9nLFrs/IFr6SuyV3SJerdaM7REBp1weWoJOfn49XXnkZb7/9NsrLy+ByRctGaLXYBZQCBKWgX0S6YJA/FjidbiQlJsElkTw454KwwILy8hLUe+oFmI455hh07NgRdrtiVbpsq0hXU1/N74bzNzzvLfJ8Pff39gbcZkBJFHt+P3JzN6CmphprczbAaXcYSKAUfWF0J1IYWGKAhQIYwMLPudMY17MzNeboO+Ra0/0ELys/MmR6u9WGnr16YcWKFfDWe1BWXoa62ipQ32iz2mQaWKxhsAyxLAOXFNZZjekSRkkV6tMfmgCNdyuCijQCAQTlfg264TpC00azO4IkgoiNi5VJmJ6egS5duiAhISFE73d9mez5lRFQ2rU+5Njn5eXhzjvvxKxZM1FTUyvg0K/fQUhIiIfX60dVZSU83npUVJSjvr5OAIjXdOnSFWedeRYGHnKIgBH1Th6PB199/SXmzPkIlZUVmDz5UgEn1mWzEeB8KC4uRlFRMerqWFcYiBTIcPEAatapzZqfKrYWhNVihcNph0ERAQcAACAASURBVMvpgsPpQGJiovxwMzTXtWtvv+Or2gQo8aUJRkuW/YG16zegorwcKampiE9QL20lEEjHqUWqGYv+XS1/C6w2C5ezXGWn/CVoxOuNTjaAQnc4rBYEad1AEDaLTQGNDIYVDC1NheK61SvwxRefo7BwEyxWK7z1Pvh9Guh4LQdR0Wu9a3FHs1js8lHQonQCnE0eT51MHr3TmCkxf4+JiYENapdU9wUVyPLf0C6mYEntWlYRM+V3GxAMBBAIAueeey5OOOEE9O7du8kdsCUmzvbqiIDSrvUuAeL//u//MHXqVFRUVCDAgYMFPXr0FEbEeVJfX4uamhqZh4opqc0pOjoKF144CWeffS7sdgdsdhsYD93n8+CSSy5GTk6uAMbDDz+M/v37o6ysFBUVlfj1l/n44cefUFhYKAwqDCgUCbXUEJTPhVEFAvDUewT0bDarzM/EpEQkJMRKvSNHjsSgQYNlM1QiZMtICq0OSnz5TZs34+Vpb6BwSyHOO+9C5G7YiA2bClBWXmESnRQYCRBZFRhoOimmUPkByHJIaaSTFHpJZ5Hh6OuI+nYJam8j9ZFdQL7n76ybeiS/FzlrluO/cz/E8uU5iEs6GDZHMhDkziBIYDCZ8K4SBk4FUer55D3VqChZhaLNS4UF8VuXmzTdBo+nBgFhTzbY7S6M6jEGdlcq0oJ+2bUEJ2XnCguHWpglm1ISowLjgM2HX/MWotRfghNP+hOuvebvGDhwYMikvGvLZc+uioDS9vtPi05UTcyePRtPPPEE1qxZI2yEGyHHMaVDB5nzpaUlAkpatDLrj/g7Aekvf7kSMbGxoj+i2G63WXDaaadhw4YN8ndSUjK6d+8ujJ+gZrfZZdPann6Ic1bmojG3eZ3X64HfYGICjiJCKvaUmpqKa665Tqx/iYkJAmZqTe7ZHGp1UPJ6fXh7xiyUlFbg6CNHY/nq9dhUsAVbS0pkt1Dil1I4Cx8KxQ4XrqmYBZkUV6/VAofVDotdAZL4d1itgvKSWcMMTPyM7Ij1ChgpcFJ/B1BRtAlvTHsZ63PKkd3zInTudQKiYrIMpqbBzmAxApLGTqEpsIWUVyGJH3XYsulnLP7pOWzZ+B183ipk9zwEFkcM8nOWwFtXjYzOI5CefQRuOHoi3OVxGBEbi2gyLiuBie/Cd1e6A9UFQXl/JSMqkAw4Anh7wSx8tfEr/C9nHs4++0xcffXV6N6jxz7TdkVAacegRNYxf/58PProo/jpp5+Ehchi9ytdUUxMtJj6Ka4pFYGaY0qsVxtgMBDEEUcegcsuvwK9evVEfHwC4uJikZuzHhdeeGGICTnsLng8PmOjhbAqtaGH1SFK7xqQNcLJFB0Tjbj4eOTlbkBlFcXHWgTM2UUMiUWrRYYOHY4777gDh48ahagot4iKBhfYbWRqVVAi2n7z/Y/45NPPcflllyBv42bk5BUiv2gLSosKsWD+r6j31IWsYCHZ1RgnYQ+GGBMdFY2hw4fD4ogWgFHpfWyw2sMsiCxKPtOsSMQf/igAk+Gy2hD01eLrz2bi47k/ovtBNyG79xmwWgPCXJTIqABRBtiYNwKA/Fg7sIkIp0CJjCZotWBr8VIsmvcANq35FJldesPqjEFB7nI4XakYc8o/0bn7segW50e/jRuQYEvFQKcdFptibhqUtIFQzSvhYyHGSJGPwFzsK8atn92FpZXLccbpp+LOO+/aZ2wpAkrbW4v0PwoKi3nppZfxwQcfiH5H6RiVtS06OhYOhx0ejxcul1OYhyx+A4+4XkT5HQgiOSUZgwYdim7duglbIsNfungpPv/8v6itq5X5T+ZN/ZHajC2w2R3G/FRzPWgJyIZHwp2VmYXevfsgo1OG6KEefeQRlJWVAVAOnFp90Fhp7nA4cc/d9+Ccc89FQmIiogWY9syJs9VB6d2Z72PR74sxedKFyNmQj9xNhVi9cikW/vIjVqxYDo+nXnYTQXkLQPNpbU2N0uBYLIiLi5MB4O4y8JBBGDLycHRI7wqrzQ6bwwa7zSaDy46yW+0CSkpPpcCIoMQBI0vigrbChnXLF+GdN9+AJzAQg498XCQ2KsKFSSmFjiHBKc268ro19FqGjkf0SoaOSkDJxgqsKNr8K37//p8oyv0e8NcjMa0veg++DL0OORcuZxTswSD6IR9dNnnQt2M6OohbAusPi3AyRw1xTgGfISYKKFFJDiwrW4E/vXAaLpp0Pq6//gZxvNsXJQJKTfWyYiMEky+++BIPPfQwSkvLUVlRJZ+rjYyM3i4gFAj6RZ0g245x7ESPs/BkLbJTxJf7bPB4PcKgqAfyi08T4PfRZQCKveg5rq11stFZ0bNnd/Tr30/ArWfPXoiLjZH1NPWlKXj77bdEQW62wmmA0u1i3ddce53oMTumpYkY53Qq8Nvd0mqgRFmZsvW3P/yMeq8HA/r1xer1eVi6ZAlef+VFVNdUya5AEGKhjOx2uwX5qSTkv9HR0fIZO4CKu4KCQvTr3x9nXnQ53FGxsNptkpVFgZJNQEn/LmAkLET9iDxsdGTOsgV4ddos9Br0BGKTeil9jijElXVC3xMwAEB2m9BuonxHlHhlaH+sFgQIXgZIbS1ehpItK+D31yE5pQvSOw2HzRENm4h8QLzPh5NiK+DM8aFXcgJEi8U2WCm+aWW/FuO446nhD9j8gk8BiwVV9dW4e9596HRYOoYMG4aTTz55d+dIs+6LgNK23aUYjhcbN27C88+/iK+/mgeqLerq6kMKbBGjtNldWHsYkLhWZNOjiG4ooP0hFwG1aRHwZLMVv7qAAJQcPTFUE0rHqeq12e2iqB44cACyszujc3a2rCXWQ2nC5XKguqYSxx57rNQRssCZjruEgMpqw+mnn4FLLrkEPXr0QGqHDoiOJlva/WS2rQZKHDqCyPxFi9G1SxfERLuwfNVG/O+LTzDluWeRmpaKstIypKd0RkJUItYVrhC/DIITrQdVVZVwuaPQNaMntpYXwR/0CFiRTl7+t2vRpXtfNUgEJQEmu3S4fKZ1SIZCPKQwJ+2EBfmrl+K559/BkHEfwi87mQIja1CrIxVbCtiCIpYppbuajGQ0VGBTTyXyP1XQdMTk96L3siIgIp1iWXYCoiEYWhEQYHIG7ejmrkK/vI1IsCWhd3wsHEE7YKUSUgRIAUhVrwFKwt6UuwGf60cAi6uXYXbZbBw66BBMnDipWeCyuxdHQKlhz2lGQcb/9Vff4NHHHkddLdm/dxurWkhOg1V5cIsKSfnasR4qqX1+nyijFSiow7uKPSkGxc1ZdLAB2pTJuhRj5xyPiY7FgIEHY/CgIcjISEfH9I7i28Z7uK74e5TLLbohl9uBa6+9Bu+//77odrVaQvsr6bek3xStvNffcINY4zqmpYp+S9xbdrO0GiixMzfn52Pp8pXo1b27sIA/Vm7E3Dmz8c4bryExKQGV1VVI7dgLteV2VNfmwm73IDY2NgRKSQlJcDqS0CkrFevWr8bWrUXSwRdccjkOGjQSdiqzDdOnMpuGRTezJ2zIKUworg0b/piPF6fMxKCxHxqiE/GDoKTHXp1T0ho9uZ8MhmZ5wSLKe8pXiQyJv4u4RRcEYU3KFYH3CJYElQuCMCL6hMACN4I4xLsZBxXXI7tjBhyGL5UY3FiPgJKBhIYIZ7Eq2i5gaAtii70Ez655BoMHD8LEiRN3c4o077YIKG0LStTNvPP2u/j662+Qm7tRjopQJUHgEWARi6w+VaAUSDJ3Aj7ZQMl6RJTjZuPzyb10S6GYp8BK+RERgCh6cWPmtuUPaG9wC+x2G3r17IXJkycjKTlJ1gl/nE6nSBu04PHH7XTB5XaKJW/N2jUYOnRoA3cENb3C5jVio9Ppwj333IPxxx2HtLRUJCbE75ETb6uCUkFhIVatXY/szCzxXCVT+uijWZj1zptISkoUhV2ACzxAlsMBDEjHCVOqrEJGp46orKxFp05Zontau3aV6IwuuPgyDBx6uBLZjM7XYpvWJylWE3bRV3obogeQu2w+pkydiUHjDFAy5hn1PVp5LVY6DQbiURsUduQVB0uLAiit6JaHqd1MgZLaAcX0avhT8VKnGNVoFSQ4BZBpqcLRlkrE5nmQ2bGDYkhSBxma0okZwpyh2+LnSnyDLYhiWwmeWf0kBg8eEgGl5mHrbl2tRRptcqcD5Jw5czBz5kzk5W1GeVm50hnJj2I6YedexXrISlh4r8wJp1MZOqgT1fpQmxV+vwI2zZzMYMF6aP7nfBTHYCiXGPr9HTlmDE4++US43VGilKa1jxY35RTphEM2cqUPYv1nnnkmvvzyS/m96aJ0qXffcy+OP/54YUrJyYkCdGbwak6HtiooFW0pwtoNG5Ce1lFe+o+VOZjz0Uy8P/NddEhJFr3R1q0lSEhIRGxsTMjVXYlvVcjMyoTTQSsF5WgLVq1aqUBp0hU4ZPhh2wASAaopINJKOf1v7tJfMOXFmRg0fo6ISdRRa08EzZCUDxEBwvAiNxTcAZvh7U3AsBmHJg0gUpY45bqg9UAh0TEImRDwq13IagnAFfCiT00RhlTWIDMlHbGG+CcMyWBMejLSkiIOl4Yoz2dvtW7F0yufxJAhEVBqzqLY3Wu1dYwm/lmzPsDs2TNRWlqG8vIK1FTXynzmD4GH12inSDIcNeYWREfHyMZLtqM8uAlcZMDK0kqwEcOMjYzIIfPd5/EYiu4AbCI20emWCnBlyCFzp17IYXcgKjoaY8cdgwsuOA/JyUmi2CaAqM1aW9kMZhYMYtmyZRg2bFioSzTwhsQ32dxtuOqqq0W3lJmZjtQOyaKj2l1ldyuCEsQkumHzJqQkJcPr8WLJ8nX4ZO5sfDBzBjp0SAmFcWgcJ6agoECBUmamDKBQ22AQq1ZppnQ5Dhk+Ck6HI8SWNEPS/2pwCjEkgzlxV1r3+0+YOvU9DD72I9ho3dA+IiEnRsOFwNALaa9qgo3f8CkiOGhRShpogJGI/wabEcZk0HIh3OKDQpLF34MIWPzIdAAnOUoQv74ayWmpId2BUpqr3ZbvIEdklCwooBewBlFiKYmA0u4izC7cZ16g+vdnn30Wn376KbZuLZVjJPTWVuCjwEXpgfSRqfAJhfDjDPENNrjd0UhKThBRyO8DaJAzTlGFrMAEK7Igimc+rx9+n1+Og4hyGoBDzr4xnboXTgeNQnZER7lwxpmnYfKlkxEfFyPuB2azv/nVGSKlZ8+eYt1urE+SeSdT24rTTzsDEyddjB49uiE1NQWxMTGGfmsXOrLRJa0OSnkF+UiMT0BNXT3+WL4Gn37yEebMfg8pHZINz0DzgVjFInYGShdefAUGDR8Fm0NZ27RLvfgvmV0CzJY343dOmPVLfsGLU2Zg+LiPDalLnZVTdFRZNCizizOjBiYqrCnX25V4RhlMBswQsUR0M84TKR8jww3ScIBU/xj1E9iCyvfbiSB6VuVjRGUJMmLTEBsfL2Z/DYTim0SPbrbDznb5le7BGkQpxbc/Ikyp+cti1+7QQMTF+t133+Gxxx7DypUrsWXLFlRX1xp7kT7MKltng4q3F7xN1atEKHWNBbGxcYiKjoHT7gwpnUWJLiIgD+4GlGRgs8sGrc9YUqdqt9hQ7/Mo8LLx/qDM4fPOOxeXX3YZEhLixBhkPiaiRVAec/n73/+O119/PbT565dQm6Fypxk2bAT+9re/Y8CAg5CWmoL4+LjdVna3GijxxbZsKQZBKTYuXujtqhVr8emnH2HOB7MNUGrop6FlVDMoadm1AVOadAWGHX6ksrwZoKQBqSnxTbsEqM62YN3iH/Hi1FkYMXaOYe1S3tkEIYEjobnm4yXU71B0IlBxJtlEwa0V0YrVqLo1sxEzrmG1U7uN9lYPirhI6sO2kgFlRgUwHsXokF+H+MQUORojz5PzcUah0UUU3/xc+UWVW0rw1HLqlAZHdEq7hjO7dJW2qJEBVVZW4u6778HMmbNQWlYWsoxZrSpiAxc7Nxu6BHg9PoPBqM2MIhp9evg7FdiK3ahNhv5B9M2TOWCAjJ8gxCMpVitcLjcS4uKE5Wgxj0BGVRXBiaJdfX0NbPTNs1tF9wR/UJTSPCbCtvFJEydehAsvOl+U0yIaNnJ85DsuXLgQo0ePlrYotmTuJnVSonPnLrjj9rswZAjPwqUiITEOTicnZYOLd6l/WxmUirAxP192geqaWqxauR6fffIhPv5wtnisqkGvQl19HRITEkK+FAqUKkXBzUHhoHHwV63U4psGJbtY3xyGs6QZmEK6HMMDOywiWrD29x/x4pTZGDn+Izmsyx91vfYgV1CgRT/1nVYuKXDwy7E6enITWKgIl6ljKLcNVmQovtWuRABW4peV/4WQihEMAuhRtxVDKvKR7U5CbEqK4QqgJgj1R8LIZLaotpIplaEYTy8nUxoaAaVdWg67dhHHiwxiwYIFuPfee8WqxhElM492RyGGYGF3CziIIjtoQZ23HtVVVeIKQMfe2JhoAQiKXRyv2toa0asyQgbBiYrsmNgYOOlQCT6vVr6nukIdmA2grrZO6mdECFFjSJwlI4Y3gnC76W9UBbczKqRQt9scwqycLqd4j/NZV/z5cpxx5uni+Oig07HJx4jPJPujFU6BsT58brB9MdRYEB+XiAcfeBjDR4wQUFJi5+65BbQqKCmd0mZxr6+uqcHq1evx2dyP8fFHM+WUM02pTpcbMdExqKosh9s4eKiZUlJiB/h99RRYxFqXm5Mrir/zL74Uww4/OuQOELJaGNY2fXBQA5EZoNjx65f8iqlTP8CIsbNhMY6XKEOawZZC4GT4J2lLHCGBpjPtk6Stc4JIimUJbBgim4hzMqjqO2WVo+gWEJ8oA6kQtAbQ0RnAEF8xsqp8SItNogecABiDEYhYIGeX1Mak/KCCKLUW45ll/8LQIcMioLRreLPDq7S4RnZEcYYHanNzcyXwWnKHVCQl0UXFEYrWIGMqESJoyWJkyTpDQW03zmIqCy7ZkafeK4ue4EQm7rA74fX7hPy66CAsW6P2SVIhRbSDJdcJwYPWNZrzCYJ0F+BsczpcqKmtVtEoCZw2pfQmGNICp3ybbLjpphsxdtxYxMVGhyJX8rqcnBw89dRTeP7551VbTSHIZEUoy4885+GHH8Vhhx0ubgEpHZIEFHfHAtcmQMntikZ1bQ3WrMnF55/OxZwP3kN8QjwqKsowoN8QxLo64efFc+QsT3x8fEinxI7ulNwNQWcAJaUFKC8rg9Vux/mTLsPw0UeH9EdmPZJZfGsKlKiQzF36K6ZMfR8jx76vRDYDZ9SZRYM1aYdJQ5ek9UQiYxu+SDIgZEFynEX5nhgUy/BzUkCnQpRoMFOxnbSwR2dLS4DE3I9MTxEOrSlG15gOiEpIlI2R9WrHOVYhdhwBJaDUVoxnlxKUIkypBTBJ2AYtZzTx/+Mf/5AFyzF2OmPQJburmNd5xEOU2tQJBryie9RWX35HSwYXtpjYRdRizDClA6r3EoSswlZ8fq+cgeM93JR5+oCD6w+yDqC+rl7cYOjoSLeBoqKtsl54cp8sSM54igc3Q5r44Q94BOjUURYq3C2yydMix7+PGDMaF188CT26d4Xb7UJe3ibk5KzHCy+8gI8//jgUckfpUsPqCGOKS90KlEZKSN4OqcmIinLtlgWulUGpCBs258Npd6Gmrg5r127Efz+bi48/fFfCLvCMW0xMOmLislFVtgS1nnqJ6UKmRKsGB6CmzoL+fXphw8bVKMgvFD3S+ZMux4gjFCjpIyiNwchsfWtseRCXgKmzcdi4j0SXZNPxkuj+I0fkwmfgwk6UBAgR9EKnu8Min7KMKZFMi25K3NNYpLAkHDdJ+JNhsaP6iswnK8aHg+tKkF7lQYfEJFh5YFdcA9SSE4ZkqFPJxrbatuL5JU9ExLeWQCTDwvvHH3/grrv+IQdqtTogNTVDzOtcmBxT8UEKWuCDXxgv/YVoBNEe2HR89HjrEdB6IxGXyGCUDxM3GR6PIiApa5pTNkbROQWCYkmrqakSMOEcj5MDuTYUFRdJ9Mq42DgkJiapqBkOuzgE19XVKkJtiGYUw9xRMcrR0qJifV122WUYPnwoioq24KWXX8Z/P/tM6mWbGMJEn9HTagjFmpTOiEzp3nsfwOjRhwsopaalGFEDmn8Grk2Akt3uBD2Bc9ZvElCa88E7SEnpIOEbamvqEOWKEjSw2/UZtwKUlZUjJSURXo9fTkmzxwvyC0KgNPKI/2/vOsCrqrLueiUvvYdUeu9VqoIgiqg/9q6AvY1dxz7WsWJBUZqKoqOgKCIoKigqKhZUei8JpPf2Ul5e+7+1zzkvARsZDRgm148PSV655dx191577bXHaEeAfStuJjraH5TMuuVJ3rvpR7z00rsCSvxcm4CFIrtlcamIVTmHmJ43Sdm0z1KgF86Q19pbKVBhU+9TWiWlxhXWiSGRjpHkUprKnW7AtcGL9p4S9HOVIzUyDiGR4UoWoCuARoJAcPJagTJrMWa1gNJfBEkKFF5//XVcffU1KgWykZdxSMsGH5YEI2lgla5/ao5CtYWtKdjQIkQZqDHKIb/E6JncktdH7yIlUDSfExREt8dgEePKtfWrfeCAAZfLGL/5hLshL0sQY6tVRVm52JnExscGfMRoP6LaRQiASrTJ9C1AlMMnnFJqagqWLVuGisoK1QQPGxITE5GSkoSsrL3ieeaXSMusfRLxXPp23Hfv/Rg1ahRatUpAUnIrASWmho3d/hagREuF2upapGfkYPknS7Hk/beQkNBKLgCbFu1BbBIMlqcEb2ZGSspWQVl6KN2HuqFJbJ8/6TIMHzU24JO0vzbptwDJPAn2bFqNOQSlsYvF3sEuesf6vjf1dCAPpC+McazU3kwCVNwfLQFQHjamEBFwRApETcZa17wmwB0wDdStKEqH5Ef7UDe61JQhDVbERIbDwkZikR6oS+/lwtWK8jJLUQsoNfaO+J3XU/j44osv4rbbbpc0iBcwJjpWxh4RaKidY3FGrS+bUA2MVIyKW0VWypqWgKR4Hz5ole0zf6aWjQWuOjdqpXpmUwUergWvao4luFCTRPto5nRszmUhiL7y1TXVKCkuFvfW5JRUSSlVdc8roGdAgukjuSrT0M6oi6BWU12D4uIitG7TRnraGIV16twFPXp0x2efLsPcua9qoDXFHkWQMhq76667MXr0aMlgCEr87mYHSgWFhcjMyZVqhKu6Fhl787H8kw+w+L35SGiVqMvdqnKlKT5ZMvWg9MsVxIt+7qRLcNTo4+SG/TUOqSEo1SN+PWmXueUnvPzSuzhy7PuwWNgkq0BFu9BImqVASlfkjHGW7m8zoFVPjhtE0ha2yuO2HpQCbn1qHwhEAY2AjoQM7233u9HOV4a+fheSIqNh08I3UZYTlLgAZWf9qLSWYOZ6pm8tiu6/ApvKy8vxwgsvYMqUJ+XikatJbJUsHQWmPYQPT15DtmoICFkVsWxEjlLiBwdNurWWSA184OvoEqBsepgy+QVg3B6PyAb4sBX+USIqxTdJmR9+iZrY8cDOBz6gCY709eY+MYozpXwh6rXjAH/HtJAtJoz+aX3CCjbBi5U2Ntf26t0L4WHkydQklU0bN+DWW29FTY2qEJrqs25Xx5133o0xY0ZL+packiiRIkG5sdshi5R4gqgWzczNk1Kmu7YOe7LysOzjD7D43flISEz8zWP5Y1C6GEeNPl5pLn6lv21/OYBkSsb/xQ9kbVsriu6Rmui26SZZnbVJKidApZtqjZeSUECS15nfNSDGyS0IiGk/ZB1lNQRFUQRQa6IBS6BL1NkawLRYrVOIE52qSpEaGq5SBJEdKPJRyG79+nJbMWavbQGlxt4Uv/V6pkbTpk3DCy9Mh8tVh9DQcERHEQg4n02BkGq0VQZ/sqYCMg021tJxQgFWTY0LiUlJ0rlPEKmkT7fMeVN0g0ROXhLdPnjcbm1LQvmALeBWqaadEMhIqAMxsfEIDQtBbQ3bWDzIyd4rcgF6jhkHU1Xtg3hvE+iEnJfoi8ZyBFQrbrnlZnTr3lWiOh6CEmXakJ2djSlTnsA333wtfJY8lrWPGN93xx2MlI5GQny8gBKB0kgeGnMNDhkocScLCpROiYmQp9aFvdn5+ISgtPBtJLRq9bugRKLb2C3wpBP5CXIqUroYR405Xhu5qWpBw+ioYdXNgFGAGxJQWoOXXnwXo455TwDIrq2RlB2t0iiKJM44Rui8S74n4ExpKmpcoMomwPguaXm4MSDR1QztXKkJUaG9BQVpkaInrcj3WRFlr0OiswC97VYkxEfD4iDBqtpOKMgUOxWRBBTj5bVPY+CgFvFkY26K33qtKY/Pn/+W0AeMktgKQpKYUYaaRmPkrMpY0AhmjS+R0ggFoVvX7hg3fjzat28n6u+fVq/GJ598gtISjklSNtAEL3noMFJhTORTfJMi0tXaIDdFUGQbCG1s6a5hswTBVedBWWkRSkqKZXquROD8TCq+GV3V1kkUQy5MqnxeDxy0L3GEoH+/vpg0+ULhqaIiwyR95L3Ge2zevHm477771CkyY8nk4WwTs7fjx41Dok7faGHSbEHJx0oFI6XsPAEltpkwBOTJY9WgylktjYREdZO+GUBixMWSqJRUXS4UFRXj3IkXYeQx47XVbT0o/QKctHhR19K0S4AfWVvXikvAMWMWBoz7SXazSdYAS73Zm86ttYmWWoTKOldjSsBX25DbqmBhIicdf2nL3Pom33q9k4l+VDRE0PGhe3AFutVUIyYyFvYwEpLKysT4K5F/qrCW4OW1T7Uouv8KRAKwevVq3HnnnVi3bp18Ynh4lDxYFKFrh50NstpkTTSTegQ3QYScJ9MwAkGnzh1x8oRTRWiYmpYqIJOdmYmbb75ZBgmYaIsgItIAl1vWPlXcSt3N9I+pGyOuagFF6TKwWmSyCLV95KI97jps274FCfEJeuSW4qtM9EXeKzyCoFon9w+JNTZntAAAIABJREFUbxLWjKWenvqUENxxsdHCjSnluVXkAbTBMcZv8jAXYteCq66+Bv930olITqJXk/JVarag5PH64XW5sTevAB8tXYKlixQoEb27dGmHC887A8uWfY3vVv8cACWjbDXWD/wFET09fQ/OuXAyjh57gkrdTFm9gXLbREdSSWswFsb8nKDE9O3YUQvFRoQ+RWInYhpyhcjWRLeGF+nc1pL6hgb/hoSW0rDR5+u/BZaUpaQaDWVh86QKy9jlLdU3MYvj71Ra6LVahTfqGV6DVpWlaBMejtDwUImmGGsLKFGyZ4NwSnN+bgGlP4tJpg9sxYoVUjaneFI5NZKEjkBoSKj2PyIRraZ9cDPgwv/nUACCF38XERmGXr364Mwzz8bgIaoD//XXXsOcl+egtLRU1okyayOAeKQ9hcDDiIaRjVTrtOqb5HtlZXnAz5tAEhEVCQsYtXmwfftW6RSgw6QmZ7XtieK56BIg/JTHi5Awpm8Uf3oxZcrjaN2mtfSxUZhMMOV+fffd9/jHP64Vlbekqdpml9/BhtzTTzsdaakpAVAimDV2O+TpW1ZeHtxuH3xuD/bm5mMpFd2L3hZbTVYXhh3RA08+fhvefHslXnz5dXlSkFNi3s0IqSEo8YLRROvsCybhmGNPlJtUUFwT0Lz51VQTHT0p0ZDSF2mvJAJF9va1eOnFBTh25LviDGmxekSbK9GPTuV0gateBBkgw02V3kRLOi3TV0aAyYiJzFNGyE/uh573JryTrd5ZUoBJldh8utIX7XcjoSYbPUNtiE6M46oPlODIKdGoshLFeOWnFlBq7E2x/+u5NggwS5cuxT//+U+JyFWkFAkKf7kxMhKRotctaRdTLbfHLcBCKQtfJ6SvxS9aovDwCFx26WU448wzsHDhe5g3703kZOco8puUgY2Rier+58aHnrE+IdFNixPKEbgv5eWl8jtW0iiI5APdZnPAZvXLBF5SHTGxsYgMj1D+3SLsJB/ll8+hEJP/VtIaShRsMjZp7NhjpLxPDVYIleKAeJk988xUTJ8+Q45XliMHHHj9OO2003HBBRegXdu2Akpsym1WoMQLTU6JoFTn9sLn9iI7vxAfLVksnkoky/jUGTGsH5584l7MW7AM06e/GIiUeHMzh28ISnSlpA/yWRdMxjHHnqDSMQEgxcWYQQEBojswN62B3gh+5GxfJ5zS8SPfleqbFR4RPkq0JO0i2rNNMwYB6ZIumol7SL39mtI0mV62BiteAEq1+wvZr/ZXiybZo6TTPEVkKwcClcrRB9yPQeFOpDhrEREbBWtosE7t2OrC1/vgbAGlP4tHmjpRvkKsPDFCMJFMRES0gI9K05hWKetkRg1KCEl5gIp+u3TpggsuOB9Ll34kAMDhkGeffba0qSx87z2UlZYKYW1aN8RSmQUVGVmkNHpGPc2+O2qVCEKkMUiUFxcXwx6kdHwpyWkIDg6F21OHkuJSAS4CJNMqaXeysEGXbS1ASHComCnygRsWHioLm0LIdu3a4vY7bpf7sFVCK4RH0PbEIpU/arU4700E6tJ/rtwxqVG66qor0bFDRyQlc4iASvsaux2ySIkXctq059GlRw9Ex8TB7/EjK78AHy9ZjCWLVfrmdrkwbHBv3Hv/PzF71tv4aNlngUhJhuvZlU0DN/7NfrnMzCycyUjpuP9TBLcpt+sIiVe2IdHN95l/83OIA7k71+Gl2e9i/Ii3YbP6RNEtjblsFRHrUWMsQWGlDmIkpVN6Jl4guRT6Z4Yg3//iqCZeXTnjL1l10cDE3jafzURGNpWWSSWODgA2uG3A4OgahJeUIjE2GiFhIdr5UhOtTN98xXhl9RT07ddXbFADZH5jV0kjXn842uEyCqH7Ikdsq2KKTdaaX54aun9N80cEIbGrFR9tn0QzTKmeemoK8vJy8dmKFbjh+uuxbt16LFiwQGbAie7Iw/YUVt+M2ZpNdEwEiIbVPTUt2ioKa47nJigxY2DaV1pWLCCQktwaERFRovpmxYy6Ifrhc3yS8F6kATxqigoto51VVSIPCA9TaSjBz+P24MWXXxYnguTkZERFh2szRb/sN21Kqpxq/BldCIhO/fr1E16sa5cuEimZySaNWD7y0kMKSjt27EJ5lRNuD1k5H/bkl2Dl8o/wxutzkJqaKjvIrmmGn2w74ZOBJ4EhpAET4xvDf1NwmZOViUlXXIsjhh5V38WvUx4FUHqUUoMRMOZmlSeRD8jbtQEvv/gOThz2hggnbRZW0IxYUgwiVBVOaz4Mv2STTlvyT8q0XXgkPXpbVYaV2sq4TkrqKByQmtSrPJcY0dng44WmVQSfQhL5KBLbZ7XDy3DZZkVynROxtfnomRiNkJgYeBwcQUCtkl+iKYmUvp+Cnj174Kqrrvqv+pAau6AOR1BidDR58mSpuDEq4TVjVM4RRuSKTOuGVNiYFgkg8XLaxKzwH/+4Rt6ze/dunHzyyTK1lv1zbHI1k3kYzah1aEdo6L6ma4y8ZP01oB74nYxauE9m0k9OTpZEPclJKTJpl4M3CosKkJSYJPdMVDRJ6xjpd1NuBcpmlxwZ7XBVIUmNHGMkNnPWLCTExQmoxcRSCKrU6CT877nnXnz37Q9azc0GYB/atGkrPYG9evZEYmKCvMfothqzjg4JKJnohiXWorJy1FFe7/EhM78E2VlZePSBO0QlK0IzzfU07NDmheS/ySGZpxYvEFO31m3S8OATz6GuTom7VHVAcUdqtlv98MZ68VeDU+a3IH/3Brw8ewEmDH9TAMhmpSZDRUnkmEyhl7IAm7ZyUJU21ScnHf7apkt5sGn7k0BjmsrYaMymdB4cMKBSOUZDVqZu5CUsBB/VcOcVkOK/bfAygmJIb/Gga102OlpsCG+dDH9wkGiUPLIzPlSiBK999wS69+iOq6++ugWUGnNn6Ndyna1Zsxbnn3+e3LzGMJCgxDYTckmGQlC+2W41wcbHcn4Yxo8/HldceSmmPvMcjj/+eBxzzNhAmwc1T0yFqmhXoiOXOXNexjXXXCvRFu1sZR35uS7UgAFp3GbNT0/k4esIaKQyHMF2GXZJD6XWae2QmZ0uER0jsZKSEuGxEhOT1Vh66Kq1xyOjzmRoAH21deHHZrHjnnvvRrs2baWiFxcfI+0sPB8MEp59dhqenPK0OkviHkB+KlScE3r36o3EJMVFGVfLxpz6QwJKZgf55FCg5JX0LbegBHkF+Xh/4RvYsmGjgI4Z1WJOBsNURQZqkNHcDcGJzgJjx03AkaOP1VSNKswLd6MbaQ0oqZRNRyq6sVCR0H7k796IV2YtwMnDXwfdbDgl1Ci4eTlpwiYtlIIsDIO1fkm8bLywM9phFKXbX8hLSeFOT9o2PW9KFiCt/jpC0gAkKZyNqjUBIfPHb1eREyMltpJwqMKYeCdCCssRnpIIa4gddXJMfvFzqvIV4bXvnpQWARMpBSqAjVkljXjt4RQpcc3Rx+jtt97FtGnPITcvW25clrpLS0vgcZNCcEifGdcTuR7xwiZA2BxISUuRPrm5/5mL7t264tJLL0fr1m1lxXp8blTX1ODJJ6Zg2fJlcNV48ejDD2LY8CNw+eVXYNfOjIBtrnq40sBNDRfgHwIW+U0gCJdcMhnffv8NtmzaIpETtUnt23cQkjstLRVujws5OdlStUtKSgtkEHZO43XXSYsXvZuk5UTSUbvIBiacdipOOfF43WDLTKW+63/GjBlC+jOF5TkQPy+fH89Oew59+vaVqh29uplaBoTJB7iODiko7dy5CyUVFRLVwOvF3txilFSUShNu+vZt2JuxS/JihcZm+ogSqfFg1dAAZXebnJqKoOBgtGnfVR96Qx9tLWoUMkhpfUyUJOmT5pVUVAYUpG/CK7Pn47TBcxTBrf2zJWiRwMfIAcgvEZA4V1dkiwJY8jkyEolclHnkGhcAPflEfkwhmz44CZjIIZFXYjqnIiLyRz7yS3YHfEEKoJjOeWwW1NlsODbZD//eAsSnxsMf7hBvKUZLTN+qfMX4j0RKKn37MwMCD3A9SWO18dzhtIzmvEkxJr8AN954K+gOUFFZjqqqComMmJaEh0XC51OiRHI8PL/kkCQN8gIjRh6J444bh779++DN/7yOqOhYXHLpZfAyuuI8NvhAT+8vv1yJzh2ooPZj4MD+AiCvvfa6lpAYqxBFpPM/1XmkxoeddeZ5uOTSi/HJJ0vx0ouzUFpSisysTKQkp8hDnRxXVXU5srMyhTdKSWlTbwlts0rljdEWoyhpzvXLypXvTkhOwiP3/wtx8fFiRRIebgzm/Fi4cCHuuusu5GTnKTJfshofnnn2WfTu2wfJrRIQH/ff2ZccMlDiBd+xYyfKnE64XLRk8CCLoFRWJkSXeM8Y3Y9u21Bzz6k90vJ2jp7RHsHKME0BiEz60J4gkrLpkqqqdqk0ycjuDUAZbCBKFO3ZjFdmvYUzB83WwyJtmtCmeFKDkkwx0mmZ6vFXZLgGJAnONAlPENPQE/BKCtysKjjTzpGqvcAvoGSHl/1Qdv5th88RpP6wL4qjnOxWuG1W9Le74CgpRNv2ifBFhgqfJMmmDXD6i/DGqscDoKS0L027HU6gRLDJycnBqaecieKSYqlB0LOI6zI+LgFBQcEyCklphtRQAPOwYxvKxk0bJOIoKSnFrJnPo6LCiccen6LSdR3hb9y4UZppW6elieMFyfA1a1fjkYcfqY/yZfEoFwEhv3UDb/uOnXDjDbeKiV9xcT6uvPJi7N69SzzCY2OjkZzUVvrUiooLpcWFze3xCYnCH1G2wDSP/XXcKKKUcU5cODJzzgvKM1+a8Tzi4uIkHYuICFOTpC0W7NixAw899BDeW7RY+9WrNppHpzyOgYMGISWxlUwkUnpC06B1YGvvkIESd2/r1m0or6qWhkJeUIISkb5KQInaIAUogRK+nnWmqmpaGKlTsEDJX9/+xgTdGKspX+16eYBJ54R/1n1jKjcGSvZuwauzFuD8AbO1Kpu9birCkaiJTznyRJrIlt9JRKUiLQt7oYRv4s5I6KThVbeeBGI5TTIZPkkqfDZdYdNgRGCyBcHr4B87vFSvE6hstNy1I7mmHCnOPLTv2BreuGi47NSfML3zowIFWPDNFOGUrrzyyv/ayP3AlpJ61eEESgQamp2dPOE0FBSyuMIeMZdwSUlJKbrlg6X/+uEWqanJyC8ogKuuFuvXrRe+tKSsFLOnv4C9mVm49977kNa6rRLL8jGm0zEuE5+HH+TD9h1bcNFFE1FVWaUn5aoJKFyzIcHBCAsNE0uTEyecggsvmCyOl1mZGbj55n8gfdcu4b7IP3Xs0EP4otLSYtEZscoWEhqGqEgOCuB4Jitqqqpl4gnlAFKZI2GhdUzVLhdenj1DZAGJSfXDAHj/kad67LHHMOXJp0UCwenTPKIbb7kZxx17HFJTktAqQXkqNfZheEhBafPmLajU3jCMbPbmFIhPkrOmVhz2JEzVnFBDjZGKmNTwavW3/rcxUDMNtsZX2/BKRiIgs9q1cJKRih5CKa6SsKJk71a8OusdXDhguu51IygpjigQEYlMQJu+6ZSOpLcoyGm+JUJLYwOvqnVcWfumcw2ETmKHqyed6rI/Uzn+kWpbkEMBkvwJEkDy2OyIcjvR2ZmF1JRk+JMSUBfkhZs6FIsFTn8hFq56At27d8MVLaDUCGxVka3H48fWrVsxceIkmb5cVeUUEKEGKCE+Sau3VUWVNyqFi9dff60IC4sri7Fx7QbUunwoLS3E9OefF0/vSZMn4fTTz1QCRirg6DWj5QT8e8vG9XhiysPyWgoSTbGHEYqHD0OfX2QCRwwdhm49eiA2Lh5DBw/GwncX4J0F86V5l0UfVq07duwq/19YmK80Tkz9LDbExMZJlMRN9E7BDkRERijynKJdv4rKaMf7wL33ykON1TRGX4a4ZhRJV8pHHn4M5eWVgW6FSy+/DCeffArS0lIajFpqnKfSIQWlLVu2oKJaGVZRvpyVk4fS0nI4a2sl7CVkq4qZSs1U2lbfuGoqa6ryVU9cK38X3TsmYKJ5JFN5Y6e21Oh1eV5XHBS/BJRlbcerMxdgUv9p9bYlWpskQCSCSiOi1N7bJLzFP1AtMuNSKyG9Sen4dwOrW1Vb0S0kknPqmXBUdks7iSK2BZw0KHkcwfA0AKZwrwfd3JmIDwmHpV0q6hxAHUEJflR6i/D+d4+je/eWSKkRiCS9i9zIdS5atAiPPPKIaIJYdeLNSJP8MOGTVGRM2xGCx4STJ+DGm67HnXfdi5WrvsDa1evg9vlRWlyAZ599Dis+/RTHHncs7rv/ftVcS5NjoVN98Hnd2LJ5E5599ims/Xk1XNJoW18pNg4QdtjQp29//OO669G5Szd88cUKZGTsxAeLFyEjPUP640hYsyDENhE+ZLNzsuD10NUgVEaGUy5AgpoRkYc/DwuVQQbGT0xAycPWEw9OP/UMnH7m6aLsToiPRUhosOpW8fvx008/4YEHHsKXX3ylHTMgTcaXX3E52rVrh4SEOOUppSfuHug1OKSgRP0H07ea2jqOMkNmXgFKSspRVVtT/xTSlQcDQAJMAWdHbdwvkZLqPFPqas0jaQ4poOjWHbIm/VMtaNpqRKeJHGNTkb0Tr896B5P6Pat63+QJY1Fmb6LmVoBkE0MuTXoLqa1ghumc1asWrPBK8ju10A0o8f+lOqfCQRMyie82QYhyAPa5USypqm9M3xwQUAoOgUdHS8EWoB+yEeyxIKhLW7jsNtRZraiDDxV1BVi6eoqAEonuxobRB7qIGr7u8Ejf1LVyOqtx3XU34Ntvv5Wbl9U1lt9bJdCjSAl3hSawWHDMMWNw883/RKvEBKz4/HPcctstWP8zQQkoLSzAU089hS+++Fx63e6551+iqXN7/KBEj+ZtBQXZePzRR/HVypXweFxChCvvI9UWpfI3C+LjE3HRJZfivAsuhNViR11dNe6//y4sWbxIZAWMcCgDoOCTVUFW3NLTd8HrcwtAuGrd4sBR3zDsEVBi/56aZyiQg1qXS7yVUlPT8PgTj4veSk2+ZdOuWuf8jnvuuQ8vzn5J6e38ftFCTXt+Grp16yaREq1THEHNKFLavn2HEN1ERlbNs/IKUVJcBmcAlNRyN+OEFTApLslMATHlUlPqNqCkVADUdyhOSt6j1Ir76JcCqZ828OdLynPS8frMt3Fx36lSH5NWE2m4VdU3ASZd3lc2uUbprVI2qdDxKSr/zzhdfYaKmtRrVKqoN71vxj+JAkqiK4luL4dbasGkNygIHkeIAqVgB9ysQlosOCKoAKjyIqhra7iCHXD5raj1+VBRm4dla55Ezx49cOVVV7aA0gGjrAKlsrIKjBs3XjQ+bA7nOmLE1KpVskQaitS2oH2HjvjXv+5Bj569pGxP3dExx47G+jVr4aoDSory8eSUKfj666/EQ+mSSy7FSSdNgIvukR7VolJUlI1rrroS6bvSVaeCj1wV4119D2iZyeDhI3Dv/Q8iKSVVvnvH9m14+KH7sXH9Oql+kVQXhw1dAo2JjsHWrZvlYU0TOE5UaZWQKKCqvJjqAtYkqnSv+CtpTalzg7KBOa+8gvj4OCQmxosTpbJkUdHSU08+jalTpwl3xX/zeJ57Xg1ATZZWkxiENHLU0iGLlHgAu3btFkkAIyXeuFm5BSgmKNXUSJisSuuqMiVgItGQASVtDRIgsBtETRqEVLesBqXAnPR6QaWpzAW0O5qTKstLxxsz3sJlfadq8aQydVNApA28NDiZNhMBTw1OJLil901LAqzspq4v/itQ0scmLJZS6UspX6WhQpkrLklaSxSv5Amyw60jpbqQEBCkgixWDAopgqXCA2v3tqgNtqHWb0dNnReVzhx8tvkp9OzZs0UScMCAJLebvLqwoBjHjz9RGmhdrhqxmyUHEx0VraY0wCKWsu07dsB999+Hjh07waOeLLjs0kn4z9zX4fb6UFxUgKnPPAO6DPD6nnnGGbj2+hvktfTyZhpls/nw6L8fwvJly+B10y63TtZMnceLyMgotG/fEUX5uZh86WU49YyzRT5CGuGl2TMxc8Z0eLURXFFxkSiwyUGVlZejdVpr4cUIYLFxcah0OhEfGy9ENyMhHmt4ZDgc4gKgwIYRV00tLVEYXUXi+RdekEiJoBQdzXSsvor7+edfyDDOdWvX6yEDfkycNFH+UCNFMCMoNUardEhBaffudBSXlytQ8vqQlVeA4qIyVNZQhKZEYkper8v4bFoNqLRVmhZIzfR02PqfaSBrQJTXR0sqLDaRk0IuBV7cKvMz8Ob0t3FFv2ckwpHhs1IZM+mbah9REZMSSqrGXR0d8bOY2mntksgEpGKnHAKEY5JwXLedaM5MzNk0saR63TSvREdD6pbsdtQxhQt2oC4kFD5HCOxWC/qHFAPlHlh6tBNQqvLZUe30orYqG5/veho9evRsUXQ3CpTUi7dv242zzjoLzionqqoqpcuAbSYRYeGy9siFnnnW2diybTNuvPEGDBw0GPQGYzy9fPlSjD9+PDw+P8pKi/HizBlYsmSJRCF9+vTF1ddcg+69eqsBpBbOgfMjfddO3HLT9SguKobXXSe4F5eQgJtu+icqnVX4+INFeOSxKQiLipG1mJediSenPIElS95DRHi48EmcaML9ZCNvfl4B2rZtK7IGEt4c8EpLX/qK24MckuqR76FJokzyZXROVbrXLcfJaI1p5qOPPSoDBZiOxcYwJawHGXJXHOv9/qIlsJFi8HrRvn17EVHyuxm1hYc5GhWlHzJQ4kVPT08XRXd1NU2mPMghKBWXoVKmhKr5WEZ1bUi4gDwgwA/Vc0xyfbVvkXmfijxMdU67RQaIcS1MU0GrAg2LBVUFBKUFuKrfM8IPicFbwBlg30hJpXQMdVQ0JHwTXSYNj2RcK82YpgbKbpXCqblvhnQXGaaaSKB73VQFzkOAstvhlmjJgTqSlsGhCLYCvYNKAKcP1t4dUR1kQaXbhppyN7w12fh0z9QWUPovAIkPxBWfrcQNN9yg+i8ry+UGU6AUIWtzyJBhuPa667H802UyUmjChJMREhopfCDfQ6DgFeYg1bfeeA2vzp0rETIHBUycNAmTL7oYVptDVP2c38eH2lVXXoH1a9cIIETHJ+CBfz+E3r36o6ioEFu3bsKRR46S1J5z4Ba+8xZmTH8eGem7JK0iN6Q0SrHy0M3LLRDXSUZ3AkYxMZKKclIQVdgs6weHOhARrlIyrkJ6N9XWVqvjjIyQlI/K7R49uonuiJEPK3Am8mFGc/vtt+OVOa9JU7HiWyzSPtOpUydpUYmMULPpDnQ7ZKDEi/7RRx8jPDpafIQ4Sz07pwDFJaWoqGKk5JGnSEDvGCC8VcOgTszUBTLTInXVTX7bwCebwKQqd/URkcjpNTluAnaR8lv8qC3cizdnLMA1fZ+CXSI1ZVuiVNp6iIAWh0tCKVw1e960Y4CfE1C4HFnC1aOYAldEEeCmwqPGK9Vvwlzpvjh+qQgh6cvM9M1qFVBi9a0uNAR1IeFwwI3utlJY6+xAnw6osltQ4bTAW1oHiy8Hn2Q+j169++Dyyy9vVAh9oAto/9cdHkS34ksefWQK5syZI0//svISpKSkKIfT2jpJ4a659lqcfsYZyMrKlCmyN998C9LatpeqGZuzVTuRBW5XLT779CPcffddUhkjMI0cNRJXXXO1lO2lx5HOlFYL1q9fi+uvu16A5bEpj6Ftuy4iqvSCs+LcCLZzBhxV5B48//xUzH11DmqqnSKIpNkfLVDYc8euB4ISq2Dch7y8HLG3LS0r05FUkAweoMmbMqyjv7hbAKy6ulb+PzYuRgjwSZMnY9SokQJIBKawMNqYqFSPoDR//nw8/PBjyNybJQ92Cp8J1ueeew6SkhIREx2h+up0JvJHa+uQghI5pdLKSknfaJWQlZ0vylnqlKSxUa6qGqMUILIbENX1/tpKZcqN4CHxR4PoyEgERNPUQDpg/t+cJBljAwtcRZmYN+NtXNv3KWneVz5KZmaDaRfh801xQ3QFYETFYEgaeAO1NK210vxRQKMke6jkAYGBkxqaCHpM41iGozqbvxfCmykc/WwYLRGUQoLhDg1DqN+Fzv5SeC3hsPdqg7KgYFQWeWCrdCEktAjv734BAwYOkC73g7EdDqBk+MwLzr8Qq1atkqKEGn6aGBitdOSIEbjs8svQoWNnSYGuv/5GnH32ORgydDisQcGw07xG+/nxWudkq/HXX3/1pUTB9DFi2nPmWeco/lDGLZFj8uDOu+7CNddcg9ZtOwRcIkUiI83gKhpf9fVKPD/tWWzftl1aXPgQ5ygy7icrXiTLGTW1a9tR0rqdO3eIgwU/gykZUy0CL/v46M3NDIOg5yTH66qVn8XGxAiPdtRRR+Hc885RZHereAGlhs4I7LG74vKr8MUXK1WgZLOKTQpHm4uUIC5eWm9kyu8BbIcMlLhvtFPIzi9ApbMafo9HBgcUFpfAWU1JAKdCNNQf1Su7fykJqAcl9TstujTCygBA1VfuTDe06Jkk4lTpEp9I7pIczJ+5ANf1e0rARoxJWX2TdFLLATQfJBUY1S0kRFKQWjv7tJgIn0Q+SkBLcWUBgGJEFYjY1L4LUHGBkkeisI5PUnrocJQP/zjscIWGwBMWjnZxViTkZKEqPA6WHmko9oegNqcGUb5ahMdW4j8bn20ZHHAAN0LDlxhQomkZ/Yh401MOEBcXL6kWuaTWrVvLxA72FY4//niUl1Vg0aL3cdMttyEpKRlepvByE9Jlwi69nWvW/CS+Snv2Zkjz6jlns2/tCkRHx8EDdjWo6le1swqh4eHykGMUTUKaoCSibq5HO/Daq3Mw9eln1Pw4PZqJ4kh62hOU+MCWoQGt24u9yp496aippcuBA/Fx8bDbg2VYa2RUhCi5/V6fSCCqq6rg8XmE0Gb6SceK9u064I47/ynRG0GJPXBGXmIGIkxxs24wAAAgAElEQVSceBGWLP5ATiPvFTpmfvDhh0K6t4pXft1BjvrH8u9dkr8JKNXA73FjT2YuikpKUVldI8ItljhVRaC+/FrPFe1bbVM6CcUdMVLhTSzd+3KDq/RNGWTp3jgNXCZ9Mp/LSMlTqkDpxv5PqcinwYw3cQkI2JcYfkl1bBN0pPdOk94SRemISFXbGooqNeG9j+ZKD5/UanMZNSiRkiK8PVab9LyxCucKCYErLAKDu4YjbP0OFKekwdk+HqXlgLXIg9RIG7zhBZi7ZmoLKDUSlIxHV9++fWUdcoYa1xarYCypjzxqtHAl27ZvRq2rTghlZTXrw4knnIi27duhfed26NCuo/Ay7FWTh57fJ2LHf//736isdCImOg6333E3jh5zjJIhKWpRPZBk3ehqmFcNnvSIQNeH8rJizHlpNubPmyeASRKbGqRKZ7mkXwQPPvgoX0hOShMgKipmt0Sx8Fns2xMfKLtdwIL3BdtnKIEw45yYujEa8vms8nlPTHlUrEgISuyBIygZbRK/6/bb78LcV19DVVW1egBbrbjyyqtw4cQLkZqcIt8THKLe80fbIQEl0VDQ4TE3D7mFhah01sDvdmNPdi4KC4tRKembASWjK9JyAE0Cm4Mz9qNGM6JOVL0MQAhsapsIF5r0DjhNMkrRGiHRNNFxj/2IZfmYN3MBbu6vIiVtgKKeUgGzN3JLBCU9bkmsUIWpgsXi1RO4mcoZKadPQEvSNr32xCKX0ZyI1lSEFeiS00MpeSwcFMC2EQ+HBtptcDvsqKUkICwcQ/vGwrtuN6o6tEFxbATKcuoQ6/EgMSYI+aW5WJj5/D7TTA5kUfzRovm93x8O6RtBieuvT58+cqhsfWJrCXmbhIRE9Os3QHrSOnbtiAkTTpXhAaymvvnGG/ju268l6i8qo8Faobw/JSkJnTt2wtChwzDwiP5Ys+ZnzJgxE86qGuFezjzzHISE0h9b2X+oayRd2srmxEOJgPrD9fPtd1/huWeexp6MDDUaSXvVs0JIJTYjJQVK5YiPS4TDEQpnVSUKCnIElBjxSf9cUJDsO3VSVdVOOJ1VAkr06ibBTQteNsuz2vb8C88ijpFSYgKiGF1pUDJrYfUPP+O666/H+nUbJQJjRsFztnjJIrRp3VqGD7APzngr/t46PCSgxAPhSZs96yV06NoZjuBQeOvc2JOVi6LiYlQK0UZQ0g2uAiZsXjQOfCatq58QYiIdTTWrFEraStTFpfq1Xk5QP95IdaCYcUgkuqkJKMCbM97GrQOfUU4AOupSE020U4CAnKq42bUsgOV5NXKb/IBO66TlxKR4cuSAX01HCcw/0eklv1uafi1BKm3z+wQo2R5FPokRk9tqRa0jCLUkG0PDkBBRibAyD9CrEwptIfDnVKF1dBhcpRUoqczG+85X0L9vP1x00UUB0eifAZ0/eu/hAEpMSahWJigxWqBeKTExSew9hg0bgTvvuge7du3A7ozdGDJsBJKT6ZLqF+X2BeefjXffWQCvn4ZrWfhx9WpJ2/LzcqSVpLamFm4f56xRNV2H1LQ0XH3VNejdeyCsQUFKcCtKfm23o6NmijLrCEo+Lz74cBGmPvWk8LBUWHNfmV5S20TymqDEjRFeZGQMIsJj4HJVIzMrQ8AkKpIDKqNlpFJwqJrn5iS3W1MrQEVfMg6fZJWtupqDMK2YNXu6VO+oVYqhVon7qqMe3qfs07v44ktldh05Yt4HocFhsNktIoXo0L69WOoeyMilQwpK9FMi0V1d44LHVYu9OYyUKAmokZBUbUqnREGhiW3rU7h6nsmkeMo+ol6/ZMhwIynQoiJtq6SiJ25GJe62+mGvLMQbM9/CbQOfEw5IDZ70CUdgRi3J3ugoS6RkdIJkJGRl34Dy8ZbEUVI4SwPdkuqRaziOSaIlvfhsWjjJiypREmhFQlDyw22xwG2zo9ZhR1VoKJLSIhHudqKmBkC31igr9SPZ6oDNWQlXdRlKj3BgydLH0KNnb3EJaPFT+iNI1SvO75fS+eDBg+XBKIMnE5PRpUtXPDP1OSQmpSA/Lxdvzn0VQ4eNwIjRo0XJzVT9hPHHYf68txEeEwePxwKfTMytEWuekpIybN+2Ez//vAbbt29HUWEeSooKxIs+JDJSvLzZApKWmor4hHj5m1FLiCNMaAna7O7Zk4Hlyz/Btu3b4Kys0mCkHuBcn4ZT4pEwOgqyhyA6OoHFfuzZs1sabunfLfbSoSECLjSykyjJ45aoS6Ik8YunREDNq3tm6lOiU2LnPwcC7G9zqxwVsnDuuedj08bNWvPklX67c847V2QD9OyWyp3mfX/rahxSUKInS5mTJ5aS9lpkZuehsKgEldVUk/JEK2LZENv1UZBJ6ep/V1+dM7oldcjMl9XfuvJm+uO0Da2aGqEjJcZBrLZVF2tQmir8kQARnf5Mi4lUQHRfkvHp55PNC1jt2lMpIBMwvJJSJAm3JJNRdJOxpJf1ynMbJ2EYXoHSACnqEZC4rCBEd63DIaDUvV8CfJlFKAsKQ01qEkJKXYi1AFU1TmSPS8A7ebsR9/4L6N6rB6644opfhNwHdos27lXNOVJSkbkybWOz+IQJEyQ9YkXLZgvGhZMm4ZFHHpMCTJXTiSmP/htHDB6KCaedLiJJu8WHq6+8Uh4Avfv2hcUSAre3DoX52SgsLED/fgNV9CvhOCOlGrw291V8tmwZOnbpAY/Xh5LiEkkNWUKPi4uUqCc8jLPe6HAZJaD06txXpA3EwylAMvWW03ht4pFEfRRfx+OorqmSWVuxsQmwWn1Iz9gp5DlBKaFVovK8Z+N2BR9stXJ7sTGX5nBmnpvbzTQsGPfddw86dGiHJLoFxMX8wlHSFAcuu+wKLFm8RLtwcnBCEPoPHIhZs2YjLi5GAI2uBH/T9A3YslW7BFS7UFvnQmZWNgoKS0Qn4dKckgQhmgw2kdI+00cCv6vvcVP9bfJO3TxoXCgJJjrlEyBSJv0qSFGxi5/RUE0Z3pz5Fm4/4lk1olvaVhTbQ49uGSSgvY+USpweklalSbLpoQISNSmAorBSWk9M24yi7pXXt/TO6QqgGDApYp9PXq5d1c3tR53FL97bLpsVVXQJiApFxy6RsO2pQHlqEsqtIUh2u+FyV2PP+AQ8U1qHyKoCdFz4NLr36Cag1DDkbhzUHPirmzMomaMkOL333nu47bbbJLVhylNUVIKzzjob056fIQDk93rw9OOMQnvh/047XTr+6c0w/YXn5XpeefVVsPg508aHzKw9ePjhh/HA/Q8IJ6VqsOq6MoKa89JL6H/EYFF6k1PKzcuV1Cw9faeosdn9X1RIo7Y6mXlI8ziTMnH/uPHa0kyt1sVG3CgBKQo+aZcbH9cKVqsXGRm7xCUgUkApSYCF30PFOit8BCICIK1xla+8TVwyuTyvvvoKDB8+TDglgotY5zYYvmF8odhyMnPmDKnkMcLiz8eMOQ7/uvdfwivROSA8jGZx9cLl/VfXIYyUIDO0ytl57axFtbsWe/dko6DIgBJ1SiYSUrut0NUIKtX/q47lhj+TuEhHRgbQdDqn0yTjz23SNmnN1y0r1AgFuSown6A0hKCkIyTRKumoSQOUgJWU81WjrQy61AZvRj6gJASszCkb04DAUqeMgTRPeCWtiBWvb2UCxoXLHina0dN/22W1whkUjFY9YqmogqvUD09aMiJqucxrsXVcHKYV+FFqtyDamY1BC9lm0q3F5O3AcVWiD4L4559/Lk98RhaMJI4bNw5Tpz4nYkeb1YLpz00VkDn59NMRHBoqrUQ///QTpj03FW+88QbcdTJCAKVlJXjh+WkIsjtw6aWXIS4+QWxn5fEl5Xw3CooLJIrYuHEDXG43hg0eKbwim2IVX+TGxrU/4IEHHkBxcZGQxlyzTNeEBPeqQQNMo9g2QpCqqCyFz29HXEyC0A9ZWXv0lN0ItEpIEkKabpSsvMl9JBVGVsk4QEDRIDSAZXfFSSeNx/kXnK9V3bHaLcCU+FVTMQGSzcbLl38a8Crnvj/51FT07dtHoj7pn4uK/N2o/RCCUr0dbrWzBrV1tdhDUCouQWVVtVQBmLoYX6SGgLQ/MAX63xr0r5noql5gaQCsoRjTgBlTOBVZMTQKdlcpUBpGPyUjmlRplkrbjEuA+kzTUyddTyIH0EDGOF+3DwQiJR6UjpQkNZR+Om0UJuU49Uf17FJUx7EFfvHlIShV05YkMhTt+sejptyDQgTBjlBE2l3YNDwaM2r9KIQdVRYLUqtzMPydJ9Gjp7IuaeGUDgyZCEqUA7C8ztJ9QkKy9I2xsfnOO+9EXHwruWHfe3eBmPOfctrJSEtrI0puv8+NccePxccfLYPV6lAaM58P3379BR568EFcOHEiTj/9dESEs0Kmu/I5RTfYgs+Xf4yvvvoaN9xyB4JDqFNSTenkktiF/9EH7+Hue+4OTHnmenU4yGjS/6hOCG9eY4ISo6CKiiL4/A7ERMXKOqSqu6a6GiHBIWKBwkoc36OExlaJliKj1FhwNSNVOWPW1rgwYGB/3H77HYiPixUnyvAI2twaVwG1Xlet+hbXX3cj9u7NlBPNfeEQzocffURA0hDl0dGRsMuQzV+XB/w6KFksCOXE1SbceLA0TLeHhOh+m1rsycxCfkExqqqrpVnQlPZlFpre//oq2y9JbhM1NUz56sHJqLl1qqSnmUiq16DvjRcixFuD+TPfxp0jGIqbvjfdhKvV5UzjDDgqxbcaRskf27Unjer110ZggfRNG7+LXS4XA8WZpsqoxHaKemL1TTS48DB98/vh8nOWGxDVOQ6RrcJQkV8Hb3w8gkItWNcxCDODbMiHFU6rFUF+H9KqcnDUe8+gd59euOyyyw5Km0lVdW1g1YSHNc/BATz3bCrljUQ5QJs2HTDoiEFyk5133nkYMGCQpP2ZezNEBnDc+HHo33+QlEQ4EPa0007BTTfchBEjjlT6fosVu7dvxk033SyjuzkYdNzx4+EIUnMM+eeLlSvw8osv4c677kaXbr0VreD3yRpgNTcrcy8efvBerFxJ1bRfuvz56GOUU1tbhcioSAFR8lG8+QlK5RXkp+yIjoqTB2lBQS6czgoZCU7BJlMw2vXK6CRYUOei3ilcBgwIvcBqst8ijpt0QHj00UfEr5uOAZGRJgWrf4Bee+11WLRosQwj4MZzSGV6565dhJeSNhXzXqMZ/BWMYeHLyIYslc5qZbxgtSJUzw5vKlzil3777XcyRoi9ROQi9mbuRUFBqa4EeJS5uvFO0qj0S/Gkjjv2ESHuq/42aZ5STjfQPRlxUKD6xu+zI9RXjbdnv4s7RrwQkACYioFxLZC0Tqu8lXuAKeFyaRK5aIkboOZFWmDaUsw0FKVp0umdyBYIWKo9l+Ew/6N5O6MlF0vIHA0d4UBwl2hUl7tRZQlBXEwEvu4UhPlRDmTZg1Cnp68QIVs7czDq/akYMKBfS5tJIxcyp8KycsTx2l279sD1N9wg6m7yIeddOFFNE7H48fBD/8aIUUfhqJFjxIaEWDJ37hz8+N23mDFzNrw+coNWVFeUYN6b8zB71mx07NQJ11zzDxw9apSsoeWfLsczzzyNsceOxyWXXImIyEjZW6XhZmpUh59/+gFXX36lENwUYZLn4hoROUCNExERnIFogdNZKTok8jkVznL4vEESKfG+KSrOl8EHLO7QPTM0LEzWGPVX8lkul0qtgqSHQSnRLX6RC7Ru0wZTnnhCQIkVuKhoapW4wglKPuWYcObZ+HbV9wHa5dxzz8U555wDu8Mh+0cRZjz76ehe+Tsiyn0ipQAosTeniUGJJ51tJjkFhWKBy+iIDX0inqyskaqFZpJUI20DgzaZRrJfWXF/bikwraQhCOlGXjMVxaSEJrJSabUdYZYqLJj1Hm4bMV0sJQzZrUhp7Vyg0zblHqDsdZU/k0+kAWQTlBapvmdOqbtV+maU3uqzNXemfcn5JUanxL/rfIDbC1RR/9Q6HP7wINRW2WEJCsP6Nlb8p30kMh3BWrip3C1tPj/SqnMx/P1nMHDQAEycOLGRt+V/93LzlOO5DWviaPu/28MDexcdAejcSBP+QYOGYPaLs2Uo5do1a3Djzbco2Qn8eHbqs2jXvi2OHXeilO55wQuK8nDS8cfi2+9Xi0UIOUuLt04ewvffey9KSktkFt+11/5DuvHpdc2+s38/MgVduvUJNH+L1ZzFC2dVGV547lnM+8/8wOBLpk7kj8gpscpGLohiR4JOTAyniISgXJTojJQISn4ZIFBeXir3EtNHukTyOjGNowTHyAkISipSonuBBZUVFdJW88CDDyA1JVVAKTqGvJXxVfJj3boNuOnGm7Fx42ZpyOX7b/3nrTjqyKPEuzwmNkYU4ZGR4QgSMPvtjTonprxyj1dUVv0iUjJh1IFdysa9ig2DWXlswi0VIpFiMwrVyNy7vaR2lcI5kJYFetoUwVZflVMG6+pnKhdW9FA9GR6wMNG/N++tTwtNemdFhNWFt2YvxG2jpmtOiT7MCniMNa76ngaNuvJ7VcGTKhvpJOGjdPqnoyLj123aUgKgJIMGPFJxM4MHOU6HJLfL54eLVqeRQShtEwVvuQdxjgjs7RCKV9OCsSEkWHqtgkSkycjKj1A/kFqdi8EEpYH9Dxoo8SlnLGdCQ5qWAmjcajvwV/PJT80QUxxGIhMmnIKHH3lEuBJKBcaMGStVKm5Mp777bhXOOvsstG3bQSnyLRZcNPE8nHf+eRh3/AlSlud156ij1+fOwbz5b8p67dqtm4gp9+zZg1v+eRtOOOk0hIaFq75IreinWDcnOx0XnHcuSkrLhHRWY8UsQn4TSGrE+pbksVU0VYxIODiyrLJSWlWio2KEM6LCm95OjIrCQqMkzZORSVZOJ3GjzlUnaSAbe/k+M4aJVTxGSEzFhg4ZigT6KsUqXyVz/7zw/AzMnDkLhYXkseg57sP0GdNFHMrpKa0SOHggBsEhlAP8+rUw0dM+kVJ5hfOQgFJ+QZHYO+zJzFGRktMpRlPCrejBePUgpKKmekCSfPMXoLRvmtewSqetdLXwUU1DaQBm5GzsPrw1+x3cPpqgxDCdDzstGhCFt5YWaI8lgqbSHQWGQgUGURrrXNNaoup8ekQTv1c+z/TBKRjm9FveGMInMW3zeOEMsiC/TTjcfiDBxRQuDm+0DcaXdofwTDwKTujh9wT7WAgG2lfnot9iBUoXXnjhgd+Vf+KVjJTM1lwjJY5SSklJRVQUfYlsuPuef0lj6cCBg0T0yPpF/34D5DDJOd17752YfNEk9COvxAeDNQg/fL9SPLffX/IhvB5lTcL0/NNlH+Ghfz8oVTUZR+nzYdjQobjp5tvRpl0HLU9RzeFMrdzuWnz8wXt48P77xa/Iy88hDeEH6twuuFy1UvWi4JF6R4ISwYZ8mLOmGhafBdHR6jgqnRUoLSkUUKKokgJKugDw4cf0q66uVvr7SEJzC3IECale4ayQ/r1jxo7F1Vddjfj4WNEqqYm5qlJ83bU3SkOymV5N0nzeW/PFFiU2OgatElshOpDy/T4oNYy2LQaUeENT4NTUGyMlugRkZeXC567D3uxc5BUUCbFGybxS/IgeWnlam7RNP424fxINGe+k/XglU+YXsAhYzRoNk/ZhahBxGR+maDvw9kvv4I4x0+U7AxU3/r+2VlfQSN2SAjTZS9kPY0uinmaiOuJC8hlpgZ4fJ8ej/ODN3DjRb4tbAVXcftHD1Hk9qA4JQmYnEpletNlbA2uYHZ8MSMLiNtEoszBCUg4EBDBW6hxWK1r73QjelY5BP7wo6dvBBCUj5WiuoMQIhOlKTAztX2Mwc+ZsLHp/kcgqWAVjetGmLX2K1Nisxx59GO3at8OE/5uAsIhoKa3bLB6MOnoUZsyYjV49+0tKw6Ee6ek7MGvmdHz1zTciluSaox7q+BNOllluRsarBkpYUF1VjksmXyDz3EhKk8g2gmCCCEFJXCXj4uR3bC1h6Z1rnhNRCJD0fgqyB0tqR15J3DdAUWWMpHAsKrlqayWFpMbJDAYgb0Vgqix3yv737tNbKohSgWulUkQCJIHokksuxycfL5M+Tv6MbSWPPvaYEoHGxIqFSUSk4r3+aKuVNhW1WZxViugWlPyDvO+PPvhAfs98vbyyUuT3NHkrLS+XEizDSJ4EdfvqnQtEM6YlwxyctvuQ3ytiLsBfm2hI/0DrpgPGcZqsUo3ZCvckIgq12fDTqp9xfNfzA9GPRF4GwHQrtxoGoDijgKLAeEnqapz2lVPv1U4BuqMkYKkrYasQ3MolTj6VpLbPB5fDivLUYFR6LIjMrUG43Y78pFBsiXOgNCRYPZm1SlwGYFgISl74S3xoa3cCWz8XW9IhQ4YcyCX506/hjWNAib7PzXGjivvuu++R3jCW1087/Qys+mYVklOSMGTwUFmT5IroDsnrtXvXTqxbtx5jxoyR6IMrkA+axYsXiYHhyRNOleiED8bCgjysXPkldqenw+3xokP7Dhg9+mgkJKY0aD7Snu3S7lKAl2fPkshZKrK6YZdrxevhjDfVuM6IhKBEIpwEPV8r3A4LN2KwxubaWrH1VY4EFnkP+R6mWnX0ZPL55LUKa/1S8hfZQE2tRHpMaY8ZMwZprdPEH8k4UPI733hjngyXlVvJYhEAGzZsmFQB6dTJ1zvEq/uPQYnnRde4YPHxiBtsTcknmQNXJVFlfctQVpVA9URQ3p77J6ABlOLBGc2Pdn0QUzhz0GZ0kTmg/U5Gw1lH8jEadRSLBTetQu105NPvl9fomr96QDaATHUhAmXMhvvcEFX13snrNBAFmhrNbmoiXKsKVORkl+owLCzDkWuwWeDRwwaMB6fRNklaKwNUKDXwwe8xM+6Z0DX91rCq0tTrpymPhg9MQxFI6bzOLZeMhmkBTZtef6aBl79T2h21aFiuZxrDKpfaCCqsVNGUTZn286ZX3Ew9TxpYakzffR7UVLO50fiaNPA30d5cBgj2X3/q35q6ECpEyQ8Cd4R+aKufaI2c+ZkWLsux6AcmIzTuK3ko01VhPk8JPAmC6t7g65S0QHGkpjD1R2ti/6qcxf9H72jKVdDy2S1noOUMtJyB/c5ACyi1LImWM9ByBv5WZ6AFlP5Wl6NlZ1rOQMsZaAGlljXQcgZazsDf6gwcdFCiMI1eNWp4XuPmjf+tztz/5M5wwkeltCb84SYkK6SyQ5Ffy9b8zkBAYf077SFNcVQHDZTIp1OE9u233+L7778XMy2WU1nKbM5bfn4hXNrfprHHkZqS1Kgpoo39/KZ4/ZKly7Fpky4D/8EXsI+rd6/umHDicU2xK032mawk8eFZWFS8z3ewSsRpsezpotdStdh/7ru1bZPWZPt1MD6Y+qe8vEIlTXGximtFsCNITOCo6P69/rW/av8OCigVFRVhw4YNeOSRR8SwitoHAtOTTz6J/v37i7ahuW7/+c87yMzNlabDemnC7x8Npz8QyK66bJL46TSnjaC0Z2+WKHyp+P0tBYrb40FxcQnatG3d7ECJEcLu9D1YtORjaZfgRpCiv/axx4zEwP598O6iD+XmNb1gbAfhg/fOf17XnC7nPvtKScS27bvxxZfUZymXSmoJy8srpGl35MhhSErkHLwDG5v0356IJgUl6jLWrVuHt99+Gx9++CHS0tJEIUsQeuKJJ/Dpp5+K9oHq1hNOOEEUqs1tE1DKy8UZp5x4wLv+85oN2JuVgysuubBZghJFKUePHC4TLn5rq6hwYuXX30kK19wiJQNKX3z1LUYdOVQOceeuDGzcvG0fUEpOSkSrBLVml3y4XNTRzRWUGBl99tlX2LJtO7p37YKhQwbIHDi2s+zcnYG1azfKcY4aORxtWnNoQtNtTQZKNBSnix/ni3Om+dixY3HxxReLAZTZOPHg448/xty5c3Httddi+PDhOOWUU5ruaJvgkwlKWXl5uOPWaw/40z/65HNs3LwVl198QTMHpUhs3bYTzqrqgKiVNh89uncR7qm5g9IPP67F+eecJtd19Y9r8fnKVfuA0hED+6Fd29by+2emzRZHx+YKSlu27sAHHy3H6KOG44gj+v8iTcvLK8DnX34jEROBiSlsU21NBkr0O7777rvRo0cP6TTmGGDKz/fPSWnrSS9jjkpmj9HXX3/dVMfaJJ/7vw5Kyz9dicKiooD2OCEuDuPGjT4sQOmrb77H2DEjZd0QfNeu37QPKJE/SkpsJb9fsHCJKMCbKyi9MvctebBcNOmcX+WNmJquWbsBP/28HiOPGobu3To3yf3ED20yUJozZw6mTZsmPBJTs9/bmOZ98MEHuPfeeyXda07b/qBE2T0dD2Tz+6Wrmjp8PkXDQkOld+hwipSKioolxDeNDI6gIGnEPBwipcUfLhMbWN6sHEfEiLAhp8T+Tbor8ve5eQXSTtJcQWn6rFfRv28vjBg++Ddvv61bd2DFF99g8BH9MPgI5ZjQFFuTgtIrr7yCRx99VKKk39uIwgSjyZMnN3tQKi0rx/LPvtSgBHTp0hHBQQ5s3LINgwf1Q4f2bQ8rUPqt69qcQYnrkU3iGXvoO13fCElHiNSUZOmY5+/Im5kLbbrT+vbp2RT3aZN+Jvd9xqxXMXBAHwwbMuh3QGknVnzxlaR3Q1pAqUmvyZ/68P0jJWp4MjL2KktfQKwiSOYXFZeAxCgnjR5OkdLhCEqNWRDGHcH83Zj3/l1ey31/+ZU3JW279OLzf3O3mL79sHotRo0cJrxhU20tkdKfPLO/zik17Or+5Re0gNKfPOlN/HbepLm5+fjy6+8C38Rue5qfUQ7QpXMH6YpnFXVX+h4ZXsl/n3HqSZKeN8dt85ZtWPrJCpx84jh07dppH/cLno+8/AKRCkTHRGPUUcNkgGVTbS2g9CfP7P860X04RkpGEvDOu0vERsZs7EA4dsxIDBzQG9+sWo016zYhLSUJKSlJ+GrVD4iLjcElk889KIrAGvIAAArxSURBVALDP7ls93m7+DB5vVjwzhKUlJWBKehRI5QXFw8/Oycfn33+lbiG8eft27dp0mM8OKA0bCiw7icgJ+uX57JTN/h79G7WnBJ1SlysxueIF5JpW8cO7cTPJj+vADm5dP9T/jVbtuxAbn4Brrh0YrOXBNRf0H2jw+bMKRlQWvXdj5hw0jg5xPUbNuP71WsCRPd7i5bC6/Xj6FHDEB0TBQpiZ730Ok44bgz69ev1V2LGQfksAlN1dQ1WrPgK23dnIDwsVFlTWyCDL6OjokSz1bp1qp5o0nS7dVBA6ciBA2F57gngmy9+cST+sycCF17SvEEpN1cre7XPpQXo2qUTRgw7AlzYO3bu1hMplEkdjeC58K++fPJhAUpMXSjnaKhdORxA6Y90St27dpbSuOrh9OOxJ19AalISJk08q+nu2Cb8ZAITAYjq9c1bdkibTVhYKDp3bI/EpAQ4ghwHZY7gQQElqb7RRrSBA17g3Io/tQVr167FRRdd1Oyqb8pFs97Zr6CgCHPfWCCHx5+z8nbkiCEYNLDPL0LehnPZm3Ct/aUfzTYTXkfyCmw/oE6puLRETfTw+6UyddzYUTJe5ysquv3+QLTxl+5IE36YiZQUKJ0q36TEk982kAR8gL0ZWbjg/DNlLPX27elYuHgpbr3xqmbXz6hI+n1P6P5ulfW//WNr2z97aZoUlO677z5puqUh++9tPAEcKPDjjz82O1Da/7jyCwrx6utvS+TUq2d3HHfMUfrp0vQX888uhgN5P0Fpw6YtYmRvt6nxUv369sCoo0YICK1Zv0k+hh7Q9I/mOTAp0IF8/t/hNQQllvzfe/+jfSQBjIhGHz1C9Dz0qF74/lJkZuXIs5YPmJiICFx++cGZtfdXnqecvAKk786QKOlANqrY27RJazKXjyYDpbfeegu33nrrgRxj4DVUfy9btqxR7/k7vZjgWlxcKlWbk04YixAR1h1e26crVmL79l0CNoOP6C/h/f4bu+d//HENNm7aji5dO+K4Y0Y1w5Own9H6rxwBr/dPP22QuWd9endD62bqEMDK29erVkvv3oFsgwf1lypk/WDKA3nXgb+myUDpwHfhcHwl6e16e//D6Qjrjer1IIXf9NpRo8jV3IXmGSUeiPbo16z9m+P1PpBjPVjH1QJKB+tMt3xPyxloOQMHdAZaQOmATlPLi1rOQMsZOFhn4KCA0t8pNGyqE/u/cIw6G/tNYzf5va5EBmbbBWaJNdWZP9Sf+/vq/UO9d435/j9aw/tf28Z8dmNe26SgVFNTA6fTKVaamzZtQmpqqhi9ZWRkSJWN3eUN+QaOHj7uuOZlnWpuxC3bdqNn905iX1FaXoGkVuwuBwqLSkEvGqsePCizM/1Ap45tZARyc9uKikoRFhYiQlAa1fF42X5Bopeq4PT0LLRtm4Kc3EI4gh1ISUpotpySjLZ21YnTA4enmoGMvGZZWXmIi4tGZk4+2rdNQ21NjQgMfxex/6YXu7CoRNYpR67zGEJDg1FQWIK2bVJEUFlSWo7WaUmoqKgSfR3Fok3JEjYJKBFRaexGT+6ysjIQnNavXy/Wt926dQMna9L8LScnBzt27BDjN1pAjB8/Hueee+7f9NL99m7lFxRh9U8b0K1rRwGjLdvTMWRQb7kZWYHauGknUpITZHGXllUgNCQYgwb0QngEp/E25eX9a09lQVEJfvxxA0LDQtGlU1uwlFxUqBbz0aOGorKyCpu37ETXrh2Qnp6J4JBgtG2d8rsOlX/tHv51n6bWcCWKCkvQrn0acvOLwOnTrdOSBXBX/7hB9EkbNm9H/7495Obt0CZNXtvctuycAnz2+SpZk0F2B1JTW0lrSft2adiydRd27NqDvr27CUDzmickxKF921QkxMc2yaE2CShxT4uLi8UCd/Xq1SgsLBS/X84xP/vss8Vh8rnnnsPgwYOxcuVKjB49Grt27RJnyua4FRQUI2NPNsLDQ1FUUobCwlK0aZOMxIQ41LncYnERFROJmOhIudh8AiXExTa7pyqfqGvXbUFZWSVGHz1ErGB5c/bq2UWerl+s/AEd2qeJbofHygMsLi5DZFQ4khJV5NgcNkYDfHgUFpaI93pCQqxEDhl7sgSUOJI6Ny8fJSXl2L4jA6FhIejWrSPaJCeibbvmBUrmWJd+/CXGjh4uUVFsbCQcjmApr27dvls6EPILiiUCDnY4kJWdh25dO6Bblw5NcjmbDJSYmtGbe968eeI4yY0DBKZOnYpBgwbhlltuwYMPPoh33nkH5513HmiNe8YZZzTJQTb1h2Zm5mHlN6tx5PCBoIF8dm4hOndsKzdmRbkTnBCRmBSPHTv3gCZoPXp0atIu66Y6Xg47KC2twIYN25GSkiDK5Z/Xbkbvnl3Ru3dnbNi4XcDHAiusVotomBg9BQcHITaWAxKaR1TIKKmi0ingy0C20lmFyIgI+VlyYoKkqTx20Smt2YjU1CSJKsJCQ5pMUNhU15SgRPO6JR+sQJ8+3USRX+Wswt6sPAzo1wPrNmxFZVWViGG5pjnRJC+vSNqjOndq2yS71aSgRI9uto9wegm3pUuX4o477tgHlCZOnIj58+c3a1Bi+Pve4mW44JyTYbVbsXVbffq2bVu6uBbaHXaQo3AE2ZGSnIj4eOWz1Jw2j9eLrVt3S9TA9I2c0Tff/IQhQ/oiLS0J1dW1wr1YLTbU1NQiJMQhUVNERNPZXDTV+SPguOvcKC4ph8frQVV1LawWC7p2bofvf1wvEaDDESRpXWJ8rIARr+2oUaq7vrls5AS37UiXtHzCSWMQGxOF95eswMABvRCfEIP1G7bJOuW56NO7q6SpGXtzJHXt0qldkxxmk4LSxo0bhcwmj8SNbSd0l2SktG3bNgEsvob8E3klDg9oThyLuSJUwr70ygJcfdm5qKyqAUlvwykRlNhBntY6STqvxZfHZpMhjc3xWFd8+b1c0/59uqNVqzgsW/4Njh07QtS9XLCuOjeY5jFyYIQooNSE3jtNclfoKiJJ/fSMLBwxqBe2bEuXG7N/vx6S4jid1fhm1U/o3r0TNm7agSOHDxAFf2qqegA3l42pWVlZBT5ethKnnzoOn3/xHWx2O44eORgZe3KQnZsn0W5URDhGHz0UtHtes3azPFQ7N0dQIl+0detWpKSkyDV69913JW3r168fZs+ejaOPPhqtWrUSzom9RCtWrGh0a8rf4eIzBJ718ls45f/GIq+gGK5aF8LDwxAXG4Ugu124CXIuDUGIXddMb/j0bQ4bIwfyYYz2+DQlaf/d92slLevdq5vMAmOkxA7zvZl56NOnq5wHgjAnnDS3jQ+Snbv2SoV02850eaD07t5Z0vA167ZKqsb0PC4uBuUVlahyVmPb9gyMO+7I5naoWP3jeklNhw7uJ9cwyBGEjIwstG/XGsUlZYiMDJd1HBMTie0794hVcPeuHRAZ+dsjtv7MSWiySEn5s1TLIjXjuWlvwXHdrLSRX4qNjQ10VPOpWlpaGkj1/sxBHez3UqlSVl6BiNBQuL3ewNfbbTYJfelMuD+fwotsbeKhfn/1eWCoT66IfIoy06+WFMZwhgRnSgXIufDnpnusuQBvw/PFZuK6Oo+s3arqGvEQYnRrs1pQXVMr15Uuk+pB4xdpBIdVRkVy9FDzeNCY4yUAk7wn98fj5b3L9JsPUo/HF/BP4qHWuhj9+mVqblPRD00GSn/1DdHyeS1noOUM/G+cgRZQ+t+4zi1H2XIGms0Z+H8U/pM6whMHkgAAAABJRU5ErkJggg==;" vertex="1" parent="1">
          <mxGeometry x="74.21" y="590" width="95.79" height="170" as="geometry" />
        </mxCell>
        <mxCell id="P4cTz3M8oP0S0SRxjrqa-29" value="RN" style="shape=umlLifeline;perimeter=lifelinePerimeter;whiteSpace=wrap;html=1;container=1;collapsible=0;recursiveResize=0;outlineConnect=0;" vertex="1" parent="1">
          <mxGeometry x="1230" y="550" width="230" height="970" as="geometry" />
        </mxCell>
        <mxCell id="P4cTz3M8oP0S0SRxjrqa-30" value="" style="html=1;points=[];perimeter=orthogonalPerimeter;fontSize=12;align=left;" vertex="1" parent="P4cTz3M8oP0S0SRxjrqa-29">
          <mxGeometry x="110" y="570" width="10" height="40" as="geometry" />
        </mxCell>
        <mxCell id="P4cTz3M8oP0S0SRxjrqa-31" value="" style="html=1;points=[];perimeter=orthogonalPerimeter;fontSize=12;align=left;" vertex="1" parent="P4cTz3M8oP0S0SRxjrqa-29">
          <mxGeometry x="110" y="640" width="10" height="110" as="geometry" />
        </mxCell>
        <mxCell id="P4cTz3M8oP0S0SRxjrqa-32" value="" style="html=1;points=[];perimeter=orthogonalPerimeter;fontSize=12;fontColor=#FF0000;align=left;" vertex="1" parent="P4cTz3M8oP0S0SRxjrqa-29">
          <mxGeometry x="115" y="701" width="10" height="40" as="geometry" />
        </mxCell>
        <mxCell id="P4cTz3M8oP0S0SRxjrqa-33" value="8,navigateTo(dic)" style="edgeStyle=orthogonalEdgeStyle;html=1;align=left;spacingLeft=2;endArrow=block;rounded=0;entryX=1;entryY=0;fontSize=12;fontColor=#FF0000;" edge="1" parent="P4cTz3M8oP0S0SRxjrqa-29" target="P4cTz3M8oP0S0SRxjrqa-32">
          <mxGeometry relative="1" as="geometry">
            <mxPoint x="120" y="681" as="sourcePoint" />
            <Array as="points">
              <mxPoint x="145" y="681" />
            </Array>
          </mxGeometry>
        </mxCell>
        <mxCell id="P4cTz3M8oP0S0SRxjrqa-34" value="&lt;span style=&quot;font-size: 13px;&quot;&gt;&lt;b style=&quot;font-size: 13px;&quot;&gt;RN Options&lt;/b&gt;&lt;br style=&quot;font-size: 13px;&quot;&gt;miniId:Shihuo_Category&lt;/span&gt;&lt;br style=&quot;padding: 0px; margin: 0px; font-size: 13px;&quot;&gt;&lt;span style=&quot;font-size: 13px;&quot;&gt;page:TopSubList&lt;/span&gt;&lt;br style=&quot;padding: 0px; margin: 0px; font-size: 13px;&quot;&gt;&lt;span style=&quot;font-size: 13px;&quot;&gt;options:{&quot;block&quot;:&quot;operation&quot;,&quot;topId&quot;:&quot;4415&quot;,&lt;/span&gt;&lt;br style=&quot;padding: 0px; margin: 0px; font-size: 13px;&quot;&gt;&lt;span style=&quot;font-size: 13px;&quot;&gt;&quot;&lt;b style=&quot;font-size: 13px;&quot;&gt;tpExtra&lt;/b&gt;&quot;:&quot;%7b%22sourceTp%22%3a%22bbshome&lt;/span&gt;&lt;br style=&quot;padding: 0px; margin: 0px; font-size: 13px;&quot;&gt;&lt;span style=&quot;font-size: 13px;&quot;&gt;%3alist%3a0%22%2c%22sourceTpName&lt;/span&gt;&lt;br style=&quot;padding: 0px; margin: 0px; font-size: 13px;&quot;&gt;&lt;span style=&quot;font-size: 13px;&quot;&gt;%22%3a%22%22%2c%22fTp%22%3a%22&lt;/span&gt;&lt;br style=&quot;padding: 0px; margin: 0px; font-size: 13px;&quot;&gt;&lt;span style=&quot;font-size: 13px;&quot;&gt;bbshome%3alist%3a0%22%2c%22fTpName&lt;/span&gt;&lt;br style=&quot;padding: 0px; margin: 0px; font-size: 13px;&quot;&gt;&lt;span style=&quot;font-size: 13px;&quot;&gt;%22%3a%22%22%2c%22fPageId%22%3a%22&lt;/span&gt;&lt;br style=&quot;padding: 0px; margin: 0px; font-size: 13px;&quot;&gt;&lt;span style=&quot;font-size: 13px;&quot;&gt;bbs_home_34932ERW324ffsafdsaf%22%2c%22&lt;/span&gt;&lt;br style=&quot;padding: 0px; margin: 0px; font-size: 13px;&quot;&gt;&lt;span style=&quot;font-size: 13px;&quot;&gt;ffTp%22%3a%22%22%2c%22ffTpName%22%3a%22&lt;/span&gt;&lt;br style=&quot;padding: 0px; margin: 0px; font-size: 13px;&quot;&gt;&lt;span style=&quot;font-size: 13px;&quot;&gt;%22%2c%22ffPageId%22%3a%22%22%7d&quot;}&lt;/span&gt;" style="text;html=1;strokeColor=#9673a6;fillColor=#e1d5e7;align=left;verticalAlign=middle;whiteSpace=wrap;rounded=0;fontSize=13;" vertex="1" parent="1">
          <mxGeometry x="1490" y="830" width="340" height="190" as="geometry" />
        </mxCell>
        <mxCell id="P4cTz3M8oP0S0SRxjrqa-35" value="" style="html=1;verticalAlign=bottom;endArrow=block;fontSize=12;entryX=0;entryY=0.923;entryDx=0;entryDy=0;entryPerimeter=0;" edge="1" parent="1">
          <mxGeometry relative="1" as="geometry">
            <mxPoint x="760" y="1130.0100000000002" as="sourcePoint" />
            <mxPoint x="1340" y="1129.9999999999995" as="targetPoint" />
          </mxGeometry>
        </mxCell>
        <mxCell id="P4cTz3M8oP0S0SRxjrqa-36" value="" style="endArrow=none;startArrow=block;endFill=0;startFill=1;html=1;fontSize=12;fontColor=#FF0000;" edge="1" parent="1">
          <mxGeometry width="160" relative="1" as="geometry">
            <mxPoint x="770" y="1323" as="sourcePoint" />
            <mxPoint x="1344.5" y="1323" as="targetPoint" />
          </mxGeometry>
        </mxCell>
        <mxCell id="P4cTz3M8oP0S0SRxjrqa-37" value="dispatch" style="html=1;verticalAlign=bottom;startArrow=circle;startFill=1;endArrow=open;startSize=6;endSize=8;entryX=0.912;entryY=0.209;entryDx=0;entryDy=0;entryPerimeter=0;" edge="1" parent="1">
          <mxGeometry width="80" relative="1" as="geometry">
            <mxPoint x="1470" y="1209.9999999999995" as="sourcePoint" />
            <mxPoint x="1349.12" y="1210.2600000000002" as="targetPoint" />
          </mxGeometry>
        </mxCell>
        <mxCell id="P4cTz3M8oP0S0SRxjrqa-38" value="&lt;span style=&quot;text-align: left&quot;&gt;{url: &lt;b&gt;newHref&lt;/b&gt;&lt;/span&gt;&lt;span style=&quot;text-align: left&quot;&gt;,&lt;br&gt;&quot;tpExtra&quot;: &lt;b&gt;newTpExtra&lt;/b&gt;&lt;/span&gt;&lt;span style=&quot;text-align: left&quot;&gt;}&lt;/span&gt;" style="text;html=1;strokeColor=none;fillColor=none;align=center;verticalAlign=middle;whiteSpace=wrap;rounded=0;fontSize=12;" vertex="1" parent="1">
          <mxGeometry x="840" y="1282" width="470" height="40" as="geometry" />
        </mxCell>
        <mxCell id="P4cTz3M8oP0S0SRxjrqa-39" value="" style="endArrow=none;startArrow=block;endFill=0;startFill=1;html=1;fontSize=12;fontColor=#FF0000;" edge="1" parent="1">
          <mxGeometry width="160" relative="1" as="geometry">
            <mxPoint x="460" y="1481" as="sourcePoint" />
            <mxPoint x="760" y="1482" as="targetPoint" />
          </mxGeometry>
        </mxCell>
        <mxCell id="P4cTz3M8oP0S0SRxjrqa-40" value="11.tp入栈&#xa;addTpInStack(tp, tpName)" style="text;align=center;fontStyle=1;verticalAlign=middle;spacingLeft=3;spacingRight=3;strokeColor=none;rotatable=0;points=[[0,0.5],[1,0.5]];portConstraint=eastwest;fontSize=12;fontColor=#FF0000;" vertex="1" parent="1">
          <mxGeometry x="489.75" y="1446" width="230.5" height="36" as="geometry" />
        </mxCell>
        <mxCell id="P4cTz3M8oP0S0SRxjrqa-41" value="{&lt;br&gt;&quot;urlinfo&quot;:&lt;b&gt;newHref&lt;/b&gt;,&lt;br&gt;&quot;pti&quot;:&lt;span style=&quot;background-color: rgb(255 , 255 , 255)&quot;&gt;&amp;nbsp;&lt;b&gt;newtpExtra&lt;/b&gt;&lt;/span&gt;&lt;br&gt;}" style="text;html=1;strokeColor=#9673a6;fillColor=#e1d5e7;align=center;verticalAlign=middle;whiteSpace=wrap;rounded=0;fontSize=12;" vertex="1" parent="1">
          <mxGeometry x="1120" y="1360" width="110" height="61" as="geometry" />
        </mxCell>
        <mxCell id="P4cTz3M8oP0S0SRxjrqa-42" value="&amp;nbsp;&lt;font color=&quot;#cc0000&quot;&gt;9,StatisticsEvent:sendDaceEvent(newhref, newtpExtra&lt;/font&gt;)" style="html=1;verticalAlign=bottom;endArrow=block;fontSize=12;" edge="1" parent="1">
          <mxGeometry relative="1" as="geometry">
            <mxPoint x="767" y="1372" as="sourcePoint" />
            <mxPoint x="1107" y="1372" as="targetPoint" />
          </mxGeometry>
        </mxCell>
        <mxCell id="P4cTz3M8oP0S0SRxjrqa-43" value="RN &lt;-&gt; Native" style="text;align=center;fontStyle=1;verticalAlign=middle;spacingLeft=3;spacingRight=3;strokeColor=none;rotatable=0;points=[[0,0.5],[1,0.5]];portConstraint=eastwest;fontSize=12;fontColor=#FF0000;" vertex="1" parent="1">
          <mxGeometry x="40" y="520" width="80" height="26" as="geometry" />
        </mxCell>
        <mxCell id="P4cTz3M8oP0S0SRxjrqa-44" value="&lt;span style=&quot;font-size: 13px;&quot;&gt;&lt;b style=&quot;font-size: 13px;&quot;&gt;RN href&lt;/b&gt;&lt;/span&gt;&lt;br style=&quot;padding: 0px; margin: 0px; font-size: 13px;&quot;&gt;&lt;span style=&quot;font-size: 13px;&quot;&gt;shihuo://www.shihuo.cn?route=RNProgram&amp;amp;&lt;/span&gt;&lt;br style=&quot;padding: 0px; margin: 0px; font-size: 13px;&quot;&gt;&lt;span style=&quot;font-size: 13px;&quot;&gt;miniId=Shihuo_Category&amp;amp;page=TopSubList&amp;amp;&lt;/span&gt;&lt;br style=&quot;padding: 0px; margin: 0px; font-size: 13px;&quot;&gt;&lt;span style=&quot;font-size: 13px;&quot;&gt;options={&quot;block&quot;:&quot;operation&quot;,&quot;topId&quot;:&quot;4415&quot;}&lt;/span&gt;&lt;br style=&quot;padding: 0px; margin: 0px; font-size: 13px;&quot;&gt;&lt;span style=&quot;font-size: 13px;&quot;&gt;#{&quot;from&quot;:&quot;home&quot;,&quot;block&quot;:&quot;topList_1&quot;,&lt;/span&gt;&lt;br style=&quot;padding: 0px; margin: 0px; font-size: 13px;&quot;&gt;&lt;span style=&quot;font-size: 13px;&quot;&gt;&quot;extra&quot;:&quot;recommend&quot;,&quot;sort&quot;:&quot;1&quot;}&lt;/span&gt;" style="rounded=0;whiteSpace=wrap;html=1;align=left;fillColor=#f5f5f5;strokeColor=#666666;fontColor=#333333;fontSize=13;" vertex="1" parent="1">
          <mxGeometry x="1490" y="520" width="300" height="100" as="geometry" />
        </mxCell>
        <mxCell id="P4cTz3M8oP0S0SRxjrqa-74" value="&lt;b style=&quot;text-align: left&quot;&gt;RN Options&lt;/b&gt;" style="text;html=1;strokeColor=none;fillColor=none;align=center;verticalAlign=middle;whiteSpace=wrap;rounded=0;fontSize=12;" vertex="1" parent="1">
          <mxGeometry x="827" y="1100" width="470" height="30" as="geometry" />
        </mxCell>
        <mxCell id="P4cTz3M8oP0S0SRxjrqa-76" value="&lt;div style=&quot;font-size: 16px&quot;&gt;&lt;b&gt;&lt;font style=&quot;font-size: 16px&quot;&gt;tpExrtra【RN】&lt;/font&gt;&lt;/b&gt;&lt;/div&gt;&lt;div style=&quot;font-size: 16px&quot;&gt;&lt;font style=&quot;font-size: 16px&quot;&gt;{&quot;sourceTp&quot;:&quot;home&lt;span&gt;:list:0&quot;,&lt;/span&gt;&lt;/font&gt;&lt;/div&gt;&lt;div style=&quot;font-size: 16px&quot;&gt;&lt;font style=&quot;font-size: 16px&quot;&gt;&lt;span&gt;&quot;sourceTpName&lt;/span&gt;&lt;span&gt;&quot;:&quot;&quot;,&lt;/span&gt;&lt;/font&gt;&lt;/div&gt;&lt;div style=&quot;font-size: 16px&quot;&gt;&lt;font style=&quot;font-size: 16px&quot; color=&quot;#cc0000&quot;&gt;&lt;span&gt;&quot;fTp&quot;:&quot;&lt;/span&gt;&lt;span&gt;&quot;,&lt;/span&gt;&lt;/font&gt;&lt;/div&gt;&lt;div style=&quot;font-size: 16px&quot;&gt;&lt;font style=&quot;font-size: 16px&quot; color=&quot;#cc0000&quot;&gt;&lt;span&gt;&quot;fTpName&lt;/span&gt;&lt;span&gt;&quot;:&quot;&quot;,&lt;/span&gt;&lt;/font&gt;&lt;/div&gt;&lt;div style=&quot;font-size: 16px&quot;&gt;&lt;font style=&quot;font-size: 16px&quot; color=&quot;#cc0000&quot;&gt;&lt;span&gt;&quot;fPageId&quot;:&quot;&lt;/span&gt;&lt;span&gt;&quot;,&lt;/span&gt;&lt;/font&gt;&lt;/div&gt;&lt;div style=&quot;font-size: 16px&quot;&gt;&lt;font style=&quot;font-size: 16px&quot;&gt;&lt;span&gt;&quot;&lt;/span&gt;&lt;span&gt;ffTp&quot;:&quot;home:list:0&quot;,&lt;/span&gt;&lt;/font&gt;&lt;/div&gt;&lt;div style=&quot;font-size: 16px&quot;&gt;&lt;font style=&quot;font-size: 16px&quot;&gt;&quot;ffTpName&quot;:&quot;&lt;span&gt;&quot;,&lt;/span&gt;&lt;/font&gt;&lt;/div&gt;&lt;font style=&quot;font-size: 16px&quot;&gt;&quot;ffPageId&quot;:&quot;bbs_home_34932ERW324ffsafdsaf&quot;}&lt;/font&gt;" style="text;html=1;strokeColor=#9673a6;fillColor=#e1d5e7;align=left;verticalAlign=middle;whiteSpace=wrap;rounded=0;fontSize=12;" vertex="1" parent="1">
          <mxGeometry x="1490" y="630" width="360" height="180" as="geometry" />
        </mxCell>
      </root>
    </mxGraphModel>
  </diagram>
</mxfile>
